SplineFontDB: 3.0
FontName: Exo-DemiBoldItalic
FullName: Exo DemiBold Italic
FamilyName: Exo
Weight: Demi
Copyright: Copyright (c) 2011 Natanael Gama (exo@ndiscovered.com), with Reserved Font Name "Exo"
Version: 1
ItalicAngle: 0
UnderlinePosition: -50
UnderlineWidth: 50
Ascent: 800
Descent: 200
LayerCount: 2
Layer: 0 0 "Back"  1
Layer: 1 0 "Fore"  0
XUID: [1021 762 1116966003 8705021]
FSType: 8
OS2Version: 0
OS2_WeightWidthSlopeOnly: 0
OS2_UseTypoMetrics: 1
CreationTime: 1317848041
ModificationTime: 1325018932
PfmFamily: 33
TTFWeight: 600
TTFWidth: 5
LineGap: 90
VLineGap: 0
OS2TypoAscent: 0
OS2TypoAOffset: 1
OS2TypoDescent: 0
OS2TypoDOffset: 1
OS2TypoLinegap: 90
OS2WinAscent: 0
OS2WinAOffset: 1
OS2WinDescent: 0
OS2WinDOffset: 1
HheadAscent: 0
HheadAOffset: 1
HheadDescent: 0
HheadDOffset: 1
OS2Vendor: 'PfEd'
Lookup: 4 0 0 "'ordn' Ordinals lookup 21"  {"'ordn' Ordinals lookup 21-1"  } ['ordn' ('DFLT' <'dflt' > 'grek' <'dflt' > 'latn' <'dflt' > ) ]
Lookup: 1 0 0 "'smcp' Lowercase to Small Capitals lookup 16"  {"'smcp' Lowercase to Small Capitals lookup 16-1" ("smcp" ) } ['smcp' ('DFLT' <'dflt' > 'grek' <'dflt' > 'latn' <'FRA ' 'dflt' > ) ]
Lookup: 1 0 0 "'c2sc' Capitals to Small Capitals in Latin lookup 17"  {"'c2sc' Capitals to Small Capitals in Latin lookup 17 subtable" ("smcp" ) } ['c2sc' ('latn' <'dflt' > ) ]
Lookup: 4 0 0 "'dlig' Discretionary Ligatures lookup 14"  {"'dlig' Discretionary Ligatures lookup 14-1"  } ['dlig' ('DFLT' <'dflt' > 'grek' <'dflt' > 'latn' <'dflt' > ) ]
Lookup: 4 0 1 "'liga' Standard Ligatures lookup 15"  {"'liga' Standard Ligatures lookup 15-1"  } ['liga' ('DFLT' <'dflt' > 'grek' <'dflt' > 'latn' <'FRA ' 'dflt' > ) ]
Lookup: 1 0 0 "'frac' Diagonal Fractions lookup 13"  {"'frac' Diagonal Fractions lookup 13-1"  } ['frac' ('DFLT' <'dflt' > 'grek' <'dflt' > 'latn' <'FRA ' 'dflt' > ) ]

StartChar: a
Encoding: 97 97 0
Width: 541
VWidth: 0
Flags: W
HStem: -6.2998 102.35<205.047 325.679> 0.700195 21G<406.702 503.877> 0.700195 21G<406.702 503.877>
DStem2: 404.85 145.45 500.95 0.700195 0.144809 0.98946<-17.7703 291.456>
LayerCount: 2
Fore
SplineSet
81.1504 289.9 m 0x80
 121 508.65 229.5 534.5 319.2 541 c 0
 393.4 546.85 519.95 528 570.95 479 c 9
 500.95 0.700195 l 17
 412.95 0.700195 l 1x40
 395.3 57.2002 l 17
 368.05 29.4502 294 -6.2998 225.4 -6.2998 c 3
 118.05 -6.2998 40.0996 62.9004 81.1504 289.9 c 0x80
193.8 263.95 m 0
 176 149.75 189.75 96.0498 257.95 96.0498 c 3x80
 322.7 96.0498 359.6 115.05 404.85 145.45 c 1
 448.1 431 l 1
 406.3 443.85 351.4 449.75 317.75 442.8 c 0
 265.35 432.55 218.15 418.55 193.8 263.95 c 0
EndSplineSet
AlternateSubs2: "'salt' Access All Alternates in Latin lookup 4-1" a.salt
Substitution2: "'smcp' Lowercase to Small Capitals lookup 16-1" a.smcp
EndChar

StartChar: z
Encoding: 122 122 1
Width: 467
VWidth: 0
Flags: HW
LayerCount: 2
Fore
SplineSet
40.45 1 m 25
 54.7 102.3 l 25
 360.5 429 l 17
 94.55 429 l 1
 109.45 531 l 25
 526.45 531 l 25
 511.55 429 l 25
 215.25 103 l 17
 458 103 l 17
 459 102 442.45 1 442.45 1 c 25
 40.45 1 l 25
EndSplineSet
Substitution2: "'smcp' Lowercase to Small Capitals lookup 16-1" z.smcp
EndChar

StartChar: e
Encoding: 101 101 2
Width: 526
VWidth: 0
Flags: W
HStem: -7 97.25<200.844 452.612> 442.5 98.5<262.531 423.686>
LayerCount: 2
Fore
SplineSet
82.7 292 m 0
 113.7 455 155.2 540.3 350.2 541 c 0
 468.85 541.35 562.85 507.85 552.05 388 c 0
 532.1 154.3 227.35 199.75 190.35 214.75 c 1
 174.25 118.05 193.6 90.9 264.6 90.25 c 0
 330.1 86.35 425.45 95.35 493.3 106 c 1
 479.7 22 l 17
 398.15 -1.7 313.4 -11.2 212.55 -7 c 0
 84.9 -3.15 46.7 98 82.7 292 c 0
200.8 293.25 m 0
 200.8 293.25 414.8 263.65 433.95 375.75 c 0
 443.85 433.1 410.35 442.85 342.35 442.5 c 0
 224.3 441.8 215.6 368.15 200.8 293.25 c 0
EndSplineSet
Substitution2: "'smcp' Lowercase to Small Capitals lookup 16-1" e.smcp
EndChar

StartChar: o
Encoding: 111 111 3
Width: 560
VWidth: 0
Flags: W
HStem: -5 98.5<210.906 388.262> 438.55 98.5<259.382 430.882>
LayerCount: 2
Fore
SplineSet
81.65 266.75 m 0
 115.65 483.75 185.45 537.05 362.95 537.05 c 3
 537.25 537.05 591.85 444.65 560.15 249.25 c 0
 527.85 52.25 466.65 -5 286.05 -5 c 3
 108.8 -5 51.65 76.75 81.65 266.75 c 0
197.65 258 m 0
 172.85 109.45 209.95 93.5 294.75 93.5 c 3
 382.25 93.5 418.35 105.4 444.15 258 c 0
 469.3 409.4 445.35 438.55 349.7 438.55 c 3
 256.25 438.55 224.1 417.5 197.65 258 c 0
EndSplineSet
Substitution2: "'smcp' Lowercase to Small Capitals lookup 16-1" o.smcp
EndChar

StartChar: c
Encoding: 99 99 5
Width: 493
VWidth: 0
Flags: HW
LayerCount: 2
Fore
SplineSet
82.35 276.5 m 0
 122.5 513.75 203.2 539.05 300 539.05 c 3
 352 539.05 462 527.55 533.5 508.25 c 1
 522 433.25 l 1
 522 433.25 411.65 440.55 322.65 440.55 c 3
 260.5 440.55 228.1 434.3 197.35 262.7 c 0
 173.15 123.15 199.9 92.2 267.35 92.2 c 3
 359.35 92.2 476.7 102.15 476.7 102.15 c 1
 464.55 25.85 l 17
 383.75 -0.65 320.35 -7 220.2 -5.65 c 0
 119.25 -4.65 48.05 73.05 82.35 276.5 c 0
EndSplineSet
Substitution2: "'smcp' Lowercase to Small Capitals lookup 16-1" c.smcp
EndChar

StartChar: d
Encoding: 100 100 6
Width: 550
VWidth: 0
Flags: HW
LayerCount: 2
Fore
SplineSet
82 277 m 0
 106.4 422.15 151.4 539 299.95 539 c 3
 344.95 539 417.35 526.05 467.9 502.5 c 1
 513.2 785 l 1
 627.9 785 l 1
 503.25 0 l 1
 410.7 0 l 1
 396.5 55.5 l 17
 362.25 31.6 285.95 -6 221.1 -6 c 3
 88.45 -6 57.8 135.05 82 277 c 0
198.7 266.5 m 0
 179.1 147.75 200.55 97.05 254.25 97.05 c 3
 316.45 97.05 367.75 114.4 409.35 134.65 c 1
 454.4 420.1 l 1
 408.7 435.65 366.35 442.25 307.55 442.25 c 1
 258.75 442.25 222.55 412 198.7 266.5 c 0
EndSplineSet
AlternateSubs2: "'salt' Access All Alternates in Latin lookup 4-1" d.salt
Substitution2: "'smcp' Lowercase to Small Capitals lookup 16-1" d.smcp
EndChar

StartChar: A
Encoding: 65 65 7
Width: 677
VWidth: 0
Flags: W
HStem: 0 21G<38 176.063 543.913 666> 0 21G<38 176.063 543.913 666> 177.4 105.85<305.9 501.25> 712 20G<398.863 540.768>
DStem2: 38 0 165.9 0 0.452081 0.891977<57.8212 256.813 373.765 704.041> 537.25 732 452.25 579.35 0.173229 -0.984882<135.618 435.729 722.726 722.726>
LayerCount: 2
Fore
SplineSet
38 0 m 1xb0
 409 732 l 1
 537.25 732 l 1
 666 0 l 1
 547.6 0 l 1
 514.9 177.4 l 1
 256.05 177.4 l 1
 165.9 0 l 1
 38 0 l 1xb0
305.9 283.25 m 1
 501.25 283.25 l 1
 452.25 579.35 l 1
 305.9 283.25 l 1
EndSplineSet
Substitution2: "'c2sc' Capitals to Small Capitals in Latin lookup 17 subtable" a.smcp
EndChar

StartChar: p
Encoding: 112 112 8
Width: 557
VWidth: 0
Flags: HW
LayerCount: 2
Fore
SplineSet
8.25 -270 m 1
 137.4 514 l 1
 212.6 528.2 318 535.05 405.8 535.05 c 3
 556.8 535.05 580.25 393.8 559.3 247.75 c 0
 537.1 92.15 473.75 -8.7 332.45 -8.7 c 1
 287.45 -8.7 216.85 1.95 171.9 29 c 1
 123.6 -270 l 1
 8.25 -270 l 1
185.7 110.65 m 1
 218.45 95.65 271.5 81.25 326.6 89.7 c 0
 377.95 95.55 419.8 118.15 443.65 267.2 c 0
 462.75 385.7 438.95 440.05 378.35 440.05 c 2
 240.35 440.05 l 2
 185.7 110.65 l 1
EndSplineSet
AlternateSubs2: "'salt' Access All Alternates in Latin lookup 4-1" p.salt
Substitution2: "'smcp' Lowercase to Small Capitals lookup 16-1" p.smcp
EndChar

StartChar: b
Encoding: 98 98 9
Width: 555
VWidth: 0
Flags: HW
LayerCount: 2
Fore
SplineSet
50.9 0 m 1
 174.9 785 l 1
 289.6 785 l 1
 245.3 502.5 l 1
 303.15 526.05 375.95 539 420.95 539 c 3
 574.05 539 579.3 392.5 555.8 249 c 0
 531.3 102.8 486.45 -12.5 338.85 -6 c 1
 274 -3.4 202.1 31.6 175.25 55.5 c 9
 143.45 0 l 1
 50.9 0 l 1
187.75 134.65 m 1
 223.35 114.4 270.1 97.05 332.3 97.05 c 3
 391.2 97.05 421.85 146.45 440.15 266.5 c 0
 458.15 386 453.9 442.25 386.25 442.25 c 1
 327.45 442.25 284.45 435.65 233.45 420.1 c 1
 187.75 134.65 l 1
EndSplineSet
AlternateSubs2: "'salt' Access All Alternates in Latin lookup 4-1" b.salt
Substitution2: "'smcp' Lowercase to Small Capitals lookup 16-1" b.smcp
EndChar

StartChar: q
Encoding: 113 113 10
Width: 553
VWidth: 0
Flags: HW
LayerCount: 2
Fore
SplineSet
83.65 278.5 m 0
 112.4 457.7 190 538.4 316.95 538.4 c 3
 422.95 538.4 536.35 521.15 584.1 510.85 c 1
 460.8 -270 l 17
 344.8 -270 l 9
 391.8 29 l 1
 338.15 1.95 281.15 -10 236.15 -10 c 3
 83.15 -10 56.9 108.6 83.65 278.5 c 0
200 270.45 m 0
 183.95 158.45 174.2 87.1 262.6 87.1 c 3
 317.7 87.1 344.15 91.1 404.95 110 c 1
 457.3 443.4 l 2
 319.3 443.4 l 2
 234 443.4 209.35 332.4 200 270.45 c 0
EndSplineSet
Substitution2: "'smcp' Lowercase to Small Capitals lookup 16-1" q.smcp
EndChar

StartChar: n
Encoding: 110 110 11
Width: 547
VWidth: 0
Flags: HW
LayerCount: 2
Fore
SplineSet
50.9 0 m 1
 134.9 531 l 1
 225.4 531 l 1
 241.6 472.5 l 1
 298.45 506.1 350.4 540 431.4 540 c 3
 548.6 540 578.55 455.9 563.15 359.5 c 2
 505.9 0 l 9
 389.9 0 l 17
 447.15 360.9 l 2
 456.1 418.5 430.85 441.5 390 441.5 c 3
 325.05 441.5 288.65 425 229.1 391.5 c 1
 166.9 0 l 1
 50.9 0 l 1
EndSplineSet
AlternateSubs2: "'salt' Access All Alternates in Latin lookup 4-1" n.salt
Substitution2: "'smcp' Lowercase to Small Capitals lookup 16-1" n.smcp
EndChar

StartChar: i
Encoding: 105 105 12
Width: 214
VWidth: 0
Flags: W
HStem: 0 21G<49.15 168.314> 0 21G<49.15 168.314> 511 20G<129.986 249.15> 588.8 124.05<150.545 269.714>
VStem: 49.15 232.3
DStem2: 49.15 0 165.15 0 0.166711 0.986006<19.3385 537.573> 149.8 687.85 281.45 687.85 0.166711 0.986006<-563.655 -157.431 -81.8888 28.8205>
LayerCount: 2
Fore
SplineSet
49.15 0 m 1xb8
 133.15 531 l 1
 249.15 531 l 1
 165.15 0 l 1
 49.15 0 l 1xb8
138.3 611.8 m 2
 149.8 687.85 l 2
 151.8 702.85 161.8 712.85 177.8 712.85 c 2
 262.8 712.85 l 2
 277.8 712.85 283.45 701.85 281.45 687.85 c 2
 269.95 611.8 l 2
 267.95 596.8 257.3 588.8 243.3 588.8 c 2
 158.3 588.8 l 2
 144.3 588.8 136.3 597.8 138.3 611.8 c 2
EndSplineSet
Substitution2: "'smcp' Lowercase to Small Capitals lookup 16-1" i.smcp
EndChar

StartChar: h
Encoding: 104 104 13
Width: 547
VWidth: 0
Flags: HW
LayerCount: 2
Fore
SplineSet
50.9 0 m 1
 174.9 783.3 l 1
 290.55 783.3 l 1
 241.25 472.5 l 1
 296.7 505.4 350.4 540 431.4 540 c 3
 548.6 540 578.55 455.9 563.15 359.5 c 2
 505.9 0 l 9
 389.9 0 l 17
 447.15 360.9 l 2
 456.1 418.5 431.5 441.5 390 441.5 c 3
 325.05 441.5 288.65 425 229.1 391.5 c 1
 166.9 0 l 1
 50.9 0 l 1
EndSplineSet
Substitution2: "'smcp' Lowercase to Small Capitals lookup 16-1" h.smcp
EndChar

StartChar: u
Encoding: 117 117 14
Width: 546
VWidth: 0
Flags: HW
LayerCount: 2
Fore
SplineSet
69.7 171.5 m 2
 126.3 531 l 9
 242.3 531 l 17
 185.35 170.1 l 2
 175.1 106 202 89.5 242.85 89.5 c 3
 307.8 89.5 344.2 106 403.75 139.5 c 1
 465.3 531 l 1
 581.3 531 l 1
 496.95 0 l 1
 406.45 0 l 1
 390.6 58.5 l 1
 332.35 22.1 282.45 -9 201.45 -9 c 3
 84.25 -9 53.65 70.55 69.7 171.5 c 2
EndSplineSet
AlternateSubs2: "'salt' Access All Alternates in Latin lookup 4-1" u.salt
Substitution2: "'smcp' Lowercase to Small Capitals lookup 16-1" u.smcp
EndChar

StartChar: r
Encoding: 114 114 15
Width: 421
VWidth: 0
Flags: HW
LayerCount: 2
Fore
SplineSet
50.9 0 m 1
 134.9 531 l 1
 228.9 531 l 1
 239.9 464 l 1
 291.5 499.35 349 536.65 420.85 536.65 c 27
 446 536.65 472 535.35 484.4 529.7 c 1
 466.45 417.15 l 1
 453.05 419.1 421.05 421.05 391.35 421.05 c 27
 325.35 421.05 281.7 407.4 224.25 362.35 c 1
 166.9 0 l 1
 50.9 0 l 1
EndSplineSet
AlternateSubs2: "'salt' Access All Alternates in Latin lookup 4-1" r.salt
Substitution2: "'smcp' Lowercase to Small Capitals lookup 16-1" r.smcp
EndChar

StartChar: m
Encoding: 109 109 16
Width: 883
VWidth: 0
Flags: HW
LayerCount: 2
Fore
SplineSet
50.9 0 m 1
 134.9 531 l 1
 225.4 531 l 1
 241.6 471.2 l 1
 299.85 505.5 343.9 538.05 426.2 538.05 c 1
 489.7 538.05 537.05 505.95 552.05 460.8 c 1
 607.2 498.55 676.55 538.05 766.55 538.05 c 1
 870.1 538.05 915 462.4 898.3 356.9 c 2
 841.7 0 l 1
 725.7 0 l 1
 782.65 358.3 l 2
 790.95 411.35 764.05 439.55 725.15 439.55 c 1
 659.65 439.55 617.3 428.3 563.9 392.65 c 1
 563.55 389.85 558.95 358.75 558.6 355.6 c 2
 502 0 l 1
 386 0 l 1
 442.6 358.3 l 2
 450.9 411.35 423.7 439.55 384.8 439.55 c 1
 319.85 439.55 288 423.7 228.45 390.2 c 1
 166.9 0 l 1
 50.9 0 l 1
EndSplineSet
AlternateSubs2: "'salt' Access All Alternates in Latin lookup 4-1" m.salt
Substitution2: "'smcp' Lowercase to Small Capitals lookup 16-1" m.smcp
EndChar

StartChar: f
Encoding: 102 102 17
Width: 404
VWidth: 0
Flags: HW
LayerCount: 2
Fore
SplineSet
85.35 436 m 1
 97.85 512.7 l 1
 191.35 531 l 1
 200.85 589.05 l 2
 223.75 733.45 269.05 785.35 386.45 785.35 c 1
 429.6 785.35 484.55 771.6 507.55 761.35 c 1
 496.7 690.65 l 1
 496.35 690.65 398.35 691 398.35 691 c 2
 336 691.35 327.9 663.85 313.35 568.05 c 2
 307.35 531 l 1
 448.9 531 l 1
 433.75 436 l 1
 291.55 436 l 1
 220.1 0 l 1
 104.1 0 l 1
 174.9 436 l 1
 85.35 436 l 1
EndSplineSet
AlternateSubs2: "'salt' Access All Alternates in Latin lookup 4-1" f.salt
Substitution2: "'smcp' Lowercase to Small Capitals lookup 16-1" f.smcp
EndChar

StartChar: l
Encoding: 108 108 18
Width: 301
VWidth: 0
Flags: W
HStem: 0 75.95<223.338 284.35> 763 20G<170.035 289.2>
DStem2: 79.2 189 197.65 203 0.156304 0.987709<-56.8866 601.392>
LayerCount: 2
Fore
SplineSet
79.2 189 m 2
 173.2 783 l 1
 289.2 783 l 1
 197.65 203 l 2
 183.4 114.5 199.65 105.05 232 95 c 2
 232 95 293.4 75.95 296.5 75.95 c 1
 284.35 0 l 1
 202.35 0 l 2
 107.35 0 58.5 55.8 79.2 189 c 2
EndSplineSet
Substitution2: "'smcp' Lowercase to Small Capitals lookup 16-1" l.smcp
EndChar

StartChar: j
Encoding: 106 106 19
Width: 233
VWidth: 0
Flags: HW
LayerCount: 2
Fore
SplineSet
16.1 -270 m 1
 143.1 531 l 1
 259.1 531 l 1
 174.1 -4 l 2
 161.1 -90 143.1 -182.9 99.1 -270 c 1
 16.1 -270 l 1
147.55 611.8 m 2
 160.05 687.85 l 2
 162.05 702.85 172.05 712.85 188.05 712.85 c 2
 273.05 712.85 l 2
 288.05 712.85 294.05 701.85 292.05 687.85 c 2
 279.55 611.8 l 2
 277.55 596.8 266.9 588.8 252.9 588.8 c 2
 167.9 588.8 l 2
 153.9 588.8 145.55 597.8 147.55 611.8 c 2
EndSplineSet
Substitution2: "'smcp' Lowercase to Small Capitals lookup 16-1" j.smcp
EndChar

StartChar: t
Encoding: 116 116 20
Width: 376
VWidth: 0
Flags: HW
LayerCount: 2
Fore
SplineSet
82.2 437 m 1
 93.3 507 l 1
 187.95 532 l 1
 232.8 680 l 1
 327.3 680 l 1
 303.95 532 l 1
 435.85 532 l 1
 420.7 437 l 1
 288.8 437 l 1
 252.05 203.35 l 2
 238.45 114.15 253.7 104.7 286.05 94.65 c 2
 286.05 94.65 347.8 75.6 350.9 75.6 c 1
 339.4 -0.35 l 1
 253.2 -0.35 l 2
 162.15 -0.35 113.25 55.5 133.95 189.35 c 2
 172.8 437 l 1
 82.2 437 l 1
EndSplineSet
AlternateSubs2: "'salt' Access All Alternates in Latin lookup 4-1" t.salt
Substitution2: "'smcp' Lowercase to Small Capitals lookup 16-1" t.smcp
EndChar

StartChar: s
Encoding: 115 115 21
Width: 508
VWidth: 0
Flags: HW
LayerCount: 2
Fore
SplineSet
58.75 17.05 m 9
 70.9 92.7 l 17
 329.85 92.7 l 18
 335.8 92.7 371.95 91.25 379.15 133.75 c 2
 385.35 170.6 l 2
 389.95 197.55 383.05 212.65 348.85 212.65 c 10
 219.4 212.65 l 2
 125.4 212.65 73.3 256.95 89.3 358 c 10
 97.3 407.25 l 18
 110.95 491.85 154.35 539.25 257.35 539.25 c 3
 341.2 539.25 486.7 533.15 528.95 516.25 c 9
 516.8 439.3 l 17
 269.1 439.3 l 2
 222.95 439.3 215.25 413.95 212.25 394.65 c 10
 206.7 359.4 l 18
 198.5 310.25 227.05 316.75 249.45 316.75 c 2
 381.95 316.75 l 2
 478.05 316.75 515.45 251.9 503.1 175.5 c 1
 494.1 113.9 l 2
 477.1 4.9 401.5 -8.25 342.7 -8.25 c 3
 260.8 -8.25 93.3 0.0999999 58.75 17.05 c 9
EndSplineSet
Substitution2: "'smcp' Lowercase to Small Capitals lookup 16-1" s.smcp
EndChar

StartChar: k
Encoding: 107 107 22
Width: 515
VWidth: 0
Flags: HW
LayerCount: 2
Fore
SplineSet
50.9 0 m 1
 174.9 782 l 1
 290.9 782 l 1
 219 330 l 1
 300.35 357.4 416.3 449 437.9 531 c 1
 562.9 531 l 1
 528.4 408.6 418.2 319.4 354.4 288 c 1
 530.9 0 l 1
 398.9 0 l 1
 245.45 252.6 l 1
 207.45 251.6 l 9
 166.9 0 l 17
 50.9 0 l 1
EndSplineSet
Substitution2: "'smcp' Lowercase to Small Capitals lookup 16-1" k.smcp
EndChar

StartChar: g
Encoding: 103 103 23
Width: 555
VWidth: 0
Flags: HW
LayerCount: 2
Fore
SplineSet
25.8 -248 m 1
 38 -171 l 1
 275 -171 l 2
 324.1 -171 365 -140 375 -76 c 2
 392.5 34.25 l 1
 339.2 7.55 283.8 -3.75 238.8 -3.75 c 3
 81.25 -3.75 57.6 118.4 84.35 288.3 c 0
 112.4 463.65 196.2 539.1 312.75 539.1 c 3
 418.75 539.1 537.4 521.85 585.15 511.55 c 1
 490.3 -86.5 l 2
 469.25 -218.2 387.75 -284.2 269.3 -272 c 2
 25.8 -248 l 1
200.7 276.05 m 0
 187.9 190.7 170.35 92.7 262.65 92.7 c 3
 317.75 92.7 344.2 96.7 405 115.6 c 1
 457.65 444.1 l 2
 322.9 444.1 l 2
 233.05 444.1 208.75 326.3 200.7 276.05 c 0
EndSplineSet
AlternateSubs2: "'salt' Access All Alternates in Latin lookup 4-1" g.salt
Substitution2: "'smcp' Lowercase to Small Capitals lookup 16-1" g.smcp
EndChar

StartChar: v
Encoding: 118 118 24
Width: 527
VWidth: 0
Flags: W
HStem: 0 21G<193.159 349.986> 0 21G<193.159 349.986> 511 20G<87.35 213.242 459.325 571.45>
VStem: 462.15 103.45<449.225 531.7>
DStem2: 209.5 531 87.35 531 0.202761 -0.979228<0 405.544> 284.1 132.3 339.65 0 0.459105 0.888382<0 426.425>
LayerCount: 2
Fore
SplineSet
87.35 531 m 25xb0
 209.5 531 l 17
 284.1 132.3 l 1
 432.3 431.4 l 2
 445.3 458.4 456.5 484.55 462.15 531.7 c 9
 565.6 531.7 l 17
 577.3 483.3 564.4 436.05 545.9 399.1 c 1
 339.65 0 l 9
 197.3 0 l 25
 87.35 531 l 25xb0
EndSplineSet
Substitution2: "'smcp' Lowercase to Small Capitals lookup 16-1" v.smcp
EndChar

StartChar: w
Encoding: 119 119 25
Width: 817
VWidth: 0
Flags: HW
LayerCount: 2
Fore
SplineSet
87.35 531 m 1
 207.55 531 l 1
 280.2 135.55 l 1
 429.05 429.45 l 1
 442.05 456.45 453.25 482.6 458.9 529.75 c 1
 559.1 529.75 l 1
 569.05 490.8 564.2 454.05 548.85 418.5 c 1
 527.9 370.65 l 1
 572.8 139.45 l 1
 726.2 431.4 l 1
 739.2 458.4 750.4 484.55 756.05 531.7 c 1
 856.9 531.7 l 1
 868.6 483.3 857 435.4 837.2 399.1 c 2
 619.25 0 l 1
 494.1 0 l 1
 448.35 231.7 l 1
 332.5 0 l 1
 197.3 0 l 1
 87.35 531 l 1
EndSplineSet
Substitution2: "'smcp' Lowercase to Small Capitals lookup 16-1" w.smcp
EndChar

StartChar: y
Encoding: 121 121 26
Width: 558
VWidth: 0
Flags: HW
LayerCount: 2
Fore
SplineSet
87.7 531 m 1
 208.1 531 l 1
 252.5 143.65 l 2
 258.05 100.95 304.05 105 309.65 104.65 c 1
 465.2 432.35 l 2
 477.8 459.7 484.9 485.5 490.55 532.65 c 1
 595.3 532.65 l 1
 607 484.25 594.6 435.1 576.85 397.45 c 1
 387.7 0.65 l 2
 291.95 -202.95 185.9 -264.15 94.15 -281.25 c 1
 94.15 -199.2 l 1
 180.4 -149.35 227.65 -72.05 264.65 0 c 1
 207.45 0 148.9 29.6 137.05 126.1 c 2
 87.7 531 l 1
EndSplineSet
Substitution2: "'smcp' Lowercase to Small Capitals lookup 16-1" y.smcp
EndChar

StartChar: x
Encoding: 120 120 27
Width: 555
VWidth: 0
Flags: W
HStem: 0 21G<20.5 183.158 385.742 529.9> 0 21G<20.5 183.158 385.742 529.9> 511 20G<104.5 251.224 459.191 618.65>
DStem2: 20.5 0 166.7 0 0.650838 0.759216<95.1526 315.592 472.139 699.406> 240.95 531 104.5 531 0.481539 -0.876425<0 197 347.88 540.165>
LayerCount: 2
Fore
SplineSet
20.5 0 m 1xa0
 249.55 272.2 l 1
 104.5 531 l 1
 240.95 531 l 1
 331 355.7 l 1
 475.7 531 l 1
 618.65 531 l 1
 388.55 253.4 l 1
 529.9 0 l 1
 396.25 0 l 1
 306.8 170.25 l 1
 166.7 0 l 1
 20.5 0 l 1xa0
EndSplineSet
AlternateSubs2: "'salt' Access All Alternates in Latin lookup 4-1" x.salt
Substitution2: "'smcp' Lowercase to Small Capitals lookup 16-1" x.smcp
EndChar

StartChar: V
Encoding: 86 86 28
Width: 680
VWidth: 0
Flags: W
HStem: 0 21G<263.126 406.541> 0 21G<263.126 406.541> 712 20G<143 268.217 624.059 764>
DStem2: 265.1 732 143 732 0.166365 -0.986064<0 578.203> 354.15 160.65 396.5 0 0.448678 0.893693<0 636.107>
LayerCount: 2
Fore
SplineSet
143 732 m 1xa0
 265.1 732 l 1
 354.15 160.65 l 1
 633.85 732 l 1
 764 732 l 1
 396.5 0 l 1
 266.5 0 l 1
 143 732 l 1xa0
EndSplineSet
Substitution2: "'c2sc' Capitals to Small Capitals in Latin lookup 17 subtable" v.smcp
EndChar

StartChar: W
Encoding: 87 87 29
Width: 1007
VWidth: 0
Flags: HW
LayerCount: 2
Fore
SplineSet
143 732 m 1
 263.15 732 l 1
 353.55 165.45 l 1
 623.35 732 l 1
 749.35 732 l 1
 642.45 511.5 l 1
 696.2 161.55 l 1
 967.75 732 l 1
 1091.8 732 l 1
 738.3 0 l 1
 611.1 0 l 1
 559.2 327.45 l 1
 398.95 0 l 1
 266.5 0 l 1
 143 732 l 1
EndSplineSet
Substitution2: "'c2sc' Capitals to Small Capitals in Latin lookup 17 subtable" w.smcp
EndChar

StartChar: C
Encoding: 67 67 30
Width: 573
VWidth: 0
Flags: HW
LayerCount: 2
Fore
SplineSet
105.55 378.85 m 0
 143.5 612.5 211.4 740 410.4 740 c 0
 494.6 740 584.15 726.15 656.7 706.5 c 1
 642.45 615.3 l 1
 627.8 617.25 513.9 632.3 416.1 631 c 1
 350.95 630.35 263.95 635 221.55 366 c 1
 194.25 203.3 217 108.85 328.4 103 c 1
 393.75 101.05 472.3 104.85 564.6 111.35 c 1
 551 20.15 l 1
 472.65 -3.9 389.05 -7.05 295 -6 c 0
 107.75 -4.95 74.05 182.25 105.55 378.85 c 0
EndSplineSet
Substitution2: "'c2sc' Capitals to Small Capitals in Latin lookup 17 subtable" c.smcp
EndChar

StartChar: D
Encoding: 68 68 31
Width: 660
VWidth: 0
Flags: W
HStem: 0 107.45<200.65 440.238> 626.5 105.5<282.85 518.716>
DStem2: 67.75 0 200.65 107.45 0.156653 0.987654<126.943 652.461>
LayerCount: 2
Fore
SplineSet
67.75 0 m 1
 183.75 731.35 l 2
 183.75 732 432.8 732 471.8 732 c 0
 687.7 732 697.9 510.2 672.05 352.5 c 0
 633.65 116.05 543.05 0 361.75 0 c 0
 67.75 0 l 1
200.65 107.45 m 1
 366.4 107.45 l 2
 473.3 107.45 533.1 217.8 556.4 364 c 0
 587.35 558.65 547.3 626.5 445.1 626.5 c 2
 282.85 626.5 l 1
 200.65 107.45 l 1
EndSplineSet
Substitution2: "'c2sc' Capitals to Small Capitals in Latin lookup 17 subtable" d.smcp
EndChar

StartChar: O
Encoding: 79 79 32
Width: 666
VWidth: 0
Flags: W
HStem: -4 109<250.449 462.77> 628 109<324.338 544.59>
LayerCount: 2
Fore
SplineSet
107.65 369.75 m 0
 161.65 712.75 278.25 737 450.8 737 c 3
 624.45 737 739.05 687.45 687.65 352.25 c 0
 637.95 29.25 521.6 -4 346.15 -4 c 3
 177.85 -4 54.65 36.75 107.65 369.75 c 0
223.65 361 m 0
 188.6 140.4 225.1 105 356.9 105 c 3
 479.3 105 537.55 144.9 571.65 361 c 0
 611.65 614.85 552.5 628 440.05 628 c 3
 322.8 628 264 618 223.65 361 c 0
EndSplineSet
Substitution2: "'c2sc' Capitals to Small Capitals in Latin lookup 17 subtable" o.smcp
EndChar

StartChar: S
Encoding: 83 83 33
Width: 576
VWidth: 0
Flags: W
HStem: -8 109<96.7092 421.293> 302.75 116<247.172 452.732> 629 109<279.327 599.204>
DStem2: 124.3 490.5 242.75 499.25 0.141709 0.989908<-41.6068 141.59> 451.05 173.85 567.4 166.5 0.117667 0.993053<-49.361 116.497>
LayerCount: 2
Fore
SplineSet
73.75 19.5 m 9
 88 111.35 l 17
 129.6 106.05 242 101 335 101 c 0
 376.7 101 440.85 108.1 451.05 173.85 c 2
 458.9 223.65 l 2
 466.5 270.85 463.4 302.75 398.6 302.75 c 10
 283.75 302.75 l 2
 114.85 302.75 114.341 425.26 124.3 490.5 c 10
 134.65 562.8 l 18
 157.9 714.95 253 739.55 362.4 738 c 0
 448.65 738.1 565.3 725.5 624.9 710.85 c 9
 610.65 619.65 l 17
 556.1 622.1 392.4 629 369.3 629 c 1
 301 631.6 262.15 623.1 249.95 546 c 10
 242.75 499.25 l 18
 229.95 418.85 265.15 418.75 318.5 418.75 c 2
 434.75 418.75 l 18
 567.9 418.75 587.2 314.05 575.25 232.75 c 2
 567.4 166.5 l 2
 549.35 1.9 419.7 -8 331.75 -8 c 3
 231.705 -8 129.75 3.05 73.75 19.5 c 9
EndSplineSet
Substitution2: "'c2sc' Capitals to Small Capitals in Latin lookup 17 subtable" s.smcp
EndChar

StartChar: G
Encoding: 71 71 34
Width: 612
VWidth: 0
Flags: W
HStem: -6.3 110.4<259.038 401.437> 307 99.5<401.532 506> 307 74.5<390.85 497.636> 633.85 105.5<334.475 615.887>
DStem2: 479.7 155.95 573.05 0 0.157012 0.987597<-16.5464 153.306>
LayerCount: 2
Fore
SplineSet
108.6 382.05 m 0xd0
 150.05 615.7 211.6 739.35 410.6 739.35 c 0
 498.1 740 575.7 728.25 665.05 706.85 c 1
 651.45 617.05 l 1
 610.35 622.9 491 633.2 416.65 633.85 c 1
 345.75 634.5 264.9 621.35 226.55 366.05 c 1
 200.55 202.7 219.1 103.45 325.95 104.1 c 1
 398.35 104.1 479.7 155.95 479.7 155.95 c 9
 506 307 l 25xd0
 379 307 l 25
 390.85 381.5 l 17xb0
 435.3 397.05 494.1 406.5 569.85 406.5 c 0
 590.85 406.5 613.2 405.5 637.2 403.5 c 9
 573.05 0 l 17
 488.05 0 l 0
 465.1 54.2 l 1
 432.4 22.4 370.85 -4.55 293.45 -6.3 c 0
 99.4 -10.2 76.05 198.75 108.6 382.05 c 0xd0
EndSplineSet
Substitution2: "'c2sc' Capitals to Small Capitals in Latin lookup 17 subtable" g.smcp
EndChar

StartChar: Q
Encoding: 81 81 35
Width: 669
VWidth: 0
Flags: HW
LayerCount: 2
Fore
SplineSet
110.25 371.5 m 0
 164.25 714.5 280.85 737 453.4 737 c 3
 627.05 737 741.65 685.7 690.25 350.5 c 1
 640.55 27.5 524.2 -3.3 348.75 -4 c 1
 180.45 -4 57.25 38.5 110.25 371.5 c 0
226.25 361 m 0
 191.2 140.4 227.7 105 359.5 105 c 3
 481.9 105 540.15 144.9 574.25 361 c 0
 614.25 614.85 555.1 628 442.65 628 c 3
 325.4 628 266.6 618 226.25 361 c 0
298.85 -33 m 9
 368.35 -33 l 17
 402.7 -82.95 467.8 -76.1 529.15 -58.25 c 1
 513 -159.25 l 1
 419.15 -183.1 290.8 -150.85 298.85 -33 c 9
EndSplineSet
Substitution2: "'c2sc' Capitals to Small Capitals in Latin lookup 17 subtable" q.smcp
EndChar

StartChar: M
Encoding: 77 77 36
Width: 818
VWidth: 0
Flags: W
HStem: 0 21G<57 178.4 360.101 500.071 679.95 796.319> 0 21G<57 178.4 360.101 500.071 679.95 796.319> 712 20G<226.732 390.818 676.379 846.85>
DStem2: 57 0 173.7 0 0.23189 0.972742<27.0616 569.799> 388.4 732 297.85 528.35 0.120026 -0.992771<191.309 543.63> 453.65 192.3 491.4 0 0.393919 0.919145<0 414.692> 679.95 0 794.9 0 0.0707918 0.997491<8.13752 530.561>
LayerCount: 2
Fore
SplineSet
57 0 m 1xa0
 231.5 732 l 1
 388.4 732 l 1
 453.65 192.3 l 1
 684.95 732 l 1
 846.85 732 l 1
 794.9 0 l 1
 679.95 0 l 1
 720.75 529 l 1
 491.4 0 l 1
 362.55 0 l 1
 297.85 528.35 l 1
 173.7 0 l 1
 57 0 l 1xa0
EndSplineSet
AlternateSubs2: "'salt' Access All Alternates in Latin lookup 4-1" M.salt
Substitution2: "'c2sc' Capitals to Small Capitals in Latin lookup 17 subtable" m.smcp
EndChar

StartChar: I
Encoding: 73 73 37
Width: 244
VWidth: 0
Flags: W
HStem: 0 21G<74.25 193.419> 0 21G<74.25 193.419> 712 20G<187.081 306.25>
VStem: 74.25 232
DStem2: 74.25 0 190.25 0 0.156517 0.987675<18.156 741.134>
LayerCount: 2
Fore
SplineSet
74.25 0 m 1xb0
 190.25 732 l 1
 306.25 732 l 1
 190.25 0 l 1
 74.25 0 l 1xb0
EndSplineSet
Substitution2: "'c2sc' Capitals to Small Capitals in Latin lookup 17 subtable" i.smcp
EndChar

StartChar: J
Encoding: 74 74 38
Width: 357
VWidth: 0
Flags: HW
LayerCount: 2
Fore
SplineSet
32.75 22.4 m 1
 49.6 111.4 l 1
 132.5 99.7 205.15 89.8 223 203.85 c 1
 306.7 732 l 1
 422.7 732 l 1
 332.7 165 l 2
 325.7 118 312 50 257 18 c 0
 199 -16 79.75 -11.6 32.75 22.4 c 1
EndSplineSet
Substitution2: "'c2sc' Capitals to Small Capitals in Latin lookup 17 subtable" j.smcp
EndChar

StartChar: H
Encoding: 72 72 39
Width: 646
VWidth: 0
Flags: W
HStem: 0 21G<71 190.195 474 593.169> 0 21G<71 190.195 474 593.169> 299.5 109<251.15 521.85> 712 20G<183.831 303 586.794 706>
DStem2: 71 0 187 0 0.156517 0.987675<18.156 321.454 431.662 741.134> 474 0 590 0 0.156517 0.987675<18.156 303.298 413.506 741.134>
LayerCount: 2
Fore
SplineSet
71 0 m 1xb0
 187 732 l 1
 303 732 l 1
 251.15 408.5 l 1
 538.15 408.5 l 1
 590 732 l 1
 706 732 l 1
 590 0 l 1
 474 0 l 1
 521.85 299.5 l 1
 234.85 299.5 l 1
 187 0 l 1
 71 0 l 1xb0
EndSplineSet
Substitution2: "'c2sc' Capitals to Small Capitals in Latin lookup 17 subtable" h.smcp
EndChar

StartChar: E
Encoding: 69 69 40
Width: 562
VWidth: 0
Flags: W
HStem: -3 110.75<207.582 494.659> 14 93.75<268.271 527.15> 306.55 114.7<247.15 448.013> 316.2 94.7<344.025 530.85> 621.25 110.75<283.622 604.345> 621.25 94.75<380.652 623.2>
DStem2: 86.1 140.5 205.6 159.75 0.156474 0.987682<-5.37011 186.396 302.492 501.016>
LayerCount: 2
Fore
SplineSet
86.1 140.5 m 2x80
 157.55 591.5 l 2
 176 705.6 247.1 734.6 327.65 732 c 1x88
 327.65 732 597.9 721.6 638.15 716 c 1
 623.2 621.25 l 1x04
 330.7 621.25 l 2
 281.3 621.25 274.05 592.25 270.05 565.25 c 2
 247.15 421.25 l 1x28
 546.45 410.9 l 1
 530.85 316.2 l 1x10
 229.2 306.55 l 1
 205.6 159.75 l 2
 197.9 106.75 231.25 107.75 260.25 107.75 c 2xa0
 542.75 107.75 l 1
 527.15 14 l 1x40
 490.05 9.1 220.65 -3 220.65 -3 c 1
 151.733 -6.41667 67.95 25.85 86.1 140.5 c 2x80
EndSplineSet
Substitution2: "'c2sc' Capitals to Small Capitals in Latin lookup 17 subtable" e.smcp
EndChar

StartChar: L
Encoding: 76 76 41
Width: 531
VWidth: 0
Flags: W
HStem: 0 109<209.723 517.05> 712 20G<180.841 299.4>
DStem2: 88.5 136.5 208.35 161 0.158427 0.987371<-0.39183 603.117>
LayerCount: 2
Fore
SplineSet
88.5 136.5 m 2
 184.05 732 l 1
 299.4 732 l 1
 208.35 161 l 2
 200.35 108 234 109 263 109 c 2
 534 109 l 1
 517.05 0 l 1
 213.25 0 l 2
 137.85 0 72.45 35.85 88.5 136.5 c 2
EndSplineSet
Substitution2: "'c2sc' Capitals to Small Capitals in Latin lookup 17 subtable" l.smcp
EndChar

StartChar: F
Encoding: 70 70 42
Width: 564
VWidth: 0
Flags: W
HStem: 0 21G<66 185.159> 0 21G<66 185.159> 305.15 114.7<248.8 449.993> 314.8 94.7<345.578 533.2> 621.25 110.75<284.777 605.695> 621.25 94.75<382.002 624.9>
DStem2: 66 0 182 0 0.155815 0.987786<18.0745 327.008 443.205 640.983>
LayerCount: 2
Fore
SplineSet
66 0 m 17xa0
 158.2 584.5 l 2
 176.65 698.6 248.1 734.6 329 732 c 1xa8
 329 732 599.25 721.6 639.5 716 c 1
 624.9 621.25 l 1x04
 332.4 621.25 l 2
 283 621.25 275.4 592.25 271.4 565.25 c 2
 248.8 419.85 l 1x28
 547.8 409.5 l 1
 533.2 314.8 l 1x10
 230.2 305.15 l 1
 182 0 l 9
 66 0 l 17xa0
EndSplineSet
Substitution2: "'c2sc' Capitals to Small Capitals in Latin lookup 17 subtable" f.smcp
EndChar

StartChar: K
Encoding: 75 75 43
Width: 602
VWidth: 0
Flags: W
HStem: 0 21G<67.75 184.399 442.33 585.75> 0 21G<67.75 184.399 442.33 585.75> 312.5 105.5<246.35 306.75> 712 20G<180.581 296.25 544.668 701.75>
DStem2: 67.75 0 181.25 0 0.156517 0.987675<17.7647 334.114 440.802 741.134> 413.5 357.45 306.75 312.5 0.434111 -0.900859<0 338.552> 313.4 418 413.5 357.45 0.60989 0.792486<13.0649 399.483>
LayerCount: 2
Fore
SplineSet
67.75 0 m 1xb0
 183.75 732 l 1
 296.25 732 l 1
 246.35 418 l 1
 313.4 418 l 1
 560.4 732 l 1
 701.75 732 l 1
 413.5 357.45 l 1
 585.75 0 l 1
 451.6 0 l 1
 306.75 312.5 l 1
 230.45 312.5 l 9
 181.25 0 l 17
 67.75 0 l 1xb0
EndSplineSet
Substitution2: "'c2sc' Capitals to Small Capitals in Latin lookup 17 subtable" k.smcp
EndChar

StartChar: T
Encoding: 84 84 44
Width: 585
VWidth: 0
Flags: W
HStem: 0 21G<233.25 352.409> 0 21G<233.25 352.409> 623 109<145.75 331.65 447.65 657.15>
DStem2: 233.25 0 349.25 0 0.156011 0.987755<18.0973 630.723>
LayerCount: 2
Fore
SplineSet
128.15 623 m 1xa0
 145.75 732 l 1
 674.75 732 l 1
 657.15 623 l 1
 447.65 623 l 1
 349.25 0 l 1
 233.25 0 l 1
 331.65 623 l 1
 128.15 623 l 1xa0
EndSplineSet
Substitution2: "'c2sc' Capitals to Small Capitals in Latin lookup 17 subtable" t.smcp
EndChar

StartChar: P
Encoding: 80 80 45
Width: 596
VWidth: 0
Flags: W
HStem: 0 21G<64.15 183.355> 0 21G<64.15 183.355> 280.5 105.5<241.506 484.146> 298.55 87.45<241.25 479.895> 625.5 106.5<279.25 514.904>
DStem2: 64.15 0 180.15 0 0.156517 0.987675<18.156 320.516 408.962 651.458>
LayerCount: 2
Fore
SplineSet
64.15 0 m 1x98
 180.15 732 l 1
 486.15 732 l 2
 573.2 732 670.45 681.55 644.25 500.75 c 0
 611.15 272.25 494.95 278.05 415 280.5 c 0xa8
 375 281.55 233 295.55 228 298.55 c 1
 180.15 0 l 1
 64.15 0 l 1x98
241.25 386 m 2x18
 423.6 386 l 2x28
 470.7 386 510.8 405.9 527.25 510.2 c 1
 542.4 612.85 499.85 625.5 462.25 625.5 c 2
 279.25 625.5 l 1
 241.25 386 l 2x18
EndSplineSet
Substitution2: "'c2sc' Capitals to Small Capitals in Latin lookup 17 subtable" p.smcp
EndChar

StartChar: R
Encoding: 82 82 46
Width: 606
VWidth: 0
Flags: W
HStem: 0 21G<64.15 183.322 457.798 594.15> 0 21G<64.15 183.322 457.798 594.15> 295.75 92.7<242.6 324.717> 625.5 106.5<280.25 513.473>
DStem2: 64.15 0 180.15 0 0.156517 0.987675<18.156 317.602 411.593 651.614> 489.55 293.25 373.55 285.25 0.33596 -0.941876<0 267.672>
LayerCount: 2
Fore
SplineSet
64.15 0 m 1xb0
 180.15 732 l 1
 490.4 732 l 2
 591.15 732 664.15 670.25 642.95 498 c 0
 620.8 312.3 522.75 297.95 489.55 293.25 c 1
 594.15 0 l 1
 464.15 0 l 1
 373.55 285.25 l 1
 227.05 295.75 l 1
 180.15 0 l 1
 64.15 0 l 1xb0
242.6 388.45 m 1
 423.85 388.45 l 2
 477.45 388.45 517.3 418.35 525.95 506.75 c 0
 535.55 607.95 513.95 625.5 464.75 625.5 c 2
 280.25 625.5 l 1
 242.6 388.45 l 1
EndSplineSet
Substitution2: "'c2sc' Capitals to Small Capitals in Latin lookup 17 subtable" r.smcp
EndChar

StartChar: U
Encoding: 85 85 47
Width: 654
VWidth: 0
Flags: W
HStem: -5 109<260.305 445.428> 712 20G<178.86 298.7 599.89 720.05>
DStem2: 116.15 318.8 231.75 308.3 0.156076 0.987745<-126.245 418.422> 536.1 308.3 654.85 297.8 0.148496 0.988913<-137.824 428.944>
LayerCount: 2
Fore
SplineSet
116.15 318.8 m 2
 182.05 732 l 1
 298.7 732 l 1
 231.75 308.3 l 2
 207 151.9 238.35 104 349.6 104 c 3
 465.25 104 513 161.1 536.1 308.3 c 2
 603.05 732 l 1
 720.05 732 l 1
 654.85 297.8 l 2
 622.05 91.8 536.2 -5 335.9 -5 c 3
 181.7 -5 74.85 58.6 116.15 318.8 c 2
EndSplineSet
Substitution2: "'c2sc' Capitals to Small Capitals in Latin lookup 17 subtable" u.smcp
EndChar

StartChar: B
Encoding: 66 66 48
Width: 598
VWidth: 0
Flags: W
HStem: 0 105.5<201.3 439.119> 332.65 102<253.5 467.061> 626.5 105.5<284.15 514.569>
DStem2: 67.75 0 201.3 105.5 0.156517 0.987675<125.103 355.033 458.366 652.649>
LayerCount: 2
Fore
SplineSet
67.75 0 m 1
 183.75 732 l 1
 475.5 732 l 2
 625 732 659.45 627.55 645.95 529.55 c 0
 634.65 442.85 585.35 392.5 522.75 380 c 1
 567.15 372.55 616.25 307.25 602.6 199.25 c 0
 584.05 58.65 515.25 0 361.25 0 c 2
 67.75 0 l 1
201.3 105.5 m 1
 374.65 105.5 l 2
 419.15 105.5 471.85 123.05 486.65 215.8 c 0
 496.55 276.85 478.55 332.65 410.3 332.65 c 9
 236.95 332.65 l 1
 201.3 105.5 l 1
253.5 434.65 m 1
 423.35 434.65 l 2
 482.6 434.65 519.8 468.05 529.65 531.15 c 0
 541.85 609.6 503.95 626.5 454.65 626.5 c 2
 284.15 626.5 l 1
 253.5 434.65 l 1
EndSplineSet
Substitution2: "'c2sc' Capitals to Small Capitals in Latin lookup 17 subtable" b.smcp
EndChar

StartChar: N
Encoding: 78 78 49
Width: 665
VWidth: 0
Flags: W
HStem: 0 21G<67.75 187.91 492.22 617.919> 0 21G<67.75 187.91 492.22 617.919> 712 20G<180.581 308.166 611.598 730.75>
DStem2: 67.75 0 184.75 0 0.156517 0.987675<18.3125 539.953> 299.15 732 266.15 515.25 0.410967 -0.91165<184.038 569.023> 533 213.25 614.75 0 0.156517 0.987675<0 525.152>
LayerCount: 2
Fore
SplineSet
67.75 0 m 1xa0
 183.75 732 l 1
 299.15 732 l 1
 533 213.25 l 1
 614.75 732 l 1
 730.75 732 l 1
 614.75 0 l 0
 501.35 0 l 1
 266.15 515.25 l 1
 184.75 0 l 1
 67.75 0 l 1xa0
EndSplineSet
AlternateSubs2: "'salt' Access All Alternates in Latin lookup 4-1" N.salt
Substitution2: "'c2sc' Capitals to Small Capitals in Latin lookup 17 subtable" n.smcp
EndChar

StartChar: X
Encoding: 88 88 50
Width: 628
VWidth: 0
Flags: W
HStem: 0 21G<34.5 182.318 456.122 590.45> 0 21G<34.5 182.318 456.122 590.45> 712 20G<147.5 281.857 568.213 716>
DStem2: 34.5 0 167.6 0 0.59958 0.800315<79.8041 399.006 582.158 914.64> 273.45 732 147.5 732 0.397396 -0.917647<0 290.696 468.914 747.64>
LayerCount: 2
Fore
SplineSet
34.5 0 m 1xa0
 307 370.65 l 1
 147.5 732 l 1
 273.45 732 l 1
 386.1 464 l 1
 582.9 732 l 1
 716 732 l 1
 435.55 350.8 l 1
 590.45 0 l 1
 464.5 0 l 1
 356.8 257.1 l 1
 167.6 0 l 1
 34.5 0 l 1xa0
EndSplineSet
AlternateSubs2: "'salt' Access All Alternates in Latin lookup 4-1" X.salt
Substitution2: "'c2sc' Capitals to Small Capitals in Latin lookup 17 subtable" x.smcp
EndChar

StartChar: Z
Encoding: 90 90 51
Width: 559
VWidth: 0
Flags: HW
LayerCount: 2
Fore
SplineSet
29.75 0 m 1
 47.35 109 l 1
 483.9 623 l 1
 128.15 623 l 1
 145.75 732 l 1
 645.75 732 l 1
 628.15 623 l 1
 198.25 109 l 1
 547.35 109 l 1
 529.75 0 l 1
 29.75 0 l 1
EndSplineSet
Substitution2: "'c2sc' Capitals to Small Capitals in Latin lookup 17 subtable" z.smcp
EndChar

StartChar: Y
Encoding: 89 89 52
Width: 647
VWidth: 0
Flags: HW
LayerCount: 2
Fore
SplineSet
143 732 m 1
 267.55 732 l 1
 367.55 370.95 l 1
 597.15 732 l 1
 731 732 l 1
 407.55 239 l 1
 369.7 0 l 1
 253.7 0 l 1
 291.55 239 l 1
 143 732 l 1
EndSplineSet
Substitution2: "'c2sc' Capitals to Small Capitals in Latin lookup 17 subtable" y.smcp
EndChar

StartChar: AE
Encoding: 198 198 59
Width: 981
VWidth: 0
Flags: HW
LayerCount: 2
Fore
SplineSet
25.45 0 m 1
 406.85 585.8 l 2
 506.05 737.15 602.3 734.45 704.55 732 c 1
 704.55 732 977.1 721.6 1017 716 c 1
 1002.4 620.6 l 1
 707.95 620.6 l 2
 658.55 620.6 654.2 593.55 648.9 566.55 c 1
 625 416.6 l 1
 924.65 406.25 l 1
 910.05 311.55 l 1
 606.4 301.9 l 1
 583.8 158.45 l 2
 575.8 105.45 609.45 106.45 638.45 106.45 c 2
 920.95 106.45 l 1
 905.35 12.7 l 1
 868.6 7.8 600.25 -4.3 600.25 -4.3 c 2
 532.5 -8.3 446.45 21.4 461.85 122.05 c 2
 474.7 207.95 l 1
 292.6 207.95 l 1
 155.95 0 l 1
 25.45 0 l 1
359.55 313.45 m 1
 492.25 313.45 l 1
 537.05 584.7 l 1
 359.55 313.45 l 1
EndSplineSet
EndChar

StartChar: Ccedilla
Encoding: 199 199 60
Width: 573
VWidth: 0
Flags: HW
LayerCount: 2
Fore
SplineSet
105.55 378.85 m 0
 143.5 612.5 211.4 740 410.4 740 c 0
 494.6 740 584.15 726.15 656.7 706.5 c 1
 642.45 615.3 l 1
 627.8 617.25 513.9 632.3 416.1 631 c 1
 350.95 630.35 265.25 635 222.85 366 c 0
 195.55 203.3 217 108.85 328.4 103 c 1
 393.75 101.05 472.3 104.85 564.6 111.35 c 1
 551 20.15 l 1
 472.65 -3.9 389.05 -7.05 295 -6 c 0
 107.75 -4.95 74.05 182.25 105.55 378.85 c 0
180.6 -176.15 m 9
 189.05 -124.45 l 25
 238.45 -109.45 l 17
 269.1 -100.05 275.3 -74.65 281.3 -36.65 c 1
 299.5 -37.3 365.8 -36.65 365.8 -36.65 c 17
 349.8 -138.65 319.3 -176.15 235.1 -176.15 c 2
 180.6 -176.15 l 9
EndSplineSet
Substitution2: "'c2sc' Capitals to Small Capitals in Latin lookup 17 subtable" ccedilla.smcp
EndChar

StartChar: Eth
Encoding: 208 208 61
Width: 658
VWidth: 0
Flags: HW
LayerCount: 2
Fore
SplineSet
56.4 342.5 m 1
 66.45 403.5 l 1
 131.45 403.5 l 1
 183.1 731.35 l 1
 183.1 732 434.6 732 473.6 732 c 1
 689.5 732 697.9 504.25 672.05 352.5 c 0
 633.65 124.45 545.9 0 364.6 0 c 2
 67.1 0 l 1
 121.4 342.5 l 1
 56.4 342.5 l 1
200 107.45 m 1
 367.5 107.45 l 2
 471.95 107.45 532.1 217.8 555.4 364 c 0
 586.35 558.65 548.05 626.5 449.7 626.5 c 2
 282.2 626.5 l 1
 247.45 403.5 l 1
 368.95 403.5 l 1
 358.9 342.5 l 1
 237.4 342.5 l 1
 200 107.45 l 1
EndSplineSet
Substitution2: "'c2sc' Capitals to Small Capitals in Latin lookup 17 subtable" eth.smcp
EndChar

StartChar: Oslash
Encoding: 216 216 76
Width: 666
VWidth: 0
Flags: HW
LayerCount: 2
Fore
SplineSet
52.2 0 m 1
 121.2 83.25 l 1
 92 136.6 83.05 233.7 105.35 371.5 c 0
 159.35 714.5 276.3 737 448.85 737 c 0
 521.8 737 584.8 729.7 628.5 696.45 c 1
 657.45 732 l 1
 727.2 732 l 1
 665.05 656.6 l 1
 698.35 601.6 708.35 500.45 685.35 350.5 c 0
 635.65 27.5 519.3 -4 343.85 -4 c 0
 268.05 -4 201 2.65 155.65 40.65 c 1
 121.95 0 l 1
 52.2 0 l 1
221.35 361 m 0
 208.9 283 207.5 231.1 216.55 196.15 c 1
 549.35 603.5 l 1
 524.3 625.95 485.05 628 437.75 628 c 0
 320.5 628 261.7 618 221.35 361 c 0
236.55 137 m 1
 259.6 111.7 298.25 105 354.95 105 c 0
 477.35 105 535.25 144.9 569.35 361 c 0
 583.5 452.8 584.6 511.2 574.2 549.6 c 1
 236.55 137 l 1
EndSplineSet
Substitution2: "'c2sc' Capitals to Small Capitals in Latin lookup 17 subtable" oslash.smcp
EndChar

StartChar: ae
Encoding: 230 230 88
Width: 868
VWidth: 0
Flags: HW
LayerCount: 2
Fore
SplineSet
53.45 290.05 m 0
 96.55 515.95 196.6 534.5 286.3 541 c 0
 343.75 546.2 439.3 533.4 494.35 504.45 c 1
 531 528.15 577.3 540.65 648.65 541 c 0
 767.3 541.35 866.2 507.85 855.4 388 c 0
 835.45 154.3 531.05 199.75 494.05 214.75 c 1
 477.95 118.05 497.3 90.9 568.3 90.25 c 0
 633.8 86.35 725.95 95.35 793.8 106 c 1
 779.55 22 l 1
 698 -1.7 617.4 -11.2 516.55 -7 c 0
 456.4 -5.25 416.1 18.1 394.35 62.65 c 1
 353.55 20.1 259 -7 197.4 -7 c 0
 89.05 -7 11.75 71.5 53.45 290.05 c 0
165.8 263.25 m 0
 148 149.05 155.55 96 229.6 95.35 c 0
 283.65 94.7 350.45 111.2 374.4 137 c 1
 370.45 179.3 374.75 231.2 386.05 292 c 0
 396.25 346 407.8 392.15 427.15 427.8 c 1
 383.95 440.3 321.7 449.4 289.4 442.8 c 0
 237.65 432.55 190.15 417.85 165.8 263.25 c 0
504.15 293.25 m 1
 504.15 293.25 718.5 263.65 737.65 375.75 c 0
 747.55 433.1 713.7 442.85 645.7 442.5 c 0
 527.65 441.8 518.95 368.15 504.15 293.25 c 1
EndSplineSet
Substitution2: "'smcp' Lowercase to Small Capitals lookup 16-1" ae.smcp
EndChar

StartChar: ccedilla
Encoding: 231 231 89
Width: 494
VWidth: 0
Flags: HW
LayerCount: 2
Fore
SplineSet
83.65 276.5 m 0
 123.8 513.75 204.5 537.3 301.3 537.3 c 3
 353.3 537.3 457 529.3 534.8 506.5 c 1
 523.3 431.5 l 1
 523.3 431.5 412.95 438.8 323.95 438.8 c 3
 261.8 438.8 229.4 434.3 198.65 262.7 c 0
 174.45 123.15 201.2 92.2 268.65 92.2 c 3
 360.65 92.2 478 102.15 478 102.15 c 1
 465.85 25.85 l 17
 381.55 -7.65 304.5 -5.95 221.5 -5.65 c 0
 120.55 -5 49.35 73.05 83.65 276.5 c 0
134.8 -176.85 m 9
 142.9 -125.15 l 25
 192.65 -110.15 l 17
 222.65 -98.15 229.15 -75.35 235.15 -37.35 c 1
 253.35 -38 319.65 -37.35 319.65 -37.35 c 17
 303.65 -139.35 273.5 -176.85 189.3 -176.85 c 2
 134.8 -176.85 l 9
EndSplineSet
Substitution2: "'smcp' Lowercase to Small Capitals lookup 16-1" ccedilla.smcp
EndChar

StartChar: eth
Encoding: 240 240 98
Width: 538
VWidth: 0
Flags: HW
LayerCount: 2
Fore
SplineSet
73.4 268.15 m 0
 103.65 449.85 162.7 531 297.7 531 c 1
 371.65 531 l 2
 377.65 531 429.05 531 443.5 519.5 c 1
 437.55 560.25 423.6 599.45 397.5 629.1 c 1
 263.8 573.9 l 1
 246 632.5 l 1
 337.15 669.5 l 1
 300.6 686.2 253.75 688.15 212.9 686.5 c 1
 228.15 783 l 1
 334.85 783 406.65 763.3 457.9 723.3 c 1
 566.1 767.85 l 1
 584.9 709.25 l 1
 503.3 676.4 l 1
 580.1 566.7 565.65 378.85 545.4 249.6 c 0
 516 66.2 448.9 0 322.4 0 c 1
 213.7 0 l 1
 76.7 0 48.65 119.05 73.4 268.15 c 0
189.4 260.1 m 0
 168 129.6 194.25 108.4 244.7 109.7 c 1
 324.35 109.7 l 1
 373.45 109.05 407.95 126.8 429.4 260.1 c 0
 449.9 388.4 440.8 422 372.2 422 c 2
 297.75 422 l 1
 242.95 422 211.8 395.3 189.4 260.1 c 0
EndSplineSet
Substitution2: "'smcp' Lowercase to Small Capitals lookup 16-1" eth.smcp
EndChar

StartChar: oslash
Encoding: 248 248 105
Width: 562
VWidth: 0
Flags: HW
LayerCount: 2
Fore
SplineSet
35.95 0 m 1
 98.85 67.45 l 1
 73.6 109.45 69.65 179.8 83.3 266.05 c 0
 117.3 483.05 187.1 536 364.6 536 c 0
 425.8 536 472.55 525.7 505.6 504.35 c 1
 530.3 531 l 1
 603.3 531 l 1
 542.7 466.5 l 1
 572.2 421.2 577.45 343.9 561.8 249.6 c 0
 529.5 52.6 467.65 -5 287.05 -5 c 0
 218.7 -5 168.35 6.3 134 30.25 c 1
 105.7 0 l 1
 35.95 0 l 1
198.3 170.75 m 1
 425.9 420.75 l 1
 410.2 433.5 385.15 437.5 350.7 437.5 c 0
 257.25 437.5 225.75 417.5 199.3 258 c 0
 192.8 217.65 192.45 189.65 198.3 170.75 c 1
214.05 113.85 m 1
 231.05 96.5 258.7 93.5 296.4 93.5 c 0
 383.9 93.5 419.65 105.4 445.8 258 c 0
 454.6 309.9 454.65 343.9 445.9 366.15 c 1
 214.05 113.85 l 1
EndSplineSet
Substitution2: "'smcp' Lowercase to Small Capitals lookup 16-1" oslash.smcp
EndChar

StartChar: thorn
Encoding: 254 254 106
Width: 553
VWidth: 0
Flags: HW
LayerCount: 2
Fore
SplineSet
16.5 -270 m 1
 183.5 782 l 1
 299.5 782 l 1
 249.85 472.4 l 17
 284.1 496.3 367.9 536.5 432.75 536.5 c 3
 551.1 536.5 585.9 401.3 563.7 256.15 c 0
 544.5 132.35 511.85 -11.75 345.75 -11.75 c 3
 300.75 -11.75 229 0.55 179.15 25.5 c 1
 132.5 -270 l 1
 16.5 -270 l 1
192.3 106.5 m 1
 245.8 87.7 291.05 86.95 334.25 85 c 1
 381.1 85 426.1 115.25 446.7 262.7 c 0
 463.05 382.1 440.95 437.35 391.8 434.1 c 1
 338.05 431.5 285.1 414.8 237.65 393.25 c 1
 192.3 106.5 l 1
EndSplineSet
Substitution2: "'smcp' Lowercase to Small Capitals lookup 16-1" thorn.smcp
EndChar

StartChar: Thorn
Encoding: 222 222 113
Width: 549
VWidth: 0
Flags: HW
LayerCount: 2
Fore
SplineSet
50.9 0 m 1
 88.9 243 127.9 486 165.9 729 c 1
 281.9 729 l 1
 259.9 588 l 1
 425.4 588 l 2
 492.7 588 591.5 550.1 567.4 370.45 c 0
 539.95 162.55 441.45 153.3 359 152.25 c 0
 316.9 151.55 248.85 150.9 194.55 171.9 c 1
 166.9 0 l 1
 50.9 0 l 1
207.8 257.75 m 2
 345.3 257.75 l 2
 402.5 257.75 432.95 269.55 449.75 375.25 c 1
 464.9 478.25 414 481.85 380.5 481.85 c 1
 243 481.85 l 1
 207.8 257.75 l 2
EndSplineSet
Substitution2: "'c2sc' Capitals to Small Capitals in Latin lookup 17 subtable" thorn.smcp
EndChar

StartChar: uni00B5
Encoding: 181 181 114
Width: 590
VWidth: 0
Flags: HW
LayerCount: 2
Fore
SplineSet
33.35 -270 m 1
 103.1 171.5 l 1
 160.35 531 l 1
 276.35 531 l 1
 218.75 170.1 l 2
 209.8 112.5 235.4 89.5 276.25 89.5 c 0
 341.2 89.5 377.6 106 437.15 139.5 c 1
 499.35 531 l 1
 615.35 531 l 1
 531.35 0 l 1
 440.85 0 l 1
 424.65 58.5 l 1
 370.95 29.8 324.6 0.45 262.5 -3.75 c 0
 235.25 -5.5 212.85 -1.05 193.3 8.3 c 1
 149.35 -270 l 1
 33.35 -270 l 1
EndSplineSet
EndChar

StartChar: germandbls
Encoding: 223 223 115
Width: 571
VWidth: 0
Flags: HW
LayerCount: 2
Fore
SplineSet
50.9 0 m 1
 140.9 566 l 2
 158.9 682 233.4 779.45 407.75 779.45 c 3
 697.85 779.45 645.75 532.45 531.95 442.15 c 0
 492.8 413.25 443.25 400.15 435 350.6 c 0
 421.5 271.2 602.8 306.3 581.25 170.3 c 2
 575.65 133.8 l 2
 557.9 17.45 463.1 -8 388.9 -8 c 3
 320.9 -8 269.9 4.55 234.65 11 c 9
 247.5 95.85 l 17
 284.35 94.45 334.2 90.5 383.6 90.5 c 3
 418.95 90.5 452.15 110.2 459.45 150.2 c 2
 464.35 176.35 l 1
 475.95 250.3 300.05 214.65 320.25 349.05 c 0
 330.9 420.85 351.85 444.6 442.55 498.1 c 0
 478.8 521.55 497.85 552.95 502.8 588.9 c 0
 512.45 660.5 468.4 671.5 400.5 671.5 c 3
 321.6 671.5 268.95 643.95 251.65 534.5 c 2
 166.9 0 l 1
 50.9 0 l 1
EndSplineSet
Substitution2: "'smcp' Lowercase to Small Capitals lookup 16-1" germandbls.smcp
EndChar

StartChar: asciitilde
Encoding: 126 126 116
Width: 425
VWidth: 0
Flags: HW
LayerCount: 2
Fore
SplineSet
133.7 581.1 m 17
 173.8 615.15 210.1 651.2 264.15 651.2 c 27
 308.15 651.2 324.15 616.2 364.15 616.2 c 1
 403.5 615.5 436.2 637.75 464.15 656.2 c 9
 478.8 603 l 17
 449.2 575.2 405.8 531 353.5 531 c 3
 309.2 531 286.4 566 247.4 566 c 3
 208.4 566 186 548.5 149.05 531 c 9
 133.7 581.1 l 17
EndSplineSet
EndChar

StartChar: asciicircum
Encoding: 94 94 117
Width: 387
VWidth: 0
Flags: HW
LayerCount: 2
Fore
SplineSet
126.3 531 m 1
 258.7 665.15 l 1
 350.7 665.15 l 1
 428.8 531 l 1
 345.1 531 l 1
 300.45 600.85 l 1
 227.1 531 l 1
 126.3 531 l 1
EndSplineSet
EndChar

StartChar: grave
Encoding: 96 96 118
Width: 250
VWidth: 0
Flags: HW
LayerCount: 2
Fore
SplineSet
122.2 667.5 m 25
 229.5 667.5 l 25
 317.3 531 l 25
 234.3 531 l 25
 122.2 667.5 l 25
EndSplineSet
Substitution2: "'smcp' Lowercase to Small Capitals lookup 16-1" grave.smcp
EndChar

StartChar: dieresis
Encoding: 168 168 119
Width: 450
VWidth: 0
Flags: HW
LayerCount: 2
Fore
SplineSet
134.3 582 m 0
 139 612.8 168.45 637.25 199.25 637.25 c 0
 230.05 637.25 250.5 612.8 245.8 582 c 0
 241.1 551.2 212.3 525.75 181.5 525.75 c 0
 150.7 525.75 129.6 551.2 134.3 582 c 0
389.3 582 m 0
 394 612.8 423.45 637.25 454.25 637.25 c 0
 485.05 637.25 505.5 612.8 500.8 582 c 0
 496.1 551.2 467.3 525.75 436.5 525.75 c 0
 405.7 525.75 384.6 551.2 389.3 582 c 0
EndSplineSet
Substitution2: "'smcp' Lowercase to Small Capitals lookup 16-1" dieresis.smcp
EndChar

StartChar: acute
Encoding: 180 180 120
Width: 242
VWidth: 0
Flags: HW
LayerCount: 2
Fore
SplineSet
100.85 531 m 25
 219.05 667.5 l 25
 331.55 667.5 l 25
 183.85 531 l 25
 100.85 531 l 25
EndSplineSet
Substitution2: "'smcp' Lowercase to Small Capitals lookup 16-1" acute.smcp
EndChar

StartChar: cedilla
Encoding: 184 184 121
Width: 246
VWidth: 0
Flags: HW
LayerCount: 2
Fore
SplineSet
14.3 -176.5 m 9
 22.75 -124.8 l 25
 72.15 -109.8 l 17
 102.15 -97.8 108.65 -75 114.65 -37 c 1
 199.15 -37 l 17
 183.15 -139 153 -176.5 68.8 -176.5 c 2
 14.3 -176.5 l 9
EndSplineSet
EndChar

StartChar: exclam
Encoding: 33 33 122
Width: 269
VWidth: 0
Flags: HW
LayerCount: 2
Fore
SplineSet
75.2 23 m 2
 87.7 101 l 2
 89.7 116 99.7 126 115.7 126 c 2
 191.7 126 l 2
 206.7 126 212.7 115 210.7 101 c 2
 198.2 23 l 2
 196.2 8 186.2 0 172.2 0 c 2
 96.2 0 l 2
 82.2 0 73.2 9 75.2 23 c 2
112.2 198.6 m 1
 185.7 731 l 1
 307.95 731 l 1
 212.05 198.6 l 1
 112.2 198.6 l 1
EndSplineSet
Substitution2: "'smcp' Lowercase to Small Capitals lookup 16-1" exclam.smcp
EndChar

StartChar: degree
Encoding: 176 176 123
Width: 284
VWidth: 0
Flags: HW
LayerCount: 2
Fore
SplineSet
140.3 632 m 0
 142.05 689 189.1 733.6 245.1 733.6 c 0
 301.1 733.6 345.05 689 343.3 632 c 0
 341.55 575 295.5 531.75 239.5 531.75 c 0
 183.5 531.75 138.55 575 140.3 632 c 0
193.95 632 m 25
 193.25 605.5 214.75 584.65 241.25 584.65 c 27
 267.75 584.65 288.95 605.5 289.65 632 c 25
 290.35 658.5 270.2 680.35 243.7 680.35 c 27
 217.2 680.35 194.65 658.5 193.95 632 c 25
EndSplineSet
Substitution2: "'smcp' Lowercase to Small Capitals lookup 16-1" degree.smcp
EndChar

StartChar: period
Encoding: 46 46 124
Width: 265
VWidth: 0
Flags: W
HStem: 0 126<88.1879 197.745>
VStem: 75.05 135.5
LayerCount: 2
Fore
SplineSet
75.05 23 m 2
 87.55 101 l 2
 89.55 116 99.55 126 115.55 126 c 2
 189.55 126 l 2
 207.55 126 213.55 117 210.55 101 c 2
 198.05 23 l 2
 195.05 5 184.05 0 170.05 0 c 2
 96.05 0 l 2
 82.05 0 73.05 9 75.05 23 c 2
EndSplineSet
EndChar

StartChar: periodcentered
Encoding: 183 183 125
Width: 265
VWidth: 0
Flags: HW
LayerCount: 2
Fore
SplineSet
125.65 344.9 m 2
 138.15 422.9 l 2
 140.15 437.9 150.15 447.9 166.15 447.9 c 2
 240.15 447.9 l 2
 258.15 447.9 264.15 438.9 261.15 422.9 c 2
 248.65 344.9 l 2
 245.65 326.9 234.65 321.9 220.65 321.9 c 2
 146.65 321.9 l 2
 132.65 321.9 123.65 330.9 125.65 344.9 c 2
EndSplineSet
Substitution2: "'smcp' Lowercase to Small Capitals lookup 16-1" periodcentered.smcp
EndChar

StartChar: comma
Encoding: 44 44 126
Width: 263
VWidth: 0
Flags: HW
LayerCount: 2
Fore
SplineSet
63.05 -88 m 1
 69.8 -45.5 l 0
 99.8 -46.5 103.1 -28.65 105.1 -18 c 2
 108.05 0 l 1
 97.05 0 l 2
 83.05 0 73.05 8 76.05 25 c 2
 87.55 100 l 2
 90.55 118 101.2 127 117.2 127 c 2
 189.2 127 l 2
 207.2 127 210.55 115 208.55 100 c 2
 191.05 -11 l 2
 174.3 -116.15 63.05 -88 63.05 -88 c 1
EndSplineSet
EndChar

StartChar: bullet
Encoding: 256 8226 127
Width: 308
VWidth: 0
Flags: HW
LayerCount: 2
Fore
SplineSet
123.95 328.75 m 2
 139.8 433.25 l 2
 142.8 454.25 156.8 468.25 178.8 468.25 c 2
 277.3 468.25 l 2
 302.3 468.25 309.3 455.25 306.3 433.25 c 2
 290.45 328.75 l 2
 286.45 304.75 269.45 296.75 249.45 296.75 c 2
 150.95 296.75 l 2
 130.95 296.75 120.95 308.75 123.95 328.75 c 2
EndSplineSet
Substitution2: "'smcp' Lowercase to Small Capitals lookup 16-1" bullet.smcp
EndChar

StartChar: quoteleft
Encoding: 257 8216 128
Width: 262
VWidth: 0
Flags: HW
LayerCount: 2
Fore
SplineSet
151.55 524.6 m 2
 170.05 644.95 l 2
 188.45 758.75 307.25 733.5 307.25 733.5 c 1
 299.15 685.55 l 0
 267.2 686.2 262.55 663.9 260.55 652.6 c 2
 257.25 629.15 l 1
 268.9 629.15 l 2
 283.55 629.15 294.2 621.15 291.2 602.85 c 2
 279.05 524.6 l 2
 276.05 505.3 264.4 495.65 247.1 495.65 c 2
 171.85 495.65 l 2
 152.55 495.65 148.9 508.95 151.55 524.6 c 2
EndSplineSet
Substitution2: "'smcp' Lowercase to Small Capitals lookup 16-1" quoteleft.smcp
EndChar

StartChar: quoteright
Encoding: 258 8217 129
Width: 262
VWidth: 0
Flags: HW
LayerCount: 2
Fore
SplineSet
152.55 497.7 m 1
 160.3 546.3 l 0
 192.25 545.65 196.25 567.95 198.25 579.25 c 2
 201.9 602.05 l 1
 190.25 602.05 l 2
 175.6 602.05 164.95 610.7 167.95 629 c 2
 180.75 707.25 l 2
 183.75 726.55 194.4 736.2 211.7 736.2 c 2
 286.95 736.2 l 2
 306.25 736.2 310.9 722.9 308.25 707.25 c 2
 288.75 586.9 l 2
 270.35 473.1 152.55 497.7 152.55 497.7 c 1
EndSplineSet
Substitution2: "'smcp' Lowercase to Small Capitals lookup 16-1" quoteright.smcp
EndChar

StartChar: quotesinglbase
Encoding: 259 8218 130
Width: 262
VWidth: 0
Flags: HW
LayerCount: 2
Fore
SplineSet
56.35 -105 m 1
 64.1 -57.05 l 0
 96.05 -57.7 100.05 -34.75 102.05 -23.45 c 2
 105.7 -0.65 l 1
 94.05 -0.65 l 2
 79.4 -0.65 68.75 8 71.75 26.3 c 2
 84.55 104.55 l 2
 87.55 123.85 98.2 133.5 115.5 133.5 c 2
 190.75 133.5 l 2
 210.05 133.5 214.7 120.2 212.05 104.55 c 2
 192.55 -15.8 l 2
 174.15 -129.6 56.35 -105 56.35 -105 c 1
EndSplineSet
Substitution2: "'smcp' Lowercase to Small Capitals lookup 16-1" quotesinglbase.smcp
EndChar

StartChar: quotedblleft
Encoding: 260 8220 131
Width: 420
VWidth: 0
Flags: HW
LayerCount: 2
Fore
SplineSet
145.6 523.9 m 2
 164.1 644.25 l 2
 182.5 758.05 300.3 732.8 300.3 732.8 c 1
 293.2 684.85 l 0
 261.25 685.5 256.6 663.2 254.6 651.9 c 2
 251.3 628.45 l 1
 262.95 628.45 l 2
 277.6 628.45 288.25 620.45 285.25 602.15 c 2
 273.1 523.9 l 2
 270.1 504.6 258.45 494.95 241.15 494.95 c 2
 165.9 494.95 l 2
 146.6 494.95 142.95 508.25 145.6 523.9 c 2
316.45 523.9 m 2
 334.95 644.25 l 2
 353.35 758.05 471.15 732.8 471.15 732.8 c 1
 464.05 684.85 l 0
 432.1 685.5 427.45 663.2 425.45 651.9 c 2
 422.15 628.45 l 1
 433.8 628.45 l 2
 448.45 628.45 459.1 620.45 456.1 602.15 c 2
 443.95 523.9 l 2
 440.95 504.6 429.3 494.95 412 494.95 c 2
 336.75 494.95 l 2
 317.45 494.95 313.8 508.25 316.45 523.9 c 2
EndSplineSet
Substitution2: "'smcp' Lowercase to Small Capitals lookup 16-1" quotedblleft.smcp
EndChar

StartChar: quotedblright
Encoding: 261 8221 132
Width: 420
VWidth: 0
Flags: HW
LayerCount: 2
Fore
SplineSet
145.95 497 m 1
 153.7 545.6 l 0
 185.65 544.95 189.65 567.25 191.65 578.55 c 2
 195.3 601.35 l 1
 183.65 601.35 l 2
 169 601.35 158.35 610 161.35 628.3 c 2
 174.15 706.55 l 2
 177.15 725.85 187.8 735.5 205.1 735.5 c 2
 280.35 735.5 l 2
 299.65 735.5 304.3 722.2 301.65 706.55 c 2
 282.15 586.2 l 2
 263.75 472.4 145.95 497 145.95 497 c 1
316.8 497 m 1
 324.55 545.6 l 0
 356.5 544.95 360.5 567.25 362.5 578.55 c 2
 366.15 601.35 l 1
 354.5 601.35 l 2
 339.85 601.35 329.2 610 332.2 628.3 c 2
 345 706.55 l 2
 348 725.85 358.65 735.5 375.95 735.5 c 2
 451.2 735.5 l 2
 470.5 735.5 475.15 722.2 472.5 706.55 c 2
 453 586.2 l 2
 434.6 472.4 316.8 497 316.8 497 c 1
EndSplineSet
Substitution2: "'smcp' Lowercase to Small Capitals lookup 16-1" quotedblright.smcp
EndChar

StartChar: quotedblbase
Encoding: 262 8222 133
Width: 419
VWidth: 0
Flags: HW
LayerCount: 2
Fore
SplineSet
49.75 -104.35 m 1
 57.5 -56.4 l 0
 89.45 -57.05 93.45 -34.1 95.45 -22.8 c 2
 99.1 0 l 1
 87.45 0 l 2
 72.8 0 62.15 8.65 65.15 26.95 c 2
 77.95 105.2 l 2
 80.95 124.5 91.6 134.15 108.9 134.15 c 2
 184.15 134.15 l 2
 203.45 134.15 208.1 120.85 205.45 105.2 c 2
 185.95 -15.15 l 2
 167.55 -128.95 49.75 -104.35 49.75 -104.35 c 1
220.6 -104.35 m 1
 228.35 -56.4 l 0
 260.3 -57.05 264.3 -34.1 266.3 -22.8 c 2
 269.95 0 l 1
 258.3 0 l 2
 243.65 0 233 8.65 236 26.95 c 2
 248.8 105.2 l 2
 251.8 124.5 262.45 134.15 279.75 134.15 c 2
 355 134.15 l 2
 374.3 134.15 378.95 120.85 376.3 105.2 c 2
 356.8 -15.15 l 2
 338.4 -128.95 220.6 -104.35 220.6 -104.35 c 1
EndSplineSet
Substitution2: "'smcp' Lowercase to Small Capitals lookup 16-1" quotedblbase.smcp
EndChar

StartChar: colon
Encoding: 58 58 134
Width: 266
VWidth: 0
Flags: HW
LayerCount: 2
Fore
SplineSet
75.05 23 m 2
 87.55 101 l 2
 89.55 116 99.55 126 115.55 126 c 2
 189.55 126 l 2
 207.55 126 213.55 117 210.55 101 c 2
 198.05 23 l 2
 195.05 5 184.05 0 170.05 0 c 2
 96.05 0 l 2
 82.05 0 73.05 9 75.05 23 c 2
139.55 428.65 m 2
 152.05 506.65 l 2
 154.05 521.65 164.05 531.65 180.05 531.65 c 2
 254.05 531.65 l 2
 272.05 531.65 277.7 522.65 274.7 506.65 c 2
 262.55 428.65 l 2
 259.55 410.65 247.9 405.65 233.9 405.65 c 2
 159.9 405.65 l 2
 145.9 405.65 137.55 414.65 139.55 428.65 c 2
EndSplineSet
EndChar

StartChar: semicolon
Encoding: 59 59 135
Width: 266
VWidth: 0
Flags: HW
LayerCount: 2
Fore
SplineSet
63.05 -88 m 1
 69.8 -45.5 l 0
 99.8 -46.5 103.1 -28.65 105.1 -18 c 2
 108.05 0 l 1
 97.05 0 l 2
 83.05 0 73.7 11.25 76.05 25 c 2
 87.55 100 l 2
 89.9 115.4 101.85 127 117.2 127 c 2
 189.2 127 l 2
 205.25 127 210.55 115 208.55 100 c 2
 191.05 -11 l 2
 174.3 -116.15 63.05 -88 63.05 -88 c 1
141.2 429.3 m 2
 153.35 507.3 l 2
 155.35 522.3 165.35 532.3 181.35 532.3 c 2
 255.35 532.3 l 2
 273.35 532.3 279.35 523.3 276.35 507.3 c 2
 264.2 429.3 l 2
 261.2 411.3 249.85 406.3 235.85 406.3 c 2
 161.85 406.3 l 2
 147.85 406.3 139.2 415.3 141.2 429.3 c 2
EndSplineSet
EndChar

StartChar: quotedbl
Encoding: 34 34 136
Width: 421
VWidth: 0
Flags: HW
LayerCount: 2
Fore
SplineSet
167.4 531 m 1
 177.05 665 l 1
 188.05 732 l 1
 301.2 732 l 1
 290.2 665 l 1
 259.2 531 l 1
 167.4 531 l 1
330.75 531 m 1
 341.1 665 l 1
 352.1 732 l 1
 465.25 732 l 1
 454.25 665 l 1
 423.25 531 l 1
 330.75 531 l 1
EndSplineSet
Substitution2: "'smcp' Lowercase to Small Capitals lookup 16-1" quotedbl.smcp
EndChar

StartChar: exclamdown
Encoding: 161 161 137
Width: 274
VWidth: 0
Flags: HW
LayerCount: 2
Fore
SplineSet
30.65 -269.35 m 1
 129.15 263.05 l 1
 229.35 263.05 l 1
 158.8 -269.35 l 1
 30.65 -269.35 l 1
134.05 363.3 m 2
 145.55 438.65 l 2
 147.55 452.65 159.55 460.65 173.55 461.65 c 1
 245.3 461.65 l 1
 257.3 460.65 267.3 449.65 265.3 435.65 c 2
 253.8 363.3 l 1
 251.15 350.95 244.15 340.2 229.1 337.6 c 1
 152.1 337.6 l 1
 139.1 338.25 132.35 347.55 134.05 363.3 c 2
EndSplineSet
Substitution2: "'case' Case-Sensitive Forms lookup 1-1" exclamdown.alt
Substitution2: "'smcp' Lowercase to Small Capitals lookup 16-1" exclamdown.smcp
EndChar

StartChar: zero
Encoding: 48 48 138
Width: 633
VWidth: 0
Flags: W
HStem: 0 109<211.367 461.862> 623 109<287.719 539.521>
DStem2: 85.55 172.5 204 186.85 0.157463 0.987525<-27.0003 459.81> 488.65 186.5 602.55 172.5 0.156945 0.987607<-62.3359 424.026>
LayerCount: 2
Fore
SplineSet
85.55 172.5 m 10
 146.7 556 l 2
 165.75 676.25 232.25 732 346.85 732 c 2
 510.85 732 l 2
 640.25 732 678.1 645.85 664.05 559.5 c 2
 602.55 172.5 l 18
 583.55 53.5 520.7 0 408.5 0 c 2
 244.5 0 l 2
 139.85 0 66.55 52.5 85.55 172.5 c 10
204 186.85 m 2
 191.75 108.1 236.15 109 275.05 109 c 10
 396.35 109 l 18
 449.5 109 479.65 132.5 488.65 186.5 c 2
 545.95 545.5 l 2
 554.25 598.65 538.5 623 480.95 623 c 2
 354.4 623 l 2
 284.85 623 266.2 579.95 260.95 545.5 c 2
 204 186.85 l 2
EndSplineSet
Substitution2: "'dnom' Denominators lookup 0 subtable" zero.denominator
Substitution2: "'sups' Superscript lookup 2 subtable" zerosuperior
Substitution2: "'onum' Oldstyle Figures in Latin lookup 5-1" zero.oldstyle
Substitution2: "'tnum' Tabular Numbers in Latin lookup 7-1" zero.tnum
Substitution2: "'numr' Numerators lookup 9 subtable" zero.numerator
Substitution2: "'zero' Slashed Zero lookup 20-1" uni0338
Substitution2: "'sinf' Scientific Inferiors lookup 3-1" zeroinferior
Substitution2: "'frac' Diagonal Fractions lookup 13-1" zero.numerator
Substitution2: "'smcp' Lowercase to Small Capitals lookup 16-1" zero.smcp
EndChar

StartChar: one
Encoding: 49 49 139
Width: 367
VWidth: 0
Flags: W
HStem: 0 21G<183.85 302.984> 0 21G<183.85 302.984> 570.9 77.5<135.7 211.994> 712 20G<292.15 414.55>
VStem: 123.85 290.7
DStem2: 183.85 0 299.85 0 0.154805 0.987945<17.9574 613.524>
LayerCount: 2
Fore
SplineSet
123.85 570.9 m 1xb8
 135.7 648.4 l 1
 200.7 648.4 283.75 712.75 300.55 732 c 1
 414.55 732 l 1
 299.85 0 l 1
 183.85 0 l 1
 280.6 605.85 l 1
 251.9 585.3 186.25 570.9 123.85 570.9 c 1xb8
EndSplineSet
Substitution2: "'dnom' Denominators lookup 0 subtable" one.denominator
Substitution2: "'sups' Superscript lookup 2 subtable" onesuperior
Substitution2: "'onum' Oldstyle Figures in Latin lookup 5-1" one.oldstyle
Substitution2: "'tnum' Tabular Numbers in Latin lookup 7-1" one.tnum
Substitution2: "'numr' Numerators lookup 9 subtable" one.numerator
Substitution2: "'sinf' Scientific Inferiors lookup 3-1" oneinferior
Substitution2: "'frac' Diagonal Fractions lookup 13-1" one.numerator
Substitution2: "'smcp' Lowercase to Small Capitals lookup 16-1" one.smcp
EndChar

StartChar: two
Encoding: 50 50 140
Width: 589
VWidth: 0
Flags: W
HStem: 0 109<269.65 546.55> 632 110<179.263 490.199> 632 86.5<147.7 366.906>
LayerCount: 2
Fore
SplineSet
41.05 0 m 25xc0
 57.65 103 l 17
 179.15 177.15 494.95 387.6 516.05 521.75 c 1
 527.35 595.1 497.6 632 408.8 632 c 2xc0
 133.8 632 l 2
 147.7 718.5 l 1xa0
 245.05 733.25 330 742 452.55 742 c 3
 594.9 742 645.9 631.35 631.7 513.45 c 0
 612.95 343.6 351.7 165.65 269.65 109 c 9
 564.15 109 l 25
 546.55 0 l 25
 41.05 0 l 25xc0
EndSplineSet
Substitution2: "'dnom' Denominators lookup 0 subtable" two.denominator
Substitution2: "'sups' Superscript lookup 2 subtable" twosuperior
Substitution2: "'onum' Oldstyle Figures in Latin lookup 5-1" two.oldstyle
Substitution2: "'tnum' Tabular Numbers in Latin lookup 7-1" two.tnum
Substitution2: "'numr' Numerators lookup 9 subtable" two.numerator
Substitution2: "'sinf' Scientific Inferiors lookup 3-1" twoinferior
Substitution2: "'frac' Diagonal Fractions lookup 13-1" two.numerator
Substitution2: "'smcp' Lowercase to Small Capitals lookup 16-1" two.smcp
EndChar

StartChar: three
Encoding: 51 51 141
Width: 587
VWidth: 0
Flags: W
HStem: -7 110<62.5401 402.241> 21 82<48.05 132.591> 308.85 110<211.67 433.477> 316.55 93<158.25 320.83> 625 109<191.089 481.445>
DStem2: 435.1 180.25 550.3 161 0.157648 0.987495<-55.5839 107.74 260.741 426.44>
LayerCount: 2
Fore
SplineSet
34.45 21 m 1x48
 48.05 103 l 1x48
 318.05 103 l 2
 376.55 103 425.5 120.25 435.1 180.25 c 2
 441.95 222.1 l 2
 454.8 303.2 413.8 306.15 356.65 308.85 c 2xa8
 142.65 316.55 l 2
 158.25 409.55 l 1x18
 374.25 418.85 l 2
 443.25 421.85 479 444.6 487.95 500.35 c 2
 495.45 548 l 2
 506.4 615.25 458.85 625 406.85 625 c 2
 123.85 625 l 1
 136.45 706 l 1
 229.45 737 345.95 736 462.95 734 c 0
 563.85 732 629.6 658.4 613.2 555 c 2
 603.6 496.5 l 2
 590.95 418.3 555.95 374.3 508.95 364 c 1
 555.4 344.4 570.55 285.5 558.55 209.5 c 2
 550.3 161 l 2
 532.6 47.8 460.95 -7 338.95 -7 c 0xa8
 224.95 -7 117.45 -10 34.45 21 c 1x48
EndSplineSet
Substitution2: "'dnom' Denominators lookup 0 subtable" three.denominator
Substitution2: "'sups' Superscript lookup 2 subtable" threesuperior
Substitution2: "'onum' Oldstyle Figures in Latin lookup 5-1" three.oldstyle
Substitution2: "'tnum' Tabular Numbers in Latin lookup 7-1" three.tnum
Substitution2: "'numr' Numerators lookup 9 subtable" three.numerator
Substitution2: "'sinf' Scientific Inferiors lookup 3-1" threeinferior
Substitution2: "'frac' Diagonal Fractions lookup 13-1" three.numerator
Substitution2: "'smcp' Lowercase to Small Capitals lookup 16-1" three.smcp
EndChar

StartChar: four
Encoding: 52 52 142
Width: 614
VWidth: 0
Flags: W
HStem: 169.5 113<230.35 426.1> 712 20G<400.078 547.6>
DStem2: 51.85 224 230.35 282.5 0.580859 0.814004<151.303 624.076> 399.9 2 517.85 2 0.155967 0.987762<18.3963 169.537 302.295 467.675>
LayerCount: 2
Fore
SplineSet
51.85 224 m 1
 414.35 732 l 1
 547.6 732 l 1
 230.35 282.5 l 1
 443.7 282.5 l 1
 472.85 463.95 l 1
 520.3 540 l 1
 602.8 540 l 1
 561.65 282.5 l 1
 641.15 282.5 l 1
 627.25 192 l 1
 544.05 169.5 l 1
 517.85 2 l 1
 399.9 2 l 1
 426.1 169.5 l 1
 77.05 169.5 l 1
 51.85 224 l 1
EndSplineSet
Substitution2: "'dnom' Denominators lookup 0 subtable" four.denominator
Substitution2: "'sups' Superscript lookup 2 subtable" foursuperior
Substitution2: "'onum' Oldstyle Figures in Latin lookup 5-1" four.oldstyle
Substitution2: "'tnum' Tabular Numbers in Latin lookup 7-1" four.tnum
Substitution2: "'numr' Numerators lookup 9 subtable" four.numerator
Substitution2: "'sinf' Scientific Inferiors lookup 3-1" fourinferior
Substitution2: "'frac' Diagonal Fractions lookup 13-1" four.numerator
Substitution2: "'smcp' Lowercase to Small Capitals lookup 16-1" four.smcp
EndChar

StartChar: five
Encoding: 53 53 143
Width: 599
VWidth: 0
Flags: W
HStem: -4.65 114<90.9052 431.317> 19.35 90<82.05 237.46> 351 106.15<265.571 465.128> 623 109<298.15 622.85>
DStem2: 110.7 286.5 258 430 0.203671 0.979039<170.493 367.625> 462.45 188.35 576 161.85 0.144778 0.989464<-62.7346 144.186>
LayerCount: 2
Fore
SplineSet
67.45 19.35 m 1x70
 82.05 109.35 l 1x70
 372.05 109.35 l 2
 438.6 109.35 457.5 156.65 462.45 188.35 c 2
 475.25 268.1 l 2
 480.25 298.5 483 351 413.8 351 c 1
 300.25 351 l 2
 263.7 351 228.25 332.45 220.65 286.5 c 1
 110.7 286.5 l 1
 203.45 732 l 17
 640.45 732 l 1
 622.85 623 l 1
 298.15 623 l 25
 258 430 l 1
 279.85 447.95 311.4 454.85 340 457.15 c 0
 382.9 461.1 432.55 456.85 455.95 456.5 c 0
 555.35 453 606.95 375.35 592.3 273.25 c 2
 576 161.85 l 2
 554 24.85 465.05 -4 370.95 -4.65 c 1xb0
 245.65 -5.3 197.45 -3.65 67.45 19.35 c 1x70
EndSplineSet
Substitution2: "'dnom' Denominators lookup 0 subtable" five.denominator
Substitution2: "'sups' Superscript lookup 2 subtable" fivesuperior
Substitution2: "'onum' Oldstyle Figures in Latin lookup 5-1" five.oldstyle
Substitution2: "'tnum' Tabular Numbers in Latin lookup 7-1" five.tnum
Substitution2: "'numr' Numerators lookup 9 subtable" five.numerator
Substitution2: "'sinf' Scientific Inferiors lookup 3-1" fiveinferior
Substitution2: "'frac' Diagonal Fractions lookup 13-1" five.numerator
Substitution2: "'smcp' Lowercase to Small Capitals lookup 16-1" five.smcp
EndChar

StartChar: six
Encoding: 54 54 144
Width: 613
VWidth: 0
Flags: W
HStem: -0.35 107.05<238.906 454.3> 333 105.5<240.314 489.105> 629 87.55<402.111 638.5>
DStem2: 477.65 176.75 588.15 148 0.149745 0.988725<-57.9024 146.181>
LayerCount: 2
Fore
SplineSet
114.9 391 m 0
 156.9 656 257.45 731.35 343.25 736.25 c 0
 444.95 741.85 565.65 732 652.4 716.55 c 1
 638.5 629 l 1
 374 629 l 2
 286.25 629 250.95 497.65 237 417.5 c 1
 307.55 430.65 387 437.85 464.5 438.5 c 1
 603.35 439.8 618.2 343.05 606.4 268.5 c 2
 588.15 148 l 2
 569.1 29.7 493.3 -0.35 391.6 -0.35 c 2
 247.75 -0.35 l 2
 143.3 -0.35 64.9 76 114.9 391 c 0
223.1 333 m 1
 205.45 221.8 200.9 106.7 288.65 106.7 c 2
 393.2 106.7 l 2
 426.2 106.7 468.4 117.65 477.65 176.75 c 2
 491.4 265 l 2
 500.35 319.7 485.4 333 431.5 333 c 2
 223.1 333 l 1
EndSplineSet
Substitution2: "'dnom' Denominators lookup 0 subtable" six.denominator
Substitution2: "'sups' Superscript lookup 2 subtable" sixsuperior
Substitution2: "'onum' Oldstyle Figures in Latin lookup 5-1" six.oldstyle
Substitution2: "'tnum' Tabular Numbers in Latin lookup 7-1" six.tnum
Substitution2: "'numr' Numerators lookup 9 subtable" six.numerator
Substitution2: "'sinf' Scientific Inferiors lookup 3-1" sixinferior
Substitution2: "'frac' Diagonal Fractions lookup 13-1" six.numerator
Substitution2: "'smcp' Lowercase to Small Capitals lookup 16-1" six.smcp
EndChar

StartChar: seven
Encoding: 55 55 145
Width: 551
VWidth: 0
Flags: W
HStem: 0 21G<144.45 284.4> 0 21G<144.45 284.4> 623 109<141.45 479.85>
DStem2: 144.45 0 273.75 0 0.470027 0.882652<60.7745 707.539>
LayerCount: 2
Fore
SplineSet
123.85 623 m 1xa0
 141.45 732 l 1
 608.15 732 l 1
 632.4 673.5 l 1
 273.75 0 l 1
 144.45 0 l 1
 479.85 623 l 1
 123.85 623 l 1xa0
EndSplineSet
Substitution2: "'dnom' Denominators lookup 0 subtable" seven.denominator
Substitution2: "'sups' Superscript lookup 2 subtable" sevensuperior
Substitution2: "'onum' Oldstyle Figures in Latin lookup 5-1" seven.oldstyle
Substitution2: "'tnum' Tabular Numbers in Latin lookup 7-1" seven.tnum
Substitution2: "'numr' Numerators lookup 9 subtable" seven.numerator
Substitution2: "'sinf' Scientific Inferiors lookup 3-1" seveninferior
Substitution2: "'frac' Diagonal Fractions lookup 13-1" seven.numerator
Substitution2: "'smcp' Lowercase to Small Capitals lookup 16-1" seven.smcp
EndChar

StartChar: percent
Encoding: 37 37 146
Width: 963
VWidth: 0
Flags: HW
LayerCount: 2
Fore
SplineSet
109.75 482.75 m 2
 129.7 608.75 l 2
 142.7 692.45 175.05 732 282.55 732 c 2
 383.55 732 l 2
 473.75 732 507.35 688.2 493.7 599.3 c 2
 473.75 473.3 l 18
 459.45 383.1 424.5 349 321.55 349 c 2
 220.55 349 l 2
 137.5 349 96.75 398.4 109.75 482.75 c 2
197.5 488 m 2
 191.25 448.45 200.35 435 242.45 435 c 2
 325.95 435 l 2
 373.6 435 383.25 449.1 389.5 488 c 10
 405.95 593 l 2
 412.9 636.4 406.45 646 361.3 646 c 2
 277.8 646 l 2
 232.4 646 220.25 634.15 213.95 593 c 2
 197.5 488 l 2
213.1 0 m 1
 772.7 732 l 1
 862.25 732 l 1
 305.1 0 l 1
 213.1 0 l 1
585.45 133.05 m 2
 605.05 259.05 l 2
 618.05 342.75 650.05 384.05 757.55 384.05 c 2
 858.9 384.05 l 2
 949.1 384.05 982.35 339.2 969.05 250.3 c 2
 949.8 124.3 l 18
 935.5 34.1 899.2 1.05 796.25 1.05 c 2
 694.9 1.05 l 2
 611.85 1.05 572.45 48.7 585.45 133.05 c 2
672.85 140.05 m 2
 666.6 100.5 675.4 87.05 717.5 87.05 c 2
 800.65 87.05 l 2
 848.3 87.05 858.6 101.15 864.85 140.05 c 10
 881.3 245.05 l 2
 888.25 288.45 881.15 298.05 836 298.05 c 2
 752.85 298.05 l 2
 707.45 298.05 695.6 286.2 689.3 245.05 c 2
 672.85 140.05 l 2
EndSplineSet
Substitution2: "'smcp' Lowercase to Small Capitals lookup 16-1" percent.smcp
EndChar

StartChar: nine
Encoding: 57 57 147
Width: 612
VWidth: 0
Flags: W
HStem: 19.35 87.55<91.15 328.692> 297.4 105.5<240.553 489.686> 629.2 107.05<274.697 490.448>
DStem2: 123.95 470.9 238.6 470.9 0.15281 0.988256<-36.4126 165.666>
LayerCount: 2
Fore
SplineSet
77.25 19.35 m 1
 91.15 106.9 l 1
 355.65 106.9 l 2
 443.4 106.9 479.05 238.25 493 318.4 c 1
 422.45 305.25 342.65 298.05 265.15 297.4 c 1
 126.3 296.1 112.15 396.35 123.95 470.9 c 2
 141.5 584.4 l 2
 160.2 702.7 235.65 736.25 337.35 736.25 c 2
 481.2 736.25 l 2
 587.75 736.25 664.4 652.9 614.4 337.9 c 0
 572.4 72.9 472.55 4.55 386.75 -0.35 c 0
 285.05 -5.95 173.75 0 77.25 19.35 c 1
238.6 470.9 m 2
 229.65 416.2 244.25 402.9 298.15 402.9 c 2
 506.55 402.9 l 1
 524.2 514.1 528.4 629.2 440.65 629.2 c 2
 336.45 629.2 l 2
 303.45 629.2 261.25 618.25 252 559.15 c 2
 238.6 470.9 l 2
EndSplineSet
Substitution2: "'dnom' Denominators lookup 0 subtable" nine.denominator
Substitution2: "'sups' Superscript lookup 2 subtable" ninesuperior
Substitution2: "'onum' Oldstyle Figures in Latin lookup 5-1" nine.oldstyle
Substitution2: "'tnum' Tabular Numbers in Latin lookup 7-1" nine.tnum
Substitution2: "'numr' Numerators lookup 9 subtable" nine.numerator
Substitution2: "'sinf' Scientific Inferiors lookup 3-1" nineinferior
Substitution2: "'frac' Diagonal Fractions lookup 13-1" nine.numerator
Substitution2: "'smcp' Lowercase to Small Capitals lookup 16-1" nine.smcp
EndChar

StartChar: eight
Encoding: 56 56 148
Width: 626
VWidth: 0
Flags: W
HStem: 0 105.5<214.656 452.894> 323 101<265.93 479.817> 631.5 105.5<290.813 531.154>
DStem2: 88.85 169.75 205.95 171.65 0.15655 0.98767<-29.8831 159.435 296.501 474.35> 475.45 171.65 590.7 157.85 0.156643 0.987655<-52.0762 133.546 273.734 449.375>
LayerCount: 2
Fore
SplineSet
88.85 169.75 m 2
 101.4 252 l 2
 112 317.6 155.6 352.35 206.75 358.75 c 1
 140.05 386 133.1 453.45 141.8 506 c 2
 152.45 571 l 2
 173.8 707.75 252.95 737 362.45 737 c 2
 511.95 737 l 2
 617.6 737 672 672.95 653.95 556.65 c 2
 644.35 499 l 2
 641.65 475.25 618.95 401.6 547.75 388.7 c 1
 606.3 372.45 612.3 291.15 604.65 248.15 c 2
 590.7 157.85 l 2
 566.65 8.5 477.95 0 393.95 0 c 2
 245.45 0 l 2
 69.75 0 81.45 123.3 88.85 169.75 c 2
205.95 171.65 m 2
 198 121.7 218.4 105.5 278.1 105.5 c 2
 390.55 105.5 l 2
 431.3 105.5 468.2 122.85 475.45 171.65 c 2
 488.6 253.9 l 2
 495.85 300.05 470.45 323 428.2 323 c 2
 305.95 323 l 2
 261.35 323 227 303.65 219.1 253.9 c 2
 205.95 171.65 l 2
256.8 494 m 2
 247.55 436.8 287.5 424 321.5 424 c 2
 443.05 424 l 2
 505.9 424 520.65 460.1 526.3 494 c 2
 534.85 548.7 l 2
 546.1 617.5 524.4 631.5 474.4 631.5 c 2
 361.3 631.5 l 2
 296.85 631.5 274.95 610.3 265.35 548.7 c 2
 256.8 494 l 2
EndSplineSet
Substitution2: "'dnom' Denominators lookup 0 subtable" eight.denominator
Substitution2: "'sups' Superscript lookup 2 subtable" eightsuperior
Substitution2: "'onum' Oldstyle Figures in Latin lookup 5-1" eight.oldstyle
Substitution2: "'tnum' Tabular Numbers in Latin lookup 7-1" eight.tnum
Substitution2: "'numr' Numerators lookup 9 subtable" eight.numerator
Substitution2: "'sinf' Scientific Inferiors lookup 3-1" eightinferior
Substitution2: "'frac' Diagonal Fractions lookup 13-1" eight.numerator
Substitution2: "'smcp' Lowercase to Small Capitals lookup 16-1" eight.smcp
EndChar

StartChar: quotesingle
Encoding: 39 39 149
Width: 210
VWidth: 0
Flags: HW
LayerCount: 2
Fore
SplineSet
141.6 531 m 1
 151.6 665 l 1
 162.6 732 l 1
 279.6 732 l 1
 268.6 665 l 1
 237.6 531 l 1
 141.6 531 l 1
EndSplineSet
Substitution2: "'smcp' Lowercase to Small Capitals lookup 16-1" quotesingle.smcp
EndChar

StartChar: onesuperior
Encoding: 185 185 150
Width: 278
VWidth: 259
Flags: HW
LayerCount: 2
Fore
SplineSet
111.5 711.7 m 1
 121.3 774 l 1
 173.3 774 239 823.85 250.2 836.8 c 1
 339.6 836.8 l 1
 263.25 355.65 l 1
 171.85 355.65 l 1
 233.7 738.35 l 1
 212.85 722.2 161.55 711.7 111.5 711.7 c 1
EndSplineSet
EndChar

StartChar: twosuperior
Encoding: 178 178 151
Width: 393
VWidth: 259
Flags: HW
LayerCount: 2
Fore
SplineSet
70.1 355.65 m 25
 82.95 437.45 l 17
 153 483.75 345.5 602.8 359.65 691.65 c 1
 366.95 738.7 350.45 755.7 293.85 755.7 c 2
 130.25 755.7 l 2
 128.95 755.7 140.45 825.05 141.1 824.4 c 1
 205.3 834.15 252.35 841.85 334.15 841.85 c 3
 431.45 841.85 464.45 753.1 454.35 694.65 c 1
 435.15 566.35 284.55 473.9 247.5 441.8 c 9
 413.25 441.8 l 25
 399.4 355.65 l 25
 70.1 355.65 l 25
EndSplineSet
EndChar

StartChar: threesuperior
Encoding: 179 179 152
Width: 406
VWidth: 258
Flags: HW
LayerCount: 2
Fore
SplineSet
71.45 370.35 m 1
 82.95 436.8 l 1
 103.75 436.8 249.1 437.45 249.1 437.45 c 2
 292 437.45 320.3 448.85 325.9 485.5 c 2
 328.85 502.2 l 2
 335.1 543.05 309.3 554.45 271.5 555.8 c 2
 142.05 560.45 l 2
 153.55 633.3 l 1
 285.35 638.6 l 2
 330.7 640.6 354.85 654.55 359.8 688.25 c 2
 361.75 703.95 l 2
 368.05 739.65 349.8 751.35 303.1 751.35 c 2
 127.95 751.35 l 1
 138.45 817.45 l 1
 200.2 838.5 269.95 838.2 348.05 836.85 c 0
 425.05 835.85 464.6 779.85 454.2 713.2 c 2
 448.9 681.35 l 2
 440.9 633.65 416.55 599.45 382.6 590.85 c 1
 415 575.6 425.9 534.95 419.2 493.05 c 2
 415.2 467.85 l 2
 403.5 393.35 361.75 350.65 266.35 351.3 c 0
 190.25 351.3 126.5 349.3 71.45 370.35 c 1
EndSplineSet
EndChar

StartChar: ordmasculine
Encoding: 186 186 153
Width: 386
VWidth: 0
Flags: HW
LayerCount: 2
Fore
SplineSet
79.15 266.45 m 1
 89.2 331.45 l 1
 406 331.45 l 1
 395.95 266.45 l 1
 79.15 266.45 l 1
114.25 555.25 m 0
 136.6 694.7 180.65 735.6 306.8 736.25 c 1
 421.05 736.9 471.45 687.25 448.8 543.35 c 0
 428.45 415.6 387.85 372.35 254.35 372.35 c 1
 137.8 372.35 94.25 429.25 114.25 555.25 c 0
201.8 549.65 m 0
 186.6 453.9 213.3 451.1 265.5 450.45 c 1
 315.6 449.8 345.4 450.9 361.25 549.65 c 0
 377.1 652.35 360.4 657.5 298.25 658.15 c 1
 238.65 658.8 217.65 651.7 201.8 549.65 c 0
EndSplineSet
Ligature2: "'ordn' Ordinals lookup 21-1" o
Substitution2: "'smcp' Lowercase to Small Capitals lookup 16-1" ordmasculine.smcp
EndChar

StartChar: ordfeminine
Encoding: 170 170 154
Width: 366
VWidth: 0
Flags: HW
LayerCount: 2
Fore
SplineSet
66.75 264.5 m 1
 76.8 329.5 l 1
 391.65 329.5 l 1
 381.6 264.5 l 1
 66.75 264.5 l 1
102.9 568.05 m 0
 128.4 713.8 211.1 728.8 266.8 732.7 c 0
 313.35 735.95 408.05 721.45 441.4 689.1 c 9
 395.7 377.15 l 17
 337.9 377.15 l 1
 324.4 428.25 l 17
 303.85 399.4 249.9 372.8 205.15 372.8 c 3
 145.05 372.8 77.4 424.6 102.9 568.05 c 0
186.35 553.35 m 0
 174.8 479.45 196 454.35 230.4 454.35 c 3
 270.1 454.35 301.25 472.5 331.2 499 c 1
 352.45 649.55 l 1
 324.3 658.15 282.4 662.7 260.95 657.1 c 0
 232.85 649.85 198.9 637.25 186.35 553.35 c 0
EndSplineSet
Ligature2: "'ordn' Ordinals lookup 21-1" a
Substitution2: "'smcp' Lowercase to Small Capitals lookup 16-1" ordfeminine.smcp
EndChar

StartChar: slash
Encoding: 47 47 155
Width: 436
VWidth: 0
Flags: HW
LayerCount: 2
Fore
SplineSet
5.2 -72 m 1
 419.2 770 l 1
 540.2 770 l 1
 126.2 -72 l 1
 5.2 -72 l 1
EndSplineSet
Substitution2: "'numr' Numerators lookup 9 subtable" fraction
Substitution2: "'frac' Diagonal Fractions lookup 12-1" fraction
EndChar

StartChar: backslash
Encoding: 92 92 156
Width: 428
VWidth: 0
Flags: HW
LayerCount: 2
Fore
SplineSet
137.85 770 m 1
 252.6 770 l 1
 400.6 -72 l 1
 285.85 -72 l 1
 137.85 770 l 1
EndSplineSet
EndChar

StartChar: bar
Encoding: 124 124 157
Width: 246
VWidth: 0
Flags: HW
LayerCount: 2
Fore
SplineSet
60.7 -72 m 1
 193.7 770 l 1
 295.7 770 l 1
 162.7 -72 l 1
 60.7 -72 l 1
EndSplineSet
EndChar

StartChar: underscore
Encoding: 95 95 158
Width: 673
VWidth: 0
Flags: HW
LayerCount: 2
Fore
SplineSet
22.5 -1 m 1
 38.7 101 l 1
 672.7 101 l 1
 656.5 -1 l 1
 22.5 -1 l 1
EndSplineSet
EndChar

StartChar: hyphen
Encoding: 45 45 159
Width: 354
VWidth: 0
Flags: HW
LayerCount: 2
Fore
SplineSet
60.35 239 m 1
 76.55 341 l 1
 390.55 341 l 1
 374.35 239 l 1
 60.35 239 l 1
EndSplineSet
Substitution2: "'case' Case-Sensitive Forms lookup 1-1" hyphen.alt
Substitution2: "'c2sc' Capitals to Small Capitals in Latin lookup 17 subtable" hyphen.smcp
Substitution2: "'smcp' Lowercase to Small Capitals lookup 16-1" hyphen.smcp
EndChar

StartChar: numbersign
Encoding: 35 35 160
Width: 708
VWidth: 0
Flags: HW
LayerCount: 2
Fore
SplineSet
50.75 218 m 1
 75.5 298 l 1
 230.3 298 l 1
 274.25 435 l 1
 118.75 435 l 1
 145.15 515 l 1
 301.75 515 l 1
 373 732 l 1
 453 732 l 1
 381.75 515 l 1
 520.45 515 l 1
 590.7 732 l 1
 670.7 732 l 1
 600.45 515 l 1
 773.95 515 l 1
 748.25 435 l 1
 574.4 435 l 1
 530.45 297 l 1
 704.3 297 l 1
 680.25 217 l 1
 502.2 217 l 1
 430.65 0 l 1
 350.65 0 l 1
 422.2 217 l 1
 283.15 218 l 1
 211.6 0 l 1
 131.6 0 l 1
 203.15 218 l 1
 50.75 218 l 1
310.3 298 m 1
 450.45 297 l 1
 494.4 435 l 1
 354.25 435 l 1
 310.3 298 l 1
EndSplineSet
Substitution2: "'smcp' Lowercase to Small Capitals lookup 16-1" numbersign.smcp
EndChar

StartChar: dollar
Encoding: 36 36 161
Width: 571
VWidth: 0
Flags: HW
LayerCount: 2
Fore
SplineSet
72.3 20.15 m 1
 87.2 107.45 l 1
 126.85 106.05 228.35 99.7 321.35 99.7 c 0
 363.05 99.7 427.2 113.3 436.75 173.85 c 2
 444.6 223.65 l 2
 452.2 270.85 455.6 302.75 384.3 302.75 c 2
 278.8 302.75 l 2
 122.25 302.75 113.35 430.05 124.25 497.85 c 2
 133.55 562.1 l 1
 156.5 704.15 247.1 735.3 356.5 738 c 1
 370.15 824 l 1
 445.65 824 l 1
 432 736.05 l 1
 497.85 731.75 567.75 720.1 610.6 710.85 c 1
 596.35 620.3 l 1
 541.8 622.75 391.6 629.65 368.5 629.65 c 1
 304.1 631.6 260.05 616.6 248.5 546 c 2
 241.3 499.25 l 1
 233.05 444.85 244.85 418.75 317.05 418.75 c 2
 423.95 418.75 l 2
 566.85 418.75 575 305.3 562 224 c 2
 553.1 168.25 l 2
 528.65 15.2 416.85 -11.2 314 -8 c 1
 301 -90 l 1
 225.5 -90 l 1
 239.15 -4.75 l 1
 168.05 0.15 114.45 9.1 72.3 20.15 c 1
EndSplineSet
Substitution2: "'smcp' Lowercase to Small Capitals lookup 16-1" dollar.smcp
EndChar

StartChar: zerosuperior
Encoding: 263 8304 162
Width: 442
VWidth: 259
Flags: HW
LayerCount: 2
Fore
SplineSet
75.7 471.3 m 2
 113.95 715.8 l 2
 127.3 800.5 178.1 834.2 253.5 834.2 c 2
 371.2 834.2 l 2
 456.7 834.2 488.75 784.9 477.75 717.9 c 2
 439.15 471.3 l 2
 424.85 381.25 380.95 355 305 355 c 2
 187.3 355 l 2
 129.05 355 61.4 381.55 75.7 471.3 c 2
169.5 487.2 m 2
 163.2 447.05 176.1 441.15 213.2 441.15 c 10
 293.85 441.15 l 18
 331.45 441.15 344.85 452.9 350.5 486.85 c 2
 386.35 702.35 l 2
 392 734.55 387.1 748.05 346.35 748.05 c 2
 262.2 748.05 l 2
 220.8 748.05 210 729.85 205.35 702.35 c 2
 169.5 487.2 l 2
EndSplineSet
EndChar

StartChar: foursuperior
Encoding: 264 8308 163
Width: 469
VWidth: 259
Flags: HW
LayerCount: 2
Fore
SplineSet
106.95 500 m 1
 344.85 834.2 l 1
 445.85 834.2 l 1
 248.1 550.8 l 1
 376.85 550.8 l 1
 394.1 659.9 l 1
 427.65 708.95 l 1
 491.4 708.95 l 1
 466.15 550.8 l 1
 517.85 550.8 l 1
 506.35 477.8 l 1
 451.25 462 l 1
 435.4 356.35 l 1
 345.45 356.35 l 1
 363 461.65 l 1
 126.7 461.65 l 1
 106.95 500 l 1
EndSplineSet
EndChar

StartChar: fivesuperior
Encoding: 265 8309 164
Width: 412
VWidth: 259
Flags: HW
LayerCount: 2
Fore
SplineSet
76.55 366.75 m 1
 88.05 438.55 l 1
 286.8 438.55 l 2
 322.5 438.55 336.95 454.9 340.9 484.4 c 2
 347.1 526.05 l 2
 349.75 546.3 354.2 575.8 310.65 575.8 c 1
 228.35 575.8 l 2
 204.75 575.8 188.3 564.25 183.35 535.9 c 1
 103.55 535.9 l 1
 166.25 834.2 l 17
 470.7 834.2 l 1
 456.85 748.05 l 1
 239.3 748.05 l 25
 216.3 641.55 l 1
 249.25 666.7 312.95 660.2 345.65 659.15 c 0
 420.95 656.35 448.4 595.8 439.15 532.15 c 2
 428.5 463.6 l 2
 415.95 370.9 358.3 350.7 290.95 351.35 c 1
 207.85 352 163.65 351.05 76.55 366.75 c 1
EndSplineSet
EndChar

StartChar: sixsuperior
Encoding: 266 8310 165
Width: 406
VWidth: 259
Flags: HW
LayerCount: 2
Fore
SplineSet
96.6 612.65 m 0
 127.2 802.65 188.15 835.65 246.35 838.8 c 0
 315.5 843 398.8 838.45 472.6 826.1 c 1
 461.1 754.75 l 1
 273.9 754.75 l 2
 212.8 754.75 200.7 680.9 192.1 631.85 c 1
 237.95 640.65 294.05 645.9 345.2 646.55 c 1
 427.55 647.2 452.4 584.05 443.65 530.85 c 2
 432.65 459.6 l 2
 420.6 381.65 374.25 355.65 298.05 355.65 c 2
 198.55 355.65 l 2
 128.4 355.65 64.25 411.1 96.6 612.65 c 0
181.6 566.7 m 1
 175.55 527.05 166 441.8 222 441.8 c 2
 298.1 441.8 l 2
 327.25 441.8 340.8 452.95 345.4 482.65 c 2
 352.95 529.3 l 2
 357.9 560.05 347.5 566.7 319.25 566.7 c 2
 181.6 566.7 l 1
EndSplineSet
EndChar

StartChar: sevensuperior
Encoding: 267 8311 166
Width: 423
VWidth: 259
Flags: HW
LayerCount: 2
Fore
SplineSet
115.6 749.35 m 1
 129.45 835.5 l 1
 468.1 835.5 l 1
 486 794.7 l 1
 233.7 355.65 l 1
 132.55 355.65 l 1
 359.75 749.35 l 1
 115.6 749.35 l 1
EndSplineSet
EndChar

StartChar: eightsuperior
Encoding: 268 8312 167
Width: 417
VWidth: 259
Flags: HW
LayerCount: 2
Fore
SplineSet
116.75 468.15 m 2
 125 518.1 l 2
 131.95 560.85 162.05 580 194.65 587.3 c 1
 151.1 609.7 146.05 651.85 151.4 685.7 c 2
 158.4 727.1 l 2
 173.4 819.8 231.4 838.85 301.2 838.85 c 2
 414.85 838.85 l 2
 480.05 838.85 524 795.85 511.65 718.35 c 2
 506 682.2 l 2
 503.65 666.8 488.95 619.35 440.25 610.75 c 1
 480.85 598.5 484 544.7 479.65 516.35 c 2
 471 460.8 l 2
 455.95 363.15 402.95 354.35 337.8 354.35 c 2
 223.85 354.35 l 2
 124.85 354.35 109.1 419 116.75 468.15 c 2
210.2 476 m 2
 205.9 448.9 212.9 438.35 251.5 438.35 c 2
 333.65 438.35 l 2
 362 438.35 377.35 448.65 381.3 476 c 2
 387.25 515.85 l 2
 391.85 544.45 381.7 558.05 353.75 558.05 c 2
 265.75 558.05 l 2
 236.45 558.05 221.4 546.75 216.8 515.85 c 2
 210.2 476 l 2
243.1 682.7 m 2
 237.5 647.45 256.55 639.25 278.9 639.25 c 2
 363.3 639.25 l 2
 404 639.25 410.25 662.5 413.55 682.7 c 2
 417.85 708.75 l 2
 424.45 748.35 411.05 755.5 380.75 755.5 c 2
 302.2 755.5 l 2
 267.9 755.5 253.35 746.7 247.4 708.75 c 2
 243.1 682.7 l 2
EndSplineSet
EndChar

StartChar: ninesuperior
Encoding: 269 8313 168
Width: 450
VWidth: 259
Flags: HW
LayerCount: 2
Fore
SplineSet
110.55 365.55 m 1
 122.05 437.25 l 1
 309.25 437.25 l 2
 370.35 437.25 382.8 511.8 391.75 562.25 c 1
 345.9 553.45 289.8 548.2 238.65 547.55 c 1
 155.95 546.9 132.15 612.85 140.9 666.75 c 2
 150.85 733.8 l 2
 162.55 812.45 208.55 841.6 284.75 840.9 c 2
 387.4 840.2 l 2
 458.95 840.2 519.9 780.2 487.2 576.55 c 0
 456.25 384.8 395.35 356.35 336.8 352.85 c 0
 267.65 348.65 174.6 351.9 110.55 365.55 c 1
232.25 669.7 m 2
 226.95 638.25 237 631.25 265.25 631.25 c 2
 402.9 631.25 l 1
 409.3 672.65 417.5 754.75 361.5 754.75 c 2
 285.75 754.75 l 2
 256.6 754.75 243.75 743.25 238.8 712.85 c 2
 232.25 669.7 l 2
EndSplineSet
EndChar

StartChar: zeroinferior
Encoding: 270 8320 169
Width: 457
VWidth: 0
Flags: HW
LayerCount: 2
Fore
SplineSet
98.35 -84.7 m 2
 136.6 159.8 l 2
 149.95 244.5 200.75 278.2 276.15 278.2 c 2
 393.85 278.2 l 2
 479.35 278.2 511.4 228.9 500.4 161.9 c 2
 461.8 -84.7 l 2
 447.5 -174.75 403.6 -201 327.65 -201 c 2
 209.95 -201 l 2
 151.7 -201 84.05 -174.45 98.35 -84.7 c 2
192.15 -68.8 m 2
 185.85 -108.95 198.75 -114.85 235.85 -114.85 c 10
 316.5 -114.85 l 18
 354.1 -114.85 367.5 -103.1 373.15 -69.15 c 2
 409 146.35 l 2
 414.65 178.55 409.75 192.05 369 192.05 c 2
 284.85 192.05 l 2
 243.45 192.05 232.65 173.85 228 146.35 c 2
 192.15 -68.8 l 2
EndSplineSet
EndChar

StartChar: oneinferior
Encoding: 271 8321 170
Width: 285
VWidth: 0
Flags: HW
LayerCount: 2
Fore
SplineSet
34.95 155.7 m 1
 44.75 218 l 1
 96.75 218 162.45 267.85 173.65 280.8 c 1
 263.05 280.8 l 1
 186.7 -200.35 l 1
 95.3 -200.35 l 1
 157.15 182.35 l 1
 136.3 166.2 85 155.7 34.95 155.7 c 1
EndSplineSet
EndChar

StartChar: twoinferior
Encoding: 272 8322 171
Width: 435
VWidth: 0
Flags: HW
LayerCount: 2
Fore
SplineSet
39.5 -200.35 m 25
 52.35 -118.55 l 17
 122.4 -72.25 314.9 46.8 329.05 135.65 c 1
 336.35 182.7 319.85 199.7 263.25 199.7 c 2
 99.65 199.7 l 2
 98.35 199.7 109.85 269.05 110.5 268.4 c 1
 174.7 278.15 221.75 285.85 303.55 285.85 c 3
 400.85 285.85 433.85 197.1 423.75 138.65 c 1
 404.55 10.35 253.95 -82.1 216.9 -114.2 c 9
 382.65 -114.2 l 25
 368.8 -200.35 l 25
 39.5 -200.35 l 25
EndSplineSet
EndChar

StartChar: threeinferior
Encoding: 273 8323 172
Width: 391
VWidth: 0
Flags: HW
LayerCount: 2
Fore
SplineSet
-1.55 -185.65 m 1
 9.3 -119.2 l 1
 30.1 -119.2 176.1 -118.55 176.1 -118.55 c 2
 219 -118.55 247.3 -107.15 252.9 -70.5 c 2
 255.85 -53.8 l 2
 262.1 -12.95 236.3 -1.55 198.5 -0.2 c 2
 69.05 4.45 l 2
 80.55 77.3 l 1
 212.35 82.6 l 2
 257.7 84.6 281.85 98.55 286.8 132.25 c 2
 288.75 147.95 l 2
 295.05 183.65 276.8 195.35 230.1 195.35 c 2
 54.95 195.35 l 1
 65.45 261.45 l 1
 127.2 282.5 196.95 282.2 275.05 280.85 c 0
 352.05 279.85 391.6 223.85 381.2 157.2 c 2
 375.9 125.35 l 2
 367.9 77.65 343.55 43.45 309.6 34.85 c 1
 342 19.6 352.9 -21.05 346.2 -62.95 c 2
 342.2 -88.15 l 2
 330.5 -162.65 288.75 -205.35 193.35 -204.7 c 0
 117.25 -204.7 53.5 -206.7 -1.55 -185.65 c 1
EndSplineSet
EndChar

StartChar: fourinferior
Encoding: 274 8324 173
Width: 432
VWidth: 0
Flags: HW
LayerCount: 2
Fore
SplineSet
-0.2 -56 m 1
 237.7 278.2 l 1
 338.7 278.2 l 1
 140.95 -5.2 l 1
 269.7 -5.2 l 1
 286.95 103.9 l 1
 320.5 152.95 l 1
 384.25 152.95 l 1
 359 -5.2 l 1
 410.7 -5.2 l 1
 399.2 -78.2 l 1
 344.1 -94 l 1
 328.25 -199.65 l 1
 238.3 -199.65 l 1
 255.85 -94.35 l 1
 19.55 -94.35 l 1
 -0.2 -56 l 1
EndSplineSet
EndChar

StartChar: fiveinferior
Encoding: 275 8325 174
Width: 411
VWidth: 0
Flags: HW
LayerCount: 2
Fore
SplineSet
4.55 -189.25 m 1
 16.05 -117.45 l 1
 214.8 -117.45 l 2
 250.5 -117.45 264.95 -101.1 268.9 -71.6 c 2
 275.1 -29.95 l 2
 277.75 -9.7 282.2 19.8 238.65 19.8 c 1
 156.35 19.8 l 2
 132.75 19.8 116.3 8.25 111.35 -20.1 c 1
 31.55 -20.1 l 1
 94.25 278.2 l 17
 398.7 278.2 l 1
 384.85 192.05 l 1
 167.3 192.05 l 25
 144.3 85.55 l 1
 177.25 110.7 240.95 104.2 273.65 103.15 c 0
 348.95 100.35 376.4 39.8 367.15 -23.85 c 2
 356.5 -92.4 l 2
 343.95 -185.1 286.3 -205.3 218.95 -204.65 c 1
 135.85 -204 91.65 -204.95 4.55 -189.25 c 1
EndSplineSet
EndChar

StartChar: sixinferior
Encoding: 276 8326 175
Width: 406
VWidth: 0
Flags: HW
LayerCount: 2
Fore
SplineSet
24.6 56.65 m 0
 55.2 246.65 116.15 279.65 174.35 282.8 c 0
 243.5 287 333.3 282.45 400.6 270.1 c 1
 389.1 198.75 l 1
 201.9 198.75 l 2
 140.8 198.75 128.7 124.9 120.1 75.85 c 1
 165.95 84.65 222.05 89.9 273.2 90.55 c 1
 355.55 91.2 380.4 28.05 371.65 -25.15 c 2
 360.65 -96.4 l 2
 348.6 -174.35 302.25 -200.35 226.05 -200.35 c 2
 126.55 -200.35 l 2
 56.4 -200.35 -7.75 -144.9 24.6 56.65 c 0
109.6 10.7 m 1
 103.55 -28.95 94 -114.2 150 -114.2 c 2
 226.1 -114.2 l 2
 255.25 -114.2 268.8 -103.05 273.4 -73.35 c 2
 280.95 -26.7 l 2
 285.9 4.05 275.5 10.7 247.25 10.7 c 2
 109.6 10.7 l 1
EndSplineSet
EndChar

StartChar: seveninferior
Encoding: 277 8327 176
Width: 422
VWidth: 0
Flags: HW
LayerCount: 2
Fore
SplineSet
43.6 193.35 m 1
 57.45 279.5 l 1
 396.1 279.5 l 1
 414 238.7 l 1
 161.7 -200.35 l 1
 60.55 -200.35 l 1
 287.75 193.35 l 1
 43.6 193.35 l 1
EndSplineSet
EndChar

StartChar: eightinferior
Encoding: 278 8328 177
Width: 417
VWidth: 0
Flags: HW
LayerCount: 2
Fore
SplineSet
44.75 -87.85 m 2
 53 -37.9 l 2
 59.95 4.85 90.05 24 122.65 31.3 c 1
 79.1 53.7 74.05 95.85 79.4 129.7 c 2
 86.4 171.1 l 2
 101.4 263.8 159.4 282.85 229.2 282.85 c 2
 342.85 282.85 l 2
 408.05 282.85 452 239.85 439.65 162.35 c 2
 434 126.2 l 2
 431.65 110.8 416.95 63.35 368.25 54.75 c 1
 408.85 42.5 412 -11.3 407.65 -39.65 c 2
 399 -95.2 l 2
 383.95 -192.85 330.95 -201.65 265.8 -201.65 c 2
 151.85 -201.65 l 2
 52.85 -201.65 37.1 -137 44.75 -87.85 c 2
138.2 -80 m 2
 133.9 -107.1 140.9 -117.65 179.5 -117.65 c 2
 261.65 -117.65 l 2
 290 -117.65 305.35 -107.35 309.3 -80 c 2
 315.25 -40.15 l 2
 319.85 -11.55 309.7 2.05 281.75 2.05 c 2
 193.75 2.05 l 2
 164.45 2.05 149.4 -9.25 144.8 -40.15 c 2
 138.2 -80 l 2
171.1 126.7 m 2
 165.5 91.45 184.55 83.25 206.9 83.25 c 2
 291.3 83.25 l 2
 332 83.25 338.25 106.5 341.55 126.7 c 2
 345.85 152.75 l 2
 352.45 192.35 339.05 199.5 308.75 199.5 c 2
 230.2 199.5 l 2
 195.9 199.5 181.35 190.7 175.4 152.75 c 2
 171.1 126.7 l 2
EndSplineSet
EndChar

StartChar: nineinferior
Encoding: 279 8329 178
Width: 449
VWidth: 0
Flags: HW
LayerCount: 2
Fore
SplineSet
38.55 -190.45 m 1
 50.05 -118.75 l 1
 237.25 -118.75 l 2
 298.35 -118.75 310.8 -44.2 319.75 6.25 c 1
 273.9 -2.55 217.8 -7.8 166.65 -8.45 c 1
 83.95 -9.1 60.15 56.85 68.9 110.75 c 2
 78.85 177.8 l 2
 90.55 256.45 136.55 285.6 212.75 284.9 c 2
 315.4 284.2 l 2
 386.95 284.2 447.9 224.2 415.2 20.55 c 0
 384.25 -171.2 323.35 -199.65 264.8 -203.15 c 0
 195.65 -207.35 98.05 -204.1 38.55 -190.45 c 1
160.25 113.7 m 2
 154.95 82.25 165 75.25 193.25 75.25 c 2
 330.9 75.25 l 1
 337.3 116.65 345.5 198.75 289.5 198.75 c 2
 213.75 198.75 l 2
 184.6 198.75 171.75 187.25 166.8 156.85 c 2
 160.25 113.7 l 2
EndSplineSet
EndChar

StartChar: zero.oldstyle
Encoding: 280 -1 179
Width: 619
VWidth: 0
Flags: W
HStem: 0 109<211.155 461.807> 523 109<276.169 519.357>
DStem2: 85.3496 172.5 203.8 186.85 0.158466 0.987364<-27.0098 354.44> 488.8 186.5 602.35 172.5 0.15893 0.98729<-62.1743 319.252>
LayerCount: 2
Fore
SplineSet
85.3496 172.5 m 10
 130.85 456 l 2
 149.9 576.25 216.4 632 331 632 c 2
 495 632 l 2
 631.4 632 662.6 545.85 648.55 459.5 c 2
 602.35 172.5 l 18
 583.35 53.5 520.5 0 408.3 0 c 2
 244.3 0 l 2
 139.65 0 66 52.5 85.3496 172.5 c 10
203.8 186.85 m 2
 191.55 108.1 235.95 109 274.85 109 c 10
 396.15 109 l 18
 449.3 109 479.8 132.5 488.8 186.5 c 2
 530.1 445.5 l 2
 538.4 498.65 523 523 465.45 523 c 2
 338.9 523 l 2
 270.4 523 250.35 479.95 245.1 445.5 c 2
 203.8 186.85 l 2
EndSplineSet
Substitution2: "'tnum' Tabular Numbers in Latin lookup 7-1" zero.tosf
Substitution2: "'lnum' Lining Figures lookup 19-1" zero
EndChar

StartChar: one.oldstyle
Encoding: 281 -1 180
Width: 357
VWidth: 0
Flags: W
HStem: 0 21G<163.1 281.443> 0 21G<163.1 281.443> 472.85 77.5<94.4 170.694>
VStem: 82.55 292
DStem2: 163.1 0 278.4 0 0.150405 0.988624<17.3417 514.488>
LayerCount: 2
Fore
SplineSet
82.55 472.85 m 1xb0
 94.4 550.35 l 1
 159.4 550.35 242.45 614.7 259.25 633.95 c 1
 374.55 632 l 1
 278.4 0 l 1
 163.1 0 l 1
 241.7 508.45 l 1
 211.05 485.95 144.95 472.85 82.55 472.85 c 1xb0
EndSplineSet
Substitution2: "'tnum' Tabular Numbers in Latin lookup 7-1" one.tosf
Substitution2: "'lnum' Lining Figures lookup 19-1" one
EndChar

StartChar: two.oldstyle
Encoding: 282 -1 181
Width: 593
VWidth: 0
Flags: W
HStem: 0 109<305.1 547.1> 526.55 109.351<169.495 489.958>
LayerCount: 2
Fore
SplineSet
41.5996 0 m 25
 58.2002 103 l 17
 196.55 171.6 484.65 308.8 503.8 430.6 c 1
 515.1 499.4 491 527.85 400.25 526.55 c 1
 367.75 526.55 123.95 525.9 123.95 525.9 c 2
 138.5 612.4 l 1
 234.55 627.8 313.65 635.9 442.05 635.9 c 3
 601.3 635.9 636.7 535.5 623.8 429.3 c 1
 606.35 266.6 373.4 140.4 305.1 109 c 9
 564.7 109 l 25
 547.1 0 l 25
 41.5996 0 l 25
EndSplineSet
Substitution2: "'tnum' Tabular Numbers in Latin lookup 7-1" two.tosf
Substitution2: "'lnum' Lining Figures lookup 19-1" two
EndChar

StartChar: three.oldstyle
Encoding: 283 -1 182
Width: 590
VWidth: 0
Flags: W
HStem: -103.1 110<69.1401 408.841> -75.1 82<54.65 139.191> 212.75 110<218.269 440.077> 220.45 93<164.85 327.431> 528.9 109<197.689 488.045>
DStem2: 441.7 84.15 556.9 64.9 0.157648 0.987495<-55.5839 107.74 260.741 426.44>
LayerCount: 2
Fore
SplineSet
41.05 -75.1 m 1x48
 54.65 6.9 l 1
 324.65 6.9 l 2
 383.15 6.9 432.1 24.15 441.7 84.15 c 2
 448.55 126 l 2
 461.4 207.1 420.4 210.05 363.25 212.75 c 2x68
 149.25 220.45 l 2
 164.85 313.45 l 1x18
 380.85 322.75 l 2
 449.85 325.75 485.6 348.5 494.55 404.25 c 2
 502.05 451.9 l 2
 513 519.15 465.45 528.9 413.45 528.9 c 2
 130.45 528.9 l 1
 143.05 609.9 l 1
 236.05 640.9 352.55 639.9 469.55 637.9 c 0
 570.45 635.9 636.2 562.3 619.8 458.9 c 2
 610.2 400.4 l 2
 597.55 322.2 562.55 278.2 515.55 267.9 c 1
 562 248.3 577.15 189.4 565.15 113.4 c 2
 556.9 64.9 l 2
 539.2 -48.3 467.55 -103.1 345.55 -103.1 c 0xa8
 231.55 -103.1 124.05 -106.1 41.05 -75.1 c 1x48
EndSplineSet
Substitution2: "'tnum' Tabular Numbers in Latin lookup 7-1" three.tosf
Substitution2: "'lnum' Lining Figures lookup 19-1" three
EndChar

StartChar: four.oldstyle
Encoding: 284 -1 183
Width: 612
VWidth: 0
Flags: W
HStem: 69.5 113<214.8 410.55>
DStem2: 36.3 124 214.8 182.5 0.580859 0.814004<151.303 624.076> 384.35 -98 502.3 -98 0.155967 0.987762<18.3963 169.536 302.295 467.675>
LayerCount: 2
Fore
SplineSet
36.3 124 m 1
 398.8 632 l 1
 532.05 632 l 1
 214.8 182.5 l 1
 428.15 182.5 l 1
 457.3 363.95 l 1
 504.75 440 l 1
 587.25 440 l 1
 546.1 182.5 l 1
 625.6 182.5 l 1
 611.7 92 l 1
 528.5 69.5 l 1
 502.3 -98 l 1
 384.35 -98 l 1
 410.55 69.5 l 1
 61.5 69.5 l 1
 36.3 124 l 1
EndSplineSet
Substitution2: "'tnum' Tabular Numbers in Latin lookup 7-1" four.tosf
Substitution2: "'lnum' Lining Figures lookup 19-1" four
EndChar

StartChar: five.oldstyle
Encoding: 285 -1 184
Width: 596
VWidth: 0
Flags: W
HStem: -103.35 114<69.312 409.456> -79.3496 90<60.4502 195.474> 251 106.15<244.742 443.53> 523 109<277.2 601.25>
DStem2: 89.0996 186.5 237.05 330 0.203673 0.979039<170.626 367.758> 440.85 89.6504 554.4 63.1504 0.14645 0.989218<-62.421 143.119>
LayerCount: 2
Fore
SplineSet
45.8496 -79.3496 m 5x70
 60.4502 10.6504 l 5x70
 350.45 10.6504 l 6
 417 10.6504 435.9 57.9502 440.85 89.6504 c 6
 453.65 168.1 l 6
 458.65 198.5 461.4 251 392.2 251 c 5
 279.3 251 l 6
 242.75 251 207.3 232.45 199.7 186.5 c 5
 89.0996 186.5 l 5
 181.85 632 l 21
 618.85 632 l 5
 601.25 523 l 5
 277.2 523 l 29
 237.05 330 l 5
 259.55 347.95 291.1 354.85 319.7 357.15 c 4
 361.95 360.45 411.6 356.85 434.35 356.5 c 4
 533.75 353 586 275.35 570.7 173.25 c 6
 554.4 63.1504 l 6
 532.4 -73.8496 442.8 -100.1 349.35 -103.35 c 5xb0
 224.7 -107.9 175.85 -102.35 45.8496 -79.3496 c 5x70
EndSplineSet
Substitution2: "'tnum' Tabular Numbers in Latin lookup 7-1" five.tosf
Substitution2: "'lnum' Lining Figures lookup 19-1" five
EndChar

StartChar: six.oldstyle
Encoding: 286 -1 185
Width: 593
VWidth: 0
Flags: W
HStem: -0.35 107.05<191.156 406.55> 333 105.5<192.564 441.355> 629 87.55<353.581 590.75>
DStem2: 429.9 176.75 540.4 148 0.149745 0.988725<-57.9024 146.181>
LayerCount: 2
Fore
SplineSet
67.15 391 m 0
 109.15 656 209.7 731.35 295.5 736.25 c 0
 397.2 741.85 508.8 728.1 604.65 716.55 c 1
 590.75 629 l 1
 326.25 629 l 2
 238.5 629 203.2 497.65 189.25 417.5 c 1
 259.8 430.65 339.25 437.85 416.75 438.5 c 1
 555.6 439.8 570.45 343.05 558.65 268.5 c 2
 540.4 148 l 2
 521.35 29.7 445.55 -0.35 343.85 -0.35 c 2
 200 -0.35 l 2
 95.55 -0.35 17.15 76 67.15 391 c 0
175.35 333 m 1
 157.7 221.8 153.15 106.7 240.9 106.7 c 2
 345.45 106.7 l 2
 378.45 106.7 420.65 117.65 429.9 176.75 c 2
 443.65 265 l 2
 452.6 319.7 437.65 333 383.75 333 c 2
 175.35 333 l 1
EndSplineSet
Substitution2: "'tnum' Tabular Numbers in Latin lookup 7-1" six.tosf
Substitution2: "'lnum' Lining Figures lookup 19-1" six
EndChar

StartChar: seven.oldstyle
Encoding: 287 -1 186
Width: 569
VWidth: 0
Flags: W
HStem: 523 109<116.8 455.2>
DStem2: 119.8 -100 249.1 -100 0.470027 0.882652<60.7745 707.539>
LayerCount: 2
Fore
SplineSet
99.2 523 m 1
 116.8 632 l 1
 583.5 632 l 1
 607.75 573.5 l 1
 249.1 -100 l 1
 119.8 -100 l 1
 455.2 523 l 1
 99.2 523 l 1
EndSplineSet
Substitution2: "'tnum' Tabular Numbers in Latin lookup 7-1" seven.tosf
Substitution2: "'lnum' Lining Figures lookup 19-1" seven
EndChar

StartChar: eight.oldstyle
Encoding: 288 -1 187
Width: 625
VWidth: 0
Flags: W
HStem: 0 105.5<214.356 452.594> 323 101<265.63 479.517> 631.5 105.5<290.513 530.854>
DStem2: 88.5498 169.75 205.65 171.65 0.156552 0.98767<-29.8831 159.435 296.502 474.35> 475.15 171.65 590.4 157.85 0.156643 0.987655<-52.077 133.546 273.733 449.375>
LayerCount: 2
Fore
SplineSet
88.5498 169.75 m 2
 101.1 252 l 2
 111.7 317.6 155.3 352.35 206.45 358.75 c 1
 139.75 386 132.8 453.45 141.5 506 c 2
 152.15 571 l 2
 173.5 707.75 252.65 737 362.15 737 c 2
 511.65 737 l 2
 617.3 737 671.7 672.95 653.65 556.65 c 2
 644.05 499 l 2
 641.35 475.25 618.65 401.6 547.45 388.7 c 1
 606 372.45 612 291.15 604.35 248.15 c 2
 590.4 157.85 l 2
 566.35 8.5 477.65 0 393.65 0 c 2
 245.15 0 l 2
 69.4502 0 81.1504 123.3 88.5498 169.75 c 2
205.65 171.65 m 2
 197.7 121.7 218.1 105.5 277.8 105.5 c 2
 390.25 105.5 l 2
 431 105.5 467.9 122.85 475.15 171.65 c 2
 488.3 253.9 l 2
 495.55 300.05 470.15 323 427.9 323 c 2
 305.65 323 l 2
 261.05 323 226.7 303.65 218.8 253.9 c 2
 205.65 171.65 l 2
256.5 494 m 2
 247.25 436.8 287.2 424 321.2 424 c 2
 442.75 424 l 2
 505.6 424 520.35 460.1 526 494 c 2
 534.55 548.7 l 2
 545.8 617.5 524.1 631.5 474.1 631.5 c 2
 361 631.5 l 2
 296.55 631.5 274.65 610.3 265.05 548.7 c 2
 256.5 494 l 2
EndSplineSet
Substitution2: "'tnum' Tabular Numbers in Latin lookup 7-1" eight.tosf
Substitution2: "'lnum' Lining Figures lookup 19-1" eight
EndChar

StartChar: nine.oldstyle
Encoding: 289 -1 188
Width: 607
VWidth: 0
Flags: W
HStem: -84.55 87.55<99.05 336.536> 193.5 105.5<248.453 497.586> 525.3 107.05<282.597 498.348>
DStem2: 131.85 367 246.5 367 0.152809 0.988256<-36.4126 165.666>
LayerCount: 2
Fore
SplineSet
85.15 -84.55 m 1
 99.05 3 l 1
 363.55 3 l 2
 451.3 3 486.95 134.35 500.9 214.5 c 1
 430.35 201.35 350.55 194.15 273.05 193.5 c 1
 134.2 192.2 120.05 292.45 131.85 367 c 2
 149.4 480.5 l 2
 168.1 598.8 243.55 632.35 345.25 632.35 c 2
 489.1 632.35 l 2
 595.65 632.35 672.3 549 622.3 234 c 0
 580.3 -31 480.45 -99.35 394.65 -104.25 c 0
 292.95 -109.85 181 -96.1 85.15 -84.55 c 1
246.5 367 m 2
 237.55 312.3 252.15 299 306.05 299 c 2
 514.45 299 l 1
 532.1 410.2 536.3 525.3 448.55 525.3 c 2
 344.35 525.3 l 2
 311.35 525.3 269.15 514.35 259.9 455.25 c 2
 246.5 367 l 2
EndSplineSet
Substitution2: "'tnum' Tabular Numbers in Latin lookup 7-1" nine.tosf
Substitution2: "'lnum' Lining Figures lookup 19-1" nine
EndChar

StartChar: ampersand
Encoding: 38 38 189
Width: 655
VWidth: 0
Flags: HW
LayerCount: 2
Fore
SplineSet
88.4 81.8 m 0
 27.5 180.2 57.9 286.3 162.65 365.65 c 2
 254.85 435.85 l 1
 211.8 511.05 l 1
 147.85 621.3 231.75 718.25 316.85 728.05 c 0
 428.85 741.6 505.95 730.25 593.15 710 c 1
 579.9 628.4 l 1
 401.4 628.4 l 2
 318.9 628.4 282.25 605.3 329.95 521.8 c 2
 483.35 255.2 l 1
 618.1 373.45 l 1
 653.3 329.65 l 1
 582.65 209.55 l 1
 535.7 164.6 l 1
 631.65 0 l 1
 506.65 0 l 1
 448.3 100.5 l 1
 373.6 37.35 l 2
 300.45 -24.65 155 -27 88.4 81.8 c 0
183 143.3 m 0
 214.9 96.2 276.55 84.15 326.2 127.1 c 2
 395.85 187.75 l 1
 302.45 344.6 l 1
 229.75 290.15 l 18
 158.3 236.1 154.5 184.95 183 143.3 c 0
EndSplineSet
AlternateSubs2: "'salt' Access All Alternates in Latin lookup 4-1" ampersand.salt
Substitution2: "'smcp' Lowercase to Small Capitals lookup 16-1" ampersand.smcp
EndChar

StartChar: asterisk
Encoding: 42 42 190
Width: 431
VWidth: 0
Flags: HW
LayerCount: 2
Fore
SplineSet
131.3 566 m 1
 139.05 616.5 l 1
 282.35 642 l 1
 274.3 561 l 1
 131.3 566 l 1
168.65 415.4 m 1
 214 551.45 l 1
 290.3 532 l 1
 213.45 400.25 l 1
 168.65 415.4 l 1
270.75 470.05 m 1
 326.3 538 l 1
 422.7 447.7 l 1
 388.3 407.3 l 1
 270.75 470.05 l 1
282.7 718.75 m 1
 333.85 736.85 l 1
 385.25 616.05 l 1
 305.25 584 l 1
 282.7 718.75 l 1
333.65 571 m 1
 465.65 648.75 l 1
 485.3 606.05 l 1
 375.45 509.05 l 1
 333.65 571 l 1
EndSplineSet
Substitution2: "'smcp' Lowercase to Small Capitals lookup 16-1" asterisk.smcp
EndChar

StartChar: Euro
Encoding: 290 8364 191
Width: 709
VWidth: 0
Flags: HW
LayerCount: 2
Fore
SplineSet
61.25 251.5 m 1
 70.7 312.5 l 1
 153.35 319.5 l 1
 165.85 399.5 l 1
 86.2 407.5 l 1
 95.3 464.5 l 1
 177.3 473.5 l 1
 188.3 545.5 216.6 740 460.6 740 c 3
 512.6 740 638.2 726.15 710.75 706.5 c 1
 697.2 619.5 l 2
 697.2 619.5 546.7 634.5 464.7 634.5 c 3
 325.5 634.5 308.85 561.95 293.3 473.5 c 1
 526.3 466.5 l 1
 516.85 406.5 l 1
 281.85 399.5 l 1
 269.35 319.5 l 1
 501.7 312.5 l 1
 492.25 251.5 l 1
 492.25 251.5 254.25 246.5 257.25 244.5 c 1
 236.1 118.4 298.1 96 379.5 96 c 27
 472.65 96 621.35 116.5 621.35 116.5 c 1
 607.8 32.5 l 1
 526.65 3.9 439.6 -6 342.6 -6 c 3
 265.6 -6 105.25 18.5 141.25 244.5 c 1
 61.25 251.5 l 1
EndSplineSet
Substitution2: "'smcp' Lowercase to Small Capitals lookup 16-1" Euro.smcp
EndChar

StartChar: parenleft
Encoding: 40 40 192
Width: 361
VWidth: 39
Flags: HW
LayerCount: 2
Fore
SplineSet
115.1 315.5 m 0
 169.2 641.2 365.05 839 365.05 839 c 1
 482.1 839 l 1
 482.1 839 284.9 603.45 231.1 305 c 0
 173.95 -12.3 312.1 -231 312.1 -231 c 1
 199.6 -231 l 1
 199.6 -231 58.6 -23.65 115.1 315.5 c 0
EndSplineSet
Substitution2: "'case' Case-Sensitive Forms lookup 1-1" parenleft.alt
Substitution2: "'c2sc' Capitals to Small Capitals in Latin lookup 17 subtable" parenleft.smcp
Substitution2: "'smcp' Lowercase to Small Capitals lookup 16-1" parenleft.smcp
EndChar

StartChar: parenright
Encoding: 41 41 193
Width: 363
VWidth: 39
Flags: HW
LayerCount: 2
Fore
SplineSet
-16.15 -231 m 1
 -16.15 -231 179.65 -3.85 234.85 303.7 c 0
 290.6 611.9 153.5 839 153.5 839 c 1
 266 839 l 1
 266 839 405.6 621.5 350.85 293.2 c 0
 295 -43.35 107.9 -231 107.9 -231 c 1
 -16.15 -231 l 1
EndSplineSet
Substitution2: "'case' Case-Sensitive Forms lookup 1-1" parenright.alt
Substitution2: "'c2sc' Capitals to Small Capitals in Latin lookup 17 subtable" parenright.smcp
Substitution2: "'smcp' Lowercase to Small Capitals lookup 16-1" parenright.smcp
EndChar

StartChar: plus
Encoding: 43 43 194
Width: 495
VWidth: 0
Flags: HW
LayerCount: 2
Fore
SplineSet
87.4 305 m 1
 103.6 407 l 1
 259.6 407 l 1
 284.5 564 l 1
 386.5 564 l 1
 361.6 407 l 1
 519.6 407 l 1
 503.4 305 l 1
 345.4 305 l 1
 320.5 148 l 1
 218.5 148 l 1
 243.4 305 l 1
 87.4 305 l 1
EndSplineSet
EndChar

StartChar: endash
Encoding: 291 8211 195
Width: 454
VWidth: 0
Flags: HW
LayerCount: 2
Fore
SplineSet
59.65 236 m 1
 76.2 339 l 1
 549.2 339 l 1
 532.65 236 l 1
 59.65 236 l 1
EndSplineSet
Substitution2: "'case' Case-Sensitive Forms lookup 1-1" endash.alt
Substitution2: "'c2sc' Capitals to Small Capitals in Latin lookup 17 subtable" endash.smcp
Substitution2: "'smcp' Lowercase to Small Capitals lookup 16-1" endash.smcp
EndChar

StartChar: emdash
Encoding: 292 8212 196
Width: 736
VWidth: 0
Flags: HW
LayerCount: 2
Fore
SplineSet
60.4 238 m 1
 76.95 341 l 1
 772.95 341 l 1
 756.4 238 l 1
 60.4 238 l 1
EndSplineSet
Substitution2: "'case' Case-Sensitive Forms lookup 1-1" emdash.alt
Substitution2: "'c2sc' Capitals to Small Capitals in Latin lookup 17 subtable" emdash.smcp
Substitution2: "'smcp' Lowercase to Small Capitals lookup 16-1" emdash.smcp
EndChar

StartChar: less
Encoding: 60 60 197
Width: 458
VWidth: 0
Flags: HW
LayerCount: 2
Fore
SplineSet
88.85 297.2 m 1
 106.75 408.7 l 1
 505.35 559.5 l 1
 488.1 448 l 1
 219.4 349.3 l 1
 455.85 244.75 l 1
 437.95 136.5 l 1
 88.85 297.2 l 1
EndSplineSet
EndChar

StartChar: equal
Encoding: 61 61 198
Width: 467
VWidth: 0
Flags: HW
LayerCount: 2
Fore
SplineSet
50.2 194.5 m 1
 67.05 296.5 l 1
 494.05 296.5 l 1
 477.2 194.5 l 1
 50.2 194.5 l 1
83.25 407 m 1
 100.1 509 l 1
 527.1 509 l 1
 510.25 407 l 1
 83.25 407 l 1
EndSplineSet
EndChar

StartChar: greater
Encoding: 62 62 199
Width: 459
VWidth: 0
Flags: HW
LayerCount: 2
Fore
SplineSet
63.6 136.5 m 1
 81.5 249.3 l 1
 354.45 356.8 l 1
 112.75 454.5 l 1
 130.65 559.5 l 1
 481.4 408.7 l 1
 464.5 297.2 l 1
 63.6 136.5 l 1
EndSplineSet
EndChar

StartChar: multiply
Encoding: 215 215 200
Width: 460
VWidth: 0
Flags: HW
LayerCount: 2
Fore
SplineSet
86 246.1 m 1
 213.45 356.3 l 1
 121.5 466.2 l 1
 199.55 534.5 l 1
 291.85 424.6 l 1
 427 540.45 l 1
 488.1 467.2 l 1
 352.9 350.3 l 1
 446.5 239.45 l 1
 368.5 174.3 l 1
 276.6 283.4 l 1
 148.15 171.1 l 1
 86 246.1 l 1
EndSplineSet
EndChar

StartChar: divide
Encoding: 247 247 201
Width: 504
VWidth: 0
Flags: HW
LayerCount: 2
Fore
SplineSet
89.85 302 m 1
 106.05 404 l 1
 525.9 404 l 1
 509.7 302 l 1
 89.85 302 l 1
220.45 161.45 m 2
 230.85 223.5 l 2
 232.85 238.5 242.85 248.5 258.85 248.5 c 2
 323.9 248.5 l 2
 339.95 248.5 345.95 238.2 343.6 223.5 c 2
 333.2 161.45 l 2
 330.85 145.4 320.5 138.45 306.5 138.45 c 2
 241.45 138.45 l 2
 227.45 138.45 218.45 147.45 220.45 161.45 c 2
270.9 475.85 m 2
 280.3 537.9 l 2
 282.3 552.9 292.3 562.9 308.3 562.9 c 2
 373.35 562.9 l 2
 389.4 562.9 395.4 552.6 393.05 537.9 c 2
 383.65 475.85 l 2
 381.3 459.8 369.95 452.85 355.95 452.85 c 2
 290.9 452.85 l 2
 276.9 452.85 268.9 461.85 270.9 475.85 c 2
EndSplineSet
EndChar

StartChar: question
Encoding: 63 63 202
Width: 541
VWidth: 0
Flags: HW
LayerCount: 2
Fore
SplineSet
116.25 631.6 m 2
 130.15 715.5 l 1
 229.25 732 301.85 744 415.85 739 c 1
 556.15 739 611.3 641.5 595.3 543.5 c 2
 581.75 453 l 2
 560.2 306.6 465 273.25 321.45 289 c 1
 321.45 287.05 306.2 198.9 306.85 195 c 1
 207.35 195 l 1
 235.85 378 l 1
 273.55 377.35 322.65 376.7 360.35 378 c 0
 409.35 380 457.15 402.8 467.1 464.9 c 2
 478.2 535.8 l 2
 489.1 605.8 459.5 631.6 373.25 631.6 c 2
 116.25 631.6 l 2
168.7 23 m 2
 181.2 101 l 2
 183.2 116 193.2 126 209.2 126 c 2
 283.2 126 l 2
 301.2 126 307.2 117 304.2 101 c 2
 291.7 23 l 2
 288.7 5 277.7 0 263.7 0 c 2
 189.7 0 l 2
 175.7 0 166.7 9 168.7 23 c 2
EndSplineSet
Substitution2: "'smcp' Lowercase to Small Capitals lookup 16-1" question.smcp
EndChar

StartChar: bracketleft
Encoding: 91 91 203
Width: 329
VWidth: 39
Flags: HW
LayerCount: 2
Fore
SplineSet
68.2 -31.35 m 2
 179 659.3 l 2
 195.8 762.05 234.75 821 365.9 821 c 2
 445.9 821 l 1
 429.7 719 l 1
 367.2 719 l 2
 329.2 719 303.2 703.6 292.55 639.7 c 2
 184.2 -38 l 2
 172.25 -113.6 185.4 -129 231.2 -129 c 2
 295.45 -129 l 1
 279.25 -231 l 1
 193.65 -231 l 2
 59.1 -231 56.05 -105.5 68.2 -31.35 c 2
EndSplineSet
EndChar

StartChar: bracketright
Encoding: 93 93 204
Width: 327
VWidth: 39
Flags: HW
LayerCount: 2
Fore
SplineSet
-16.15 -231 m 1
 0.05 -129 l 1
 62.55 -129 l 2
 100.55 -129 126.9 -113.6 137.55 -49.7 c 2
 244.85 628 l 2
 256.8 703.6 242.6 719 196.8 719 c 2
 134.3 719 l 1
 150.85 821 l 1
 232.25 821 l 2
 360.85 821 373.35 710.55 361.2 627.3 c 2
 254.95 -68.95 l 2
 241.3 -159.45 208.65 -231 70.85 -231 c 2
 -16.15 -231 l 1
EndSplineSet
EndChar

StartChar: braceleft
Encoding: 123 123 205
Width: 320
VWidth: 39
Flags: HW
LayerCount: 2
Fore
SplineSet
61.75 273.25 m 1
 76.6 364.75 l 1
 110.25 366.45 156.8 364.8 164.1 411.25 c 2
 201.1 645.5 l 2
 220.1 763.55 294.6 821 436.5 821 c 1
 420.3 719 l 1
 361.4 719.65 324.8 695.4 310.8 607 c 2
 279.4 406 l 2
 270 348.9 227.3 321.9 172.35 314.3 c 1
 224.95 305.2 257 270.25 249.3 223 c 2
 212.1 -7.85 l 2
 196.9 -102.75 222.8 -135.1 285.7 -132.5 c 1
 269.85 -231 l 1
 115.3 -231 75.95 -131.55 94 -21.85 c 2
 132.25 213.75 l 2
 138.55 252.95 101.75 276.25 61.75 273.25 c 1
EndSplineSet
EndChar

StartChar: braceright
Encoding: 125 125 206
Width: 317
VWidth: 39
Flags: HW
LayerCount: 2
Fore
SplineSet
-16.15 -231 m 1
 -0.3 -132.5 l 1
 60 -133.15 95.25 -104.7 107.85 -25.4 c 2
 143.75 197.65 l 2
 152.1 248.8 194.15 277.9 249.45 288.3 c 1
 196.5 294.6 164.4 327.45 173.15 380.65 c 2
 206.5 589.45 l 2
 223.1 693.45 195.8 721.6 134.3 719 c 1
 150.85 821 l 1
 301.2 821 340.2 715.6 322.5 607.3 c 2
 289.85 388.5 l 2
 283.9 347.9 323.15 328.1 360.7 329 c 1
 345.85 237.5 l 1
 309.75 237.9 266 236.05 258.7 191 c 2
 218.6 -53.4 l 2
 198.2 -175.65 129.95 -231 -16.15 -231 c 1
EndSplineSet
EndChar

StartChar: at
Encoding: 64 64 207
Width: 886
VWidth: 0
Flags: HW
LayerCount: 2
Fore
SplineSet
55.6 26.5 m 2
 133.8 521 l 2
 154.05 646.25 226.7 713 370.65 713 c 2
 738.65 713 l 2
 870.3 713 911.05 626.3 892.3 500 c 2
 842.1 163.5 l 2
 831.95 94.45 802.05 3 658.05 3 c 2
 579.55 3 l 1
 556.2 59.5 l 1
 530.8 29.35 487.55 -4.05 414.55 -4 c 0
 298.65 -3.9 231 71.45 262.55 280.95 c 0
 296.55 502.3 403.55 544.7 488.05 544.7 c 0
 575.5 544.7 663.7 529.25 714.7 480.25 c 1
 659.9 101.5 l 1
 707.9 101.5 733.75 110.5 746.4 191.5 c 2
 793.45 507 l 2
 808.4 609.05 770.15 613.5 719.3 613.5 c 2
 351.3 613.5 l 2
 256.3 613.5 238.35 547.1 231.95 507 c 2
 154.8 19.5 l 2
 145.8 -37.5 154.85 -87.5 240.85 -87.5 c 2
 626.85 -87.5 l 1
 615 -159 l 1
 565 -169 449 -186 323 -186 c 2
 228.5 -186 l 2
 86.35 -186 37.9 -86.8 55.6 26.5 c 2
359.1 261 m 0
 344.6 149.25 353.7 94.1 428.9 94.5 c 0
 483.9 94.55 523.45 109.7 567.1 158 c 1
 610.4 435.05 l 1
 561.25 446.85 521.6 447.2 485.9 447.2 c 0
 432.15 447.2 379.3 414.85 359.1 261 c 0
EndSplineSet
Substitution2: "'case' Case-Sensitive Forms lookup 1-1" at.alt
Substitution2: "'smcp' Lowercase to Small Capitals lookup 16-1" at.smcp
EndChar

StartChar: breve
Encoding: 293 728 208
Width: 251
VWidth: 0
Flags: HW
LayerCount: 2
Fore
SplineSet
57.25 644 m 1
 110.6 644 l 1
 105.65 605.55 128.4 583.35 161.05 583.35 c 0
 202.3 582.7 226.05 601.05 231.95 644 c 1
 285.3 644 l 1
 276.05 567.55 230.4 530.7 160.7 530.7 c 0
 102.1 530.7 51.25 572.1 57.25 644 c 1
EndSplineSet
EndChar

StartChar: ogonek
Encoding: 294 731 209
Width: 222
VWidth: 0
Flags: W
HStem: -184.5 70.5<220.173 259.9> -20 20G<155.35 282.75> -20 20G<155.35 282.75>
LayerCount: 2
Fore
SplineSet
233.25 0 m 1xc0
 282.75 0 l 1
 192.55 -62.75 204.4 -118.7 271.3 -114 c 9
 259.9 -184.5 l 0
 146.8 -206.8 77.45 -68.9 233.25 0 c 1xc0
EndSplineSet
EndChar

StartChar: caron
Encoding: 295 711 210
Width: 375
VWidth: 0
Flags: HW
LayerCount: 2
Fore
SplineSet
24.65 664.5 m 1
 105.75 664.5 l 1
 155.05 592.7 l 1
 232.45 664.5 l 1
 327.15 664.5 l 1
 194.75 531 l 1
 104.5 531 l 1
 24.65 664.5 l 1
EndSplineSet
Substitution2: "'smcp' Lowercase to Small Capitals lookup 16-1" caron.smcp
EndChar

StartChar: hungarumlaut
Encoding: 296 733 211
Width: 463
VWidth: 0
Flags: HW
LayerCount: 2
Fore
SplineSet
147 531 m 25
 265.2 667.5 l 25
 377.7 667.5 l 25
 230 531 l 25
 147 531 l 25
295.3 531 m 25
 413.5 667.5 l 25
 526 667.5 l 25
 378.3 531 l 25
 295.3 531 l 25
EndSplineSet
EndChar

StartChar: dotaccent
Encoding: 297 729 212
Width: 137
VWidth: 0
Flags: HW
LayerCount: 2
Fore
SplineSet
100.85 549 m 2
 111.95 617 l 2
 113.95 632 123.95 642 139.95 642 c 2
 203.95 642 l 2
 218.95 642 224.95 631 222.95 617 c 2
 211.85 549 l 2
 209.85 534 199.85 526 185.85 526 c 2
 121.85 526 l 2
 107.85 526 98.85 535 100.85 549 c 2
EndSplineSet
EndChar

StartChar: Lcaron
Encoding: 299 317 214
Width: 531
VWidth: 0
Flags: HW
LayerCount: 2
Fore
SplineSet
88.5 136.5 m 2
 184.05 732 l 1
 299.4 732 l 1
 208.35 161 l 2
 200.35 108 234 109 263 109 c 2
 534 109 l 1
 517.05 0 l 1
 213.25 0 l 2
 137.845 0 72.45 35.85 88.5 136.5 c 2
349.05 571 m 1
 359.05 705 l 1
 369.7 772 l 1
 457.7 772 l 1
 447.05 705 l 1
 416.05 571 l 1
 349.05 571 l 1
EndSplineSet
Substitution2: "'c2sc' Capitals to Small Capitals in Latin lookup 17 subtable" lcaron.smcp
EndChar

StartChar: lcaron
Encoding: 308 318 223
Width: 340
VWidth: 0
Flags: HW
LayerCount: 2
Fore
SplineSet
79.55 189 m 2
 173.55 783 l 1
 289.55 783 l 1
 197.65 203 l 2
 183.4 114.5 199.65 105.05 232 95 c 2
 232 95 293.75 75.95 296.85 75.95 c 1
 284.7 0 l 1
 199.2 0 l 2
 112 0 57.55 48.65 79.55 189 c 2
337.55 580.35 m 1
 347.55 714.35 l 1
 358.55 781.35 l 1
 446.55 781.35 l 1
 435.55 714.35 l 1
 404.55 580.35 l 1
 337.55 580.35 l 1
EndSplineSet
Substitution2: "'smcp' Lowercase to Small Capitals lookup 16-1" lcaron.smcp
EndChar

StartChar: tcaron
Encoding: 312 357 227
Width: 400
VWidth: 0
Flags: HW
LayerCount: 2
Fore
SplineSet
67.5 437 m 1
 78.6 507 l 1
 173.25 532 l 1
 218.1 680 l 1
 312.6 680 l 1
 289.25 532 l 1
 421.15 532 l 1
 406 437 l 1
 274.1 437 l 1
 237.35 204 l 2
 223.75 114.8 238.35 105.35 270.7 95.3 c 2
 270.7 95.3 332.45 76.25 335.55 76.25 c 1
 324.05 0.3 l 1
 237.85 0.3 l 2
 155.9 0.3 97.25 49.65 119.25 190 c 2
 158.1 437 l 1
 67.5 437 l 1
364.4 599.35 m 1
 375.7 733.35 l 1
 385.4 800.35 l 1
 474.05 800.35 l 1
 463.7 733.35 l 1
 431.4 599.35 l 1
 364.4 599.35 l 1
EndSplineSet
AlternateSubs2: "'salt' Access All Alternates in Latin lookup 4-1" tcaron.salt
Substitution2: "'smcp' Lowercase to Small Capitals lookup 16-1" tcaron.smcp
EndChar

StartChar: dcaron
Encoding: 338 271 253
Width: 695
VWidth: 0
Flags: HW
LayerCount: 2
Fore
SplineSet
82 270.35 m 0
 107.8 431.6 151.4 539 299.95 539 c 3
 344.95 539 417.35 526.05 467.9 502.5 c 1
 513.2 785 l 1
 627.9 785 l 1
 503.25 0 l 1
 410.7 0 l 1
 396.5 55.5 l 17
 362.25 31.6 285.95 -6 221.1 -6 c 3
 88.45 -6 57.8 120.7 82 270.35 c 0
198.7 266.5 m 0
 179.1 147.75 200.2 97.05 253.9 97.05 c 3
 316.1 97.05 367.75 114.4 409.35 134.65 c 1
 454.4 420.1 l 1
 408.7 435.65 366.35 442.25 307.55 442.25 c 1
 258.75 442.25 222.55 412 198.7 266.5 c 0
672.9 579.7 m 1
 683.55 713.7 l 1
 693.55 780.7 l 1
 782.2 780.7 l 1
 771.55 713.7 l 1
 739.9 579.7 l 1
 672.9 579.7 l 1
EndSplineSet
AlternateSubs2: "'salt' Access All Alternates in Latin lookup 4-1" dcaron.salt
Substitution2: "'smcp' Lowercase to Small Capitals lookup 16-1" dcaron.smcp
EndChar

StartChar: Lslash
Encoding: 346 321 261
Width: 532
VWidth: 0
Flags: HW
LayerCount: 2
Fore
SplineSet
34.9 310.55 m 1
 45.95 378.55 l 1
 132.1 412.8 l 1
 182.45 732 l 1
 297.8 732 l 1
 255.25 462.65 l 1
 385.7 514.95 l 1
 374 447.6 l 1
 244.85 395.3 l 1
 207.4 161 l 2
 199.4 108 232.4 109 261.4 109 c 2
 533.05 109 l 1
 515.8 0 l 1
 212.65 0 l 2
 137.245 0 71.5 35.85 87.55 136.5 c 2
 121.05 345.45 l 1
 34.9 310.55 l 1
EndSplineSet
Substitution2: "'c2sc' Capitals to Small Capitals in Latin lookup 17 subtable" lslash.smcp
EndChar

StartChar: uni00AD
Encoding: 173 173 262
Width: 354
VWidth: 0
Flags: HW
LayerCount: 2
Fore
SplineSet
57.55 239 m 1
 73.75 341 l 1
 387.75 341 l 1
 371.55 239 l 1
 57.55 239 l 1
EndSplineSet
Substitution2: "'case' Case-Sensitive Forms lookup 1-1" uni00AD.alt
Substitution2: "'c2sc' Capitals to Small Capitals in Latin lookup 17 subtable" uni00AD.smcp
Substitution2: "'smcp' Lowercase to Small Capitals lookup 16-1" uni00AD.smcp
EndChar

StartChar: lslash
Encoding: 347 322 263
Width: 351
VWidth: 0
Flags: HW
LayerCount: 2
Fore
SplineSet
71.65 357.1 m 1
 82.7 425.1 l 1
 162.25 457.05 l 1
 214.3 783 l 1
 332.25 783 l 1
 288.35 507.85 l 1
 422.45 561.5 l 1
 410.75 494.15 l 1
 277.95 439.85 l 1
 237.75 203 l 2
 222.85 114.5 239.75 105.05 272.1 95 c 1
 272.1 95 333.85 75.95 336.95 75.95 c 1
 325.45 0 l 1
 243.45 0 l 2
 156.25 0 97.65 48.65 119.65 189 c 2
 151.55 389.7 l 1
 71.65 357.1 l 1
EndSplineSet
Substitution2: "'smcp' Lowercase to Small Capitals lookup 16-1" lslash.smcp
EndChar

StartChar: dcroat
Encoding: 349 273 265
Width: 553
VWidth: 0
Flags: HW
LayerCount: 2
Fore
SplineSet
82 271.05 m 0
 107.8 432.3 151.4 539 299.95 539 c 0
 344.95 539 417.35 526.05 467.9 502.5 c 1
 484.5 609 l 1
 372.3 609 l 1
 382.35 670 l 1
 494.55 670 l 1
 513.2 785 l 1
 627.9 785 l 1
 609.9 670 l 1
 677.35 670 l 1
 667.3 609 l 1
 599.85 609 l 1
 503.25 0 l 1
 410.7 0 l 1
 396.5 55.5 l 1
 362.25 31.6 285.95 -6 221.1 -6 c 0
 88.45 -6 57.8 121.4 82 271.05 c 0
198.7 266.5 m 0
 179.1 147.75 200.2 97.05 253.9 97.05 c 0
 316.1 97.05 367.75 114.4 409.35 134.65 c 1
 454.4 420.1 l 1
 408.7 435.65 366.35 442.25 307.55 442.25 c 0
 258.75 442.25 222.55 412 198.7 266.5 c 0
EndSplineSet
AlternateSubs2: "'salt' Access All Alternates in Latin lookup 4-1" dcroat.salt
Substitution2: "'smcp' Lowercase to Small Capitals lookup 16-1" dcroat.smcp
EndChar

StartChar: questiondown
Encoding: 191 191 266
Width: 539
VWidth: 0
Flags: HW
LayerCount: 2
Fore
SplineSet
20.75 -69.25 m 2
 33.95 14.25 l 2
 56.9 160.3 150.7 196.8 294.25 181.05 c 1
 294.25 183 309.85 271.15 309.2 275.05 c 1
 408.7 275.05 l 1
 379.55 92.05 l 1
 341.85 92.7 292.75 93.35 255.05 92.05 c 0
 206.05 90.05 158.9 67.25 148.95 5.15 c 2
 137.5 -65.75 l 2
 126.6 -135.75 155.9 -161.55 242.15 -161.55 c 2
 499.15 -161.55 l 2
 485.9 -245.45 l 1
 386.8 -261.95 313.55 -273.95 199.55 -268.95 c 1
 59.25 -268.95 4.75 -167.25 20.75 -69.25 c 2
315.4 369.05 m 2
 327.55 447.05 l 2
 329.9 463.1 340.6 470.05 354.6 470.05 c 2
 429.9 470.05 l 2
 443.9 470.05 452.55 461.05 450.55 447.05 c 2
 438.4 369.05 l 2
 436.4 354.05 426.4 344.05 410.4 344.05 c 2
 335.1 344.05 l 2
 319.05 344.05 313.05 354.35 315.4 369.05 c 2
EndSplineSet
Substitution2: "'case' Case-Sensitive Forms lookup 1-1" questiondown.alt
Substitution2: "'smcp' Lowercase to Small Capitals lookup 16-1" questiondown.smcp
EndChar

StartChar: at.alt
Encoding: 350 -1 267
Width: 793
VWidth: 0
Flags: HW
LayerCount: 2
Fore
SplineSet
69.7 102.5 m 2
 147.9 597 l 2
 168.15 722.25 240.8 789 384.75 789 c 2
 752.75 789 l 2
 884.4 789 925.15 702.3 906.4 576 c 2
 856.2 239.5 l 2
 846.05 170.45 816.15 79 672.15 79 c 2
 593.65 79 l 1
 570.3 135.5 l 1
 544.9 105.35 501.65 71.95 428.65 72 c 0
 312.75 72.1 245.1 147.45 276.65 356.95 c 0
 310.65 578.3 417.65 620.7 502.15 620.7 c 0
 589.6 620.7 677.8 605.25 728.8 556.25 c 1
 674 177.5 l 1
 722 177.5 747.85 186.5 760.5 267.5 c 2
 807.55 583 l 2
 822.5 685.05 784.25 689.5 733.4 689.5 c 2
 365.4 689.5 l 2
 270.4 689.5 252.45 623.1 246.05 583 c 2
 168.9 95.5 l 2
 159.9 38.5 168.95 -11.5 254.95 -11.5 c 2
 640.95 -11.5 l 1
 629.1 -83 l 1
 579.1 -93 463.1 -110 337.1 -110 c 2
 242.6 -110 l 2
 100.45 -110 52 -10.8 69.7 102.5 c 2
373.2 337 m 0
 358.7 225.25 367.8 170.1 443 170.5 c 0
 498 170.55 537.55 185.7 581.2 234 c 1
 624.5 511.05 l 1
 575.35 522.85 535.7 523.2 500 523.2 c 0
 446.25 523.2 393.4 490.85 373.2 337 c 0
EndSplineSet
EndChar

StartChar: questiondown.alt
Encoding: 351 -1 268
Width: 539
VWidth: 0
Flags: HW
LayerCount: 2
Fore
SplineSet
61.75 197.9 m 2
 74.95 281.4 l 2
 96.6 420.3 191.7 463.6 335.25 447.85 c 1
 335.25 449.8 350.85 537.95 350.2 541.85 c 1
 449.7 541.85 l 1
 420.55 358.85 l 1
 382.85 359.5 333.75 360.15 296.05 358.85 c 0
 247.05 356.85 199.9 334.05 189.95 271.95 c 2
 178.5 201.05 l 2
 168.25 137.55 196.9 105.25 283.15 105.25 c 2
 540.15 105.25 l 2
 526.9 21.35 l 1
 427.8 4.85 354.55 -7.15 240.55 -2.15 c 1
 100.25 -2.15 45.75 99.9 61.75 197.9 c 2
356.4 635.85 m 2
 368.55 713.85 l 2
 370.9 729.9 381.6 736.85 395.6 736.85 c 2
 470.9 736.85 l 2
 484.9 736.85 493.55 727.85 491.55 713.85 c 2
 479.4 635.85 l 2
 477.4 620.85 467.4 610.85 451.4 610.85 c 2
 376.1 610.85 l 2
 360.05 610.85 354.05 621.15 356.4 635.85 c 2
EndSplineSet
EndChar

StartChar: oe
Encoding: 352 339 269
Width: 893
VWidth: 0
Flags: HW
LayerCount: 2
Fore
SplineSet
74.7 268.7 m 0
 108.7 485.7 178.5 537.05 356 537.05 c 0
 437.05 537.05 491.15 515.7 520.9 472.35 c 1
 558.6 517.05 616.8 540.65 714.85 541 c 0
 833.5 541.35 927.5 507.85 916.7 388 c 0
 896.75 154.3 592 199.75 555 214.75 c 1
 538.9 118.05 558.25 90.25 629.25 90.25 c 0
 694.75 90.25 790.1 95.35 857.95 106 c 1
 844.35 22 l 1
 762.8 -1.7 678.05 -11.2 577.2 -7 c 0
 523.45 -5.95 488.35 12.8 468 49.9 c 1
 426.65 10.1 367.4 -5 279.1 -5 c 0
 101.85 -5 44.7 78.7 74.7 268.7 c 0
190.7 258 m 0
 165.9 109.45 203 93.5 287.8 93.5 c 0
 375.3 93.5 411.4 105.4 437.2 258 c 0
 462.35 409.4 438.4 438.55 342.75 438.55 c 0
 249.3 438.55 217.15 417.5 190.7 258 c 0
565.1 293.25 m 1
 565.1 293.25 779.45 263.65 798.6 375.75 c 0
 808.5 433.1 775 442.85 707 442.5 c 0
 588.95 441.8 579.9 368.15 565.1 293.25 c 1
EndSplineSet
Substitution2: "'smcp' Lowercase to Small Capitals lookup 16-1" oe.smcp
EndChar

StartChar: OE
Encoding: 353 338 270
Width: 1051
VWidth: 0
Flags: HW
LayerCount: 2
Fore
SplineSet
93.15 369.75 m 0
 147.15 712.75 263.75 737 436.3 737 c 0
 521.1 737 590.45 725.1 632.5 671.45 c 1
 662.45 723.5 711.5 735 767.3 732 c 2
 767.3 732 1037.9 721.6 1078.15 716 c 1
 1063.2 621.25 l 1
 770.7 621.25 l 2
 721.3 621.25 713.7 592.25 709.7 565.25 c 2
 687.45 421.25 l 1
 986.1 410.9 l 1
 971.5 316.2 l 1
 669.2 306.55 l 1
 645.6 159.75 l 2
 637.9 106.75 670.9 107.75 699.9 107.75 c 2
 982.4 107.75 l 1
 967.15 14 l 1
 930.05 9.1 661.3 -3 661.3 -3 c 2
 616.6 -5.65 566.95 10.1 544.9 52.65 c 1
 488.9 4.85 417.7 -4 331.65 -4 c 0
 163.35 -4 40.15 36.75 93.15 369.75 c 0
209.15 361 m 0
 174.1 140.4 210.6 105 342.4 105 c 0
 464.8 105 523.05 144.9 557.15 361 c 0
 597.15 614.85 538 628 425.55 628 c 0
 308.3 628 249.5 618 209.15 361 c 0
EndSplineSet
EndChar

StartChar: guillemotright
Encoding: 187 187 272
Width: 567
VWidth: 0
Flags: HW
LayerCount: 2
Fore
SplineSet
75.75 215.4 m 1
 243.7 360.2 l 1
 125.65 496.7 l 1
 196.45 557 l 1
 372.7 350.75 l 1
 136.1 146 l 1
 75.75 215.4 l 1
284.45 215.4 m 1
 452.4 360.2 l 1
 334 496.7 l 1
 404.8 557 l 1
 581.4 350.75 l 1
 344.8 146 l 1
 284.45 215.4 l 1
EndSplineSet
EndChar

StartChar: cent
Encoding: 162 162 273
Width: 486
VWidth: 0
Flags: HW
LayerCount: 2
Fore
SplineSet
74.4 276.5 m 0
 115.2 517.65 195.25 540.55 301.8 537.3 c 1
 317.8 634 l 1
 394.6 634 l 1
 377.95 533.35 l 1
 425.55 528.05 481.1 519.05 526.2 506.5 c 1
 514.05 431.5 l 1
 514.05 431.5 403.7 438.8 314.7 438.8 c 0
 252.55 438.8 220.15 434.3 189.4 262.7 c 0
 165.2 123.15 191.95 92.2 259.4 92.2 c 0
 351.4 92.2 468.75 102.15 468.75 102.15 c 1
 456.6 25.85 l 1
 399.1 3.6 346.25 -3.4 291.2 -5.35 c 1
 277.85 -95.65 l 1
 201.05 -95.65 l 1
 214.75 -5.65 l 1
 110.6 -4.3 39.8 71.5 74.4 276.5 c 0
EndSplineSet
EndChar

StartChar: sterling
Encoding: 163 163 274
Width: 587
VWidth: 0
Flags: HW
LayerCount: 2
Fore
SplineSet
42.3 0 m 1
 56.55 90.5 l 1
 128.4 109 l 1
 161.4 319.5 l 1
 92.9 319.5 l 1
 102.7 382 l 1
 174.55 402.5 l 1
 190.45 501.5 l 2
 225.8 724.6 330.7 732 472.3 732 c 3
 529.3 732 658.3 716 658.3 716 c 1
 644.05 624 l 1
 458.1 624 l 2
 352.65 624 322.9 606.6 305.75 498.7 c 2
 290.55 402.5 l 1
 527.05 385.5 l 1
 516.9 319.5 l 1
 277.4 319.5 l 1
 244.4 109 l 1
 561.9 109 l 1
 544.3 0 l 1
 42.3 0 l 1
EndSplineSet
Substitution2: "'smcp' Lowercase to Small Capitals lookup 16-1" sterling.smcp
EndChar

StartChar: yen
Encoding: 165 165 275
Width: 622
VWidth: 0
Flags: HW
LayerCount: 2
Fore
SplineSet
114.4 144.25 m 1
 125.85 217.25 l 1
 273.35 217.25 l 1
 279.3 258.5 l 1
 132.45 258.5 l 1
 144.55 331.5 l 1
 266.45 331.5 l 1
 132.5 732 l 1
 257.05 732 l 1
 356 402.15 l 1
 581.8 732 l 1
 720.5 732 l 1
 430.45 331.5 l 1
 571.55 331.5 l 1
 559.45 258.5 l 1
 395.3 258.5 l 1
 389.35 217.25 l 1
 552.85 217.25 l 1
 541.4 144.25 l 1
 379.2 144.25 l 1
 359.2 0 l 1
 243.2 0 l 1
 263.2 144.25 l 1
 114.4 144.25 l 1
EndSplineSet
Substitution2: "'smcp' Lowercase to Small Capitals lookup 16-1" yen.smcp
EndChar

StartChar: section
Encoding: 167 167 276
Width: 544
VWidth: 0
Flags: HW
LayerCount: 2
Fore
SplineSet
84.6 11 m 1
 97.8 94 l 1
 345.6 94 l 2
 375.4 94 397 98.35 402.6 129.95 c 2
 410.45 181.6 l 2
 415.7 213.8 402.55 219.5 369.2 219.5 c 2
 228.75 219.5 l 2
 145 219.5 86.5 260 100.85 349.5 c 2
 108.05 394 l 2
 115 437.7 125.85 478.1 179.65 494 c 1
 134.75 521.2 134.3 563.4 139.95 597 c 2
 148.15 653 l 2
 162.1 749.05 222.75 784 306.6 784 c 3
 372.75 784 535 773.55 581.1 765 c 1
 568.55 682 l 1
 315.55 682 l 2
 286.1 682 268.7 672 263.45 641.1 c 2
 255.95 593.5 l 2
 251.7 565.65 269.55 554.2 295.55 554.2 c 2
 438.85 554.2 l 2
 533.65 554.2 577.6 503.05 565.55 424.4 c 2
 558.35 379.9 l 2
 553.65 348.05 541.2 294.1 490.4 282.5 c 1
 534.15 269.9 532.15 216 527.15 183 c 2
 517.9 120.5 l 2
 500.15 9.65 447.45 -8 358.1 -8 c 3
 287.4 -8 128.25 2.1 84.6 11 c 1
219 361.4 m 2
 212.7 322 229.3 318 261.05 318 c 2
 380.9 318 l 2
 430.1 318 434.85 334.4 438.85 362.4 c 2
 439.85 363.4 446.4 409 446.4 409 c 2
 451.35 438.75 452 456 403 456 c 2
 283.15 456 l 2
 242.6 456 232.8 445.85 226.55 407 c 2
 219 361.4 l 2
EndSplineSet
EndChar

StartChar: g.salt
Encoding: 355 -1 277
Width: 517
VWidth: 0
Flags: HW
LayerCount: 2
Fore
SplineSet
15.85 -109 m 0
 59.45 114 l 0
 64.45 150 86.45 200 136.45 200 c 1
 88.75 230.8 83.45 301.5 91.45 354.5 c 0
 112.5 490.1 195 535 297.45 533 c 2
 398.95 531 l 2
 466.95 530.65 559.15 488.85 536.95 333.5 c 0
 526.25 256.5 475.95 148 333.95 148 c 2
 221.95 148 l 2
 205.95 148 181.3 153 176.3 126.25 c 0
 171.95 103.05 192.35 96.85 213 93.5 c 2
 369.7 69.55 l 2
 437.35 58.1 505.75 10 491.35 -79.5 c 2
 484.95 -119.5 l 2
 472.9 -196.15 447.45 -270 300.45 -270 c 2
 171.95 -270 l 2
 50.35 -270 -3.15 -205 15.85 -109 c 0
133.2 -105.5 m 2
 121.4 -163.95 155.45 -169.8 191.45 -169.8 c 2
 302.95 -169.8 l 2
 349.7 -169.8 364.75 -145.85 370.35 -109 c 2
 373.95 -86.95 l 2
 379.9 -46.6 357.7 -30.95 315.8 -24 c 2
 154.85 0 l 1
 133.2 -105.5 l 2
207.45 344 m 0
 199.45 295 203.3 244 265.95 244 c 2
 335.45 244 l 2
 395.05 244 415.3 307.4 420.95 344 c 0
 429.95 399 424.4 438 365.8 438 c 2
 296.3 438 l 2
 232.5 438 216.45 396 207.45 344 c 0
EndSplineSet
EndChar

StartChar: guillemotleft
Encoding: 171 171 278
Width: 570
VWidth: 0
Flags: HW
LayerCount: 2
Fore
SplineSet
98.3 354 m 1
 336.3 557 l 1
 394.9 488.65 l 1
 228 345.95 l 1
 349.55 203.85 l 1
 276.3 146 l 1
 98.3 354 l 1
304.4 354 m 1
 542.4 557 l 1
 601 488.65 l 1
 434.1 345.95 l 1
 555.65 203.85 l 1
 482.4 146 l 1
 304.4 354 l 1
EndSplineSet
EndChar

StartChar: paragraph
Encoding: 182 182 279
Width: 578
VWidth: 0
Flags: HW
LayerCount: 2
Fore
SplineSet
112.05 506.7 m 2
 126.05 599.7 l 2
 143 707.05 222.4 732 305.35 732 c 2
 677.35 732 l 1
 662.55 638.5 l 1
 604.05 638.5 l 1
 502.85 0 l 1
 411.35 0 l 1
 512.9 640.5 l 1
 436.4 640.5 l 1
 292.2 -270 l 1
 200.7 -270 l 1
 302.35 372 l 1
 296.35 370 271.95 355 243.1 355 c 3
 132.35 355 101.35 439.1 112.05 506.7 c 2
205.25 507.3 m 2
 196 448.15 235.65 446.5 261.05 446.5 c 10
 313.5 446.5 l 25
 344.9 642.45 l 25
 294.4 642.45 l 2
 238.15 642.45 222.8 620.15 216.45 578.8 c 10
 205.25 507.3 l 2
EndSplineSet
EndChar

StartChar: macron
Encoding: 175 175 280
Width: 376
VWidth: 0
Flags: W
HStem: 531 73.5<138.05 418.3>
VStem: 126.3 303.75
LayerCount: 2
Fore
SplineSet
126.3 531 m 1
 138.05 604.5 l 1
 430.05 604.5 l 1
 418.3 531 l 1
 126.3 531 l 1
EndSplineSet
Substitution2: "'smcp' Lowercase to Small Capitals lookup 16-1" macron.smcp
EndChar

StartChar: copyright
Encoding: 169 169 281
Width: 800
VWidth: 0
Flags: HW
LayerCount: 2
Fore
SplineSet
102.3 375 m 0
 130.7 558.95 199.15 732 404.1 732 c 2
 643.1 732 l 2
 838.95 732 838.7 513.35 813.8 357.5 c 0
 779.3 141.4 686.35 0 535.35 0 c 2
 296.35 0 l 2
 104 0 79.65 228.1 102.3 375 c 0
183.8 368 m 0
 160.1 219.4 188.2 78 302.2 78 c 2
 541.6 78 l 2
 623.8 78 700.3 164 732.3 368 c 0
 751.3 488 768.85 654 637.85 654 c 2
 392.35 654 l 2
 304 654 220.4 600.55 183.8 368 c 0
281.8 370.95 m 0
 309.75 542.35 375.65 583 459.8 583 c 3
 500.8 583 582.95 573.2 637.3 559 c 1
 627.2 493 l 1
 565.2 502 494.7 505 461.7 505 c 3
 407.7 505 378.6 463.5 362.3 362 c 0
 349.3 278 359 225 419.7 225 c 27
 487.15 225 555.65 234.95 593.4 241 c 1
 583.3 175 l 17
 520.15 153.5 460.95 147 393.95 147 c 3
 314.95 147 255.75 208.9 281.8 370.95 c 0
EndSplineSet
EndChar

StartChar: registered
Encoding: 174 174 282
Width: 800
VWidth: 0
Flags: HW
LayerCount: 2
Fore
SplineSet
102.3 375 m 0
 130.7 558.95 199.15 732 404.1 732 c 2
 643.1 732 l 2
 838.95 732 838.7 513.35 813.8 357.5 c 0
 779.3 141.4 686.35 0 535.35 0 c 2
 296.35 0 l 2
 104 0 79.65 228.1 102.3 375 c 0
183.8 368 m 0
 160.1 219.4 188.2 78 302.2 78 c 2
 541.6 78 l 2
 623.8 78 700.3 164 732.3 368 c 0
 751.3 488 768.85 654 637.85 654 c 2
 392.35 654 l 2
 304 654 220.4 600.55 183.8 368 c 0
273.95 153 m 1
 341.95 580 l 1
 522.45 580 l 2
 579.35 580 649.85 554.95 635.1 444.6 c 0
 621.8 336.4 569.5 327.65 529.95 317.5 c 1
 592.2 153 l 1
 503.05 153 l 1
 442.9 316 l 1
 383.4 328 l 1
 355.45 153 l 1
 273.95 153 l 1
392.5 386 m 1
 483.5 386 l 2
 535.5 386 545.65 395.85 553.6 447.5 c 0
 561.85 499.65 534.65 502 502 502 c 2
 411 502 l 1
 392.5 386 l 1
EndSplineSet
EndChar

StartChar: plusminus
Encoding: 177 177 283
Width: 509
VWidth: 0
Flags: HW
LayerCount: 2
Fore
SplineSet
59.2 76.5 m 1
 75.4 178.5 l 1
 491.4 178.5 l 1
 475.2 76.5 l 1
 59.2 76.5 l 1
108.6 383.5 m 1
 124.15 485.5 l 1
 280.15 485.5 l 1
 305.05 642.5 l 1
 407.05 642.5 l 1
 382.15 485.5 l 1
 540.15 485.5 l 1
 524.6 383.5 l 1
 366.6 383.5 l 1
 341.05 226.5 l 1
 239.05 226.5 l 1
 264.6 383.5 l 1
 108.6 383.5 l 1
EndSplineSet
EndChar

StartChar: logicalnot
Encoding: 172 172 284
Width: 505
VWidth: 0
Flags: HW
LayerCount: 2
Fore
SplineSet
77.75 245.5 m 1
 93.6 344 l 1
 520.6 344 l 1
 511.6 287 500.15 216 491.15 159 c 1
 392.65 159 l 1
 406.25 245.5 l 1
 77.75 245.5 l 1
EndSplineSet
EndChar

StartChar: guilsinglleft
Encoding: 356 8249 285
Width: 292
VWidth: 0
Flags: HW
LayerCount: 2
Fore
SplineSet
26.45 354 m 1
 264.45 557 l 1
 323.05 488.65 l 1
 159.65 349.45 l 1
 277.7 210.85 l 1
 204.45 146 l 1
 26.45 354 l 1
EndSplineSet
EndChar

StartChar: guilsinglright
Encoding: 357 8250 286
Width: 358
VWidth: 0
Flags: HW
LayerCount: 2
Fore
SplineSet
98.3 215.4 m 1
 262.05 355.3 l 1
 144.7 493.2 l 1
 219 557 l 1
 395.25 350.75 l 1
 155.5 146 l 1
 98.3 215.4 l 1
EndSplineSet
EndChar

StartChar: perthousand
Encoding: 358 8240 287
Width: 1340
VWidth: 0
Flags: HW
LayerCount: 2
Fore
SplineSet
78.1 482.75 m 2
 98.05 608.75 l 2
 111.05 692.45 143.4 732 250.9 732 c 2
 351.9 732 l 2
 442.1 732 475.7 687.15 462.05 598.25 c 2
 442.1 472.25 l 18
 427.8 382.05 392.85 349 289.9 349 c 2
 188.9 349 l 2
 105.85 349 65.1 398.4 78.1 482.75 c 2
165.85 488 m 2
 159.6 448.45 168.7 435 210.8 435 c 2
 294.3 435 l 2
 341.95 435 351.6 449.1 357.85 488 c 10
 374.3 593 l 2
 381.25 636.4 374.8 646 329.65 646 c 2
 246.15 646 l 2
 200.75 646 188.6 634.15 182.3 593 c 2
 165.85 488 l 2
181.45 0 m 1
 741.05 732 l 1
 830.6 732 l 1
 273.45 0 l 1
 181.45 0 l 1
553.45 134.8 m 2
 573.4 260.8 l 2
 586.4 344.5 618.4 384.05 725.9 384.05 c 2
 827.25 384.05 l 2
 917.45 384.05 951.05 339.2 937.4 250.3 c 2
 917.45 124.3 l 18
 903.15 34.1 867.55 1.05 764.6 1.05 c 2
 663.25 1.05 l 2
 580.2 1.05 540.45 50.45 553.45 134.8 c 2
641.2 140.05 m 2
 634.95 100.5 643.75 87.05 685.85 87.05 c 2
 769 87.05 l 2
 816.65 87.05 826.95 101.15 833.2 140.05 c 10
 849.65 245.05 l 2
 856.6 288.45 849.5 298.05 804.35 298.05 c 2
 721.2 298.05 l 2
 675.8 298.05 663.95 286.2 657.65 245.05 c 2
 641.2 140.05 l 2
972.55 134.8 m 2
 992.5 260.8 l 2
 1005.5 344.5 1037.85 384.05 1145.35 384.05 c 2
 1246.35 384.05 l 2
 1336.55 384.05 1370.15 339.2 1356.5 250.3 c 2
 1336.55 124.3 l 18
 1322.25 34.1 1286.65 1.05 1183.7 1.05 c 2
 1082.7 1.05 l 2
 999.65 1.05 959.55 50.45 972.55 134.8 c 2
1060.3 140.05 m 2
 1054.05 100.5 1062.85 87.05 1104.95 87.05 c 2
 1188.45 87.05 l 2
 1236.1 87.05 1246.05 101.15 1252.3 140.05 c 10
 1268.75 245.05 l 2
 1275.7 288.45 1268.95 298.05 1223.8 298.05 c 2
 1140.3 298.05 l 2
 1094.9 298.05 1083.05 286.2 1076.75 245.05 c 2
 1060.3 140.05 l 2
EndSplineSet
Substitution2: "'smcp' Lowercase to Small Capitals lookup 16-1" perthousand.smcp
EndChar

StartChar: dagger
Encoding: 359 8224 288
Width: 499
VWidth: 0
Flags: HW
LayerCount: 2
Fore
SplineSet
107.4 466.25 m 1
 121.65 556.75 l 1
 256.65 568.5 l 1
 298.65 770 l 1
 400.15 770 l 1
 377.65 568.5 l 1
 507.65 556.75 l 1
 493.4 466.25 l 1
 359.4 454.5 l 1
 265.15 -72 l 1
 163.65 -72 l 1
 238.4 454.5 l 1
 107.4 466.25 l 1
EndSplineSet
EndChar

StartChar: daggerdbl
Encoding: 360 8225 289
Width: 469
VWidth: 0
Flags: HW
LayerCount: 2
Fore
SplineSet
90.35 156.5 m 1
 104.6 247 l 1
 241.65 260.15 l 1
 270.3 454.5 l 1
 139.65 466.25 l 1
 153.55 556.75 l 1
 288.9 568.5 l 1
 330.55 770 l 1
 431.4 770 l 1
 409.9 568.5 l 1
 539.55 556.75 l 1
 525.65 466.25 l 1
 391.3 454.5 l 1
 357.6 259.8 l 1
 490.6 247 l 1
 476.35 156.5 l 1
 335.6 144.05 l 1
 297.4 -72 l 1
 195.9 -72 l 1
 225.75 143.35 l 1
 90.35 156.5 l 1
EndSplineSet
EndChar

StartChar: trademark
Encoding: 361 8482 290
Width: 631
VWidth: 0
Flags: HW
LayerCount: 2
Fore
SplineSet
41.05 657.5 m 1
 52.8 732 l 1
 325.8 732 l 1
 314.05 657.5 l 1
 218.8 657.5 l 1
 175.55 383 l 1
 94.05 383 l 1
 137.3 657.5 l 1
 41.05 657.5 l 1
295.8 383 m 1
 384.8 732 l 1
 464.85 732 l 1
 502.25 516.2 l 1
 597.2 732 l 1
 685.8 732 l 1
 668.8 383 l 1
 587.3 383 l 1
 599.5 573.8 l 1
 521.15 383 l 1
 450.65 383 l 1
 422.2 573.75 l 1
 377.3 383 l 1
 295.8 383 l 1
EndSplineSet
EndChar

StartChar: notequal
Encoding: 362 8800 291
Width: 532
VWidth: 0
Flags: HW
LayerCount: 2
Fore
SplineSet
120.45 194.5 m 1
 137.3 299.75 l 1
 286.4 299.75 l 1
 365.6 403.75 l 1
 153.5 403.75 l 1
 170.35 509 l 1
 443.45 509 l 1
 496.2 578.05 l 1
 564.2 578.05 l 1
 511.45 509 l 1
 597.35 509 l 1
 580.5 403.75 l 1
 433.6 403.75 l 1
 354.4 299.75 l 1
 564.3 299.75 l 1
 547.45 194.5 l 1
 275.55 194.5 l 1
 215.15 114.45 l 1
 147.15 114.45 l 1
 207.55 194.5 l 1
 120.45 194.5 l 1
EndSplineSet
EndChar

StartChar: infinity
Encoding: 363 8734 292
Width: 673
VWidth: 0
Flags: HW
LayerCount: 2
Fore
SplineSet
49.1 348 m 0
 58.55 440.2 110.6 514 248.6 514 c 3
 318.1 514 369.95 474 401.75 415.3 c 1
 449.1 476.1 513.6 514 589.6 514 c 3
 722.4 514 745.85 421.65 735.1 334 c 0
 723.35 238.1 667.45 169 534.6 169 c 3
 470.95 169 414.2 192 377.3 269.3 c 1
 332.25 203.7 278 169 193.6 169 c 3
 71.8 169 39.95 263.8 49.1 348 c 0
143.75 341 m 0
 138.45 298.7 148.95 260.15 212.95 260.15 c 3
 269.7 260.15 305.8 300.75 339.45 341 c 1
 319.65 382.25 284.25 422.85 238.7 422.85 c 3
 166.75 422.85 149.05 385.9 143.75 341 c 0
443 340.65 m 1
 463.45 300.4 487.4 260.15 544.15 260.15 c 3
 606.8 260.15 633.2 295.45 640.45 341 c 0
 647.7 386.55 641.5 422.85 569.9 422.85 c 3
 520.85 422.85 476 381.9 443 340.65 c 1
EndSplineSet
EndChar

StartChar: lessequal
Encoding: 364 8804 293
Width: 538
VWidth: 0
Flags: HW
LayerCount: 2
Fore
SplineSet
92.3 89.65 m 1
 107.45 184.65 l 1
 482.75 184.65 l 1
 467.6 89.65 l 1
 92.3 89.65 l 1
138.6 385 m 1
 156.5 496.5 l 1
 554.35 640.3 l 1
 536.45 528.8 l 1
 269.8 435.35 l 1
 507.3 338.15 l 1
 489.4 231.3 l 1
 138.6 385 l 1
EndSplineSet
EndChar

StartChar: greaterequal
Encoding: 365 8805 294
Width: 436
VWidth: 0
Flags: HW
LayerCount: 2
Fore
SplineSet
55.85 89.65 m 1
 71 184.65 l 1
 446.65 184.65 l 1
 431.5 89.65 l 1
 55.85 89.65 l 1
77.3 228.7 m 1
 95.2 341.5 l 1
 367.45 441.3 l 1
 124.35 534.1 l 1
 142.25 637.7 l 1
 494.4 493.9 l 1
 476.5 382.4 l 1
 77.3 228.7 l 1
EndSplineSet
EndChar

StartChar: circumflex
Encoding: 366 710 295
Width: 322
VWidth: 0
Flags: HW
LayerCount: 2
Fore
SplineSet
55.85 531 m 1
 188.25 664.5 l 1
 280.25 664.5 l 1
 358.35 531 l 1
 277.25 531 l 1
 229.35 602.8 l 1
 150.55 531 l 1
 55.85 531 l 1
EndSplineSet
Substitution2: "'smcp' Lowercase to Small Capitals lookup 16-1" circumflex.smcp
EndChar

StartChar: tilde
Encoding: 367 732 296
Width: 429
VWidth: 0
Flags: HW
LayerCount: 2
Fore
SplineSet
126.3 581.1 m 17
 166.4 615.15 210.5 648.6 256.75 648.6 c 1
 304.65 646.65 324.55 614.9 356.75 614.25 c 1
 386.35 612.9 443.75 639.7 456.75 650.35 c 9
 471.4 597.15 l 17
 434 568.05 392.55 531 346.1 531.65 c 1
 294.65 532.3 278.35 566.65 241.3 566 c 1
 199.05 565.35 174.7 548.5 141.65 531 c 9
 126.3 581.1 l 17
EndSplineSet
Substitution2: "'smcp' Lowercase to Small Capitals lookup 16-1" tilde.smcp
EndChar

StartChar: ring
Encoding: 368 730 297
Width: 284
VWidth: 0
Flags: HW
LayerCount: 2
Fore
SplineSet
133.89 632 m 0
 138.881 689 188.198 733.95 244.198 733.95 c 0
 300.198 733.95 341.881 689 336.89 632 c 0
 331.899 575 283.99 530.7 227.99 530.7 c 0
 171.99 530.7 128.899 575 133.89 632 c 0
188.24 632 m 24
 185.834 605.85 205.619 585.35 231.769 585.35 c 27
 257.919 585.35 280.134 605.85 282.54 632 c 24
 284.947 658.15 266.218 679.65 240.068 679.65 c 27
 213.918 679.65 190.647 658.15 188.24 632 c 24
EndSplineSet
Substitution2: "'smcp' Lowercase to Small Capitals lookup 16-1" ring.smcp
EndChar

StartChar: ellipsis
Encoding: 369 8230 298
Width: 776
VWidth: 0
Flags: HW
LayerCount: 2
Fore
SplineSet
137.532 23 m 2
 150.014 101 l 2
 152.419 116 162.04 126 178.04 126 c 2
 252.04 126 l 2
 270.04 126 275.667 117 273.014 101 c 2
 260.532 23 l 2
 257.435 5 246.3 0 232.3 0 c 2
 158.3 0 l 2
 144.3 0 135.673 9 137.532 23 c 2
409.532 23 m 2
 422.014 101 l 2
 424.419 116 434.04 126 450.04 126 c 2
 524.04 126 l 2
 542.04 126 547.667 117 545.014 101 c 2
 532.532 23 l 2
 529.435 5 518.3 0 504.3 0 c 2
 430.3 0 l 2
 416.3 0 407.673 9 409.532 23 c 2
681.532 23 m 2
 694.014 101 l 2
 696.419 116 706.04 126 722.04 126 c 2
 796.04 126 l 2
 814.04 126 819.667 117 817.014 101 c 2
 804.532 23 l 2
 801.435 5 790.3 0 776.3 0 c 2
 702.3 0 l 2
 688.3 0 679.673 9 681.532 23 c 2
EndSplineSet
EndChar

StartChar: fraction
Encoding: 370 8260 299
Width: 289
VWidth: 0
Flags: HW
LayerCount: 2
Fore
SplineSet
-76.35 0 m 1
 395.994 745.3 l 1
 484.094 745.3 l 1
 11.75 0 l 1
 -76.35 0 l 1
EndSplineSet
EndChar

StartChar: dotlessi
Encoding: 371 305 300
Width: 214
VWidth: 0
Flags: HW
LayerCount: 2
Fore
SplineSet
46 0 m 1
 130 531 l 1
 246 531 l 1
 162 0 l 1
 46 0 l 1
EndSplineSet
EndChar

StartChar: fi
Encoding: 372 64257 301
Width: 591
VWidth: 0
Flags: HW
LayerCount: 2
Fore
SplineSet
50.9 436 m 1
 63.4 514 l 1
 155.6 531 l 1
 165.35 586.1 l 2
 185 711 272.55 784.6 405.25 786 c 1
 456.85 786.35 574.45 772.25 617.6 755.5 c 1
 606.1 684.8 l 1
 605.1 684.8 428.05 692.3 428.05 692.3 c 2
 372.85 694.9 294.15 675.15 277.85 572.1 c 2
 271.6 531 l 1
 621.55 521 l 1
 539.2 0 l 1
 422.55 0 l 1
 491.4 436 l 1
 255.15 436 l 1
 186.3 0 l 1
 70.3 0 l 1
 139.15 436 l 1
 50.9 436 l 1
EndSplineSet
Ligature2: "'liga' Standard Ligatures lookup 15-1" f i
EndChar

StartChar: fl
Encoding: 373 64258 302
Width: 690
VWidth: 0
Flags: HW
LayerCount: 2
Fore
SplineSet
85.35 436 m 1
 97.85 512.7 l 1
 191.35 531 l 1
 198.75 571.55 l 2
 225.15 738.35 312.55 784.7 429.95 784.7 c 1
 711.7 783.65 l 1
 619.8 203 l 2
 605.55 114.5 621.8 105.05 654.15 95 c 1
 654.15 95 715.9 75.95 719 75.95 c 1
 706.85 0 l 1
 624.85 0 l 2
 537.65 0 479.7 48.65 501.7 189 c 2
 581.2 690.65 l 1
 565.45 690.65 428.75 691 428.75 691 c 2
 366.4 691 327.2 663.85 312.65 568.05 c 2
 307.35 531 l 1
 448.9 531 l 1
 433.75 436 l 1
 291.55 436 l 1
 220.1 0 l 1
 104.1 0 l 1
 174.9 436 l 1
 85.35 436 l 1
EndSplineSet
Ligature2: "'liga' Standard Ligatures lookup 15-1" f l
EndChar

StartChar: exclamdown.alt
Encoding: 374 -1 303
Width: 316
VWidth: 0
Flags: HW
LayerCount: 2
Fore
SplineSet
85.35 -93.85 m 1
 180.6 438.55 l 1
 280.8 438.55 l 1
 208.3 -93.85 l 1
 85.35 -93.85 l 1
188.1 538.8 m 2
 199.6 614.15 l 2
 201.6 628.15 213.6 636.15 227.6 637.15 c 1
 299.35 637.15 l 1
 311.35 636.15 321.35 625.15 319.35 611.15 c 2
 307.85 538.8 l 1
 305.2 526.45 298.2 515.7 283.15 513.1 c 1
 206.15 513.1 l 1
 193.15 513.75 186.4 523.05 188.1 538.8 c 2
EndSplineSet
EndChar

StartChar: ampersand.salt
Encoding: 375 -1 304
Width: 966
VWidth: 0
Flags: HW
LayerCount: 2
Fore
SplineSet
85.85 314.35 m 2
 98.8 401.25 l 2
 122.5 561 209.9 575.8 363.15 576.5 c 1
 797.15 576.5 l 1
 836.05 710.1 l 1
 934.05 710.1 l 1
 913.15 575.8 l 1
 1040.15 575.8 l 1
 1027.3 496.2 l 1
 897.3 476.55 l 1
 854.3 196.45 l 2
 827.5 28 696.35 -0.7 571.3 -0.7 c 2
 409.9 -0.7 l 0
 315.95 -0.35 217.45 31.2 233.85 159.25 c 1
 140.25 159.25 69 206.95 85.85 314.35 c 2
201.5 310.5 m 2
 194.2 267.05 208.6 255.35 248.7 254.7 c 1
 268.05 376.1 341.1 420 457.35 420 c 2
 551.35 420 l 1
 621.5 420 707.85 400.2 691.4 282.55 c 1
 673 167.1 615.5 161.05 509.5 161.05 c 2
 350.55 161.05 l 1
 342.05 100.95 380.7 102.2 424.6 100.25 c 1
 586.85 100.25 l 2
 669.85 100.25 727.7 138.3 738.65 208 c 2
 780.95 476.2 l 1
 350.45 476.2 l 0
 256.05 474.9 226.4 465.8 214.8 394.25 c 2
 201.5 310.5 l 2
364.7 254 m 1
 522.95 254 l 2
 558.35 254 570.85 254.1 576.45 290.25 c 0
 581.05 321.15 575 326.4 534.8 326.4 c 2
 446.05 326.4 l 2
 402.1 326.4 375.9 321.2 364.7 254 c 1
EndSplineSet
EndChar

StartChar: a.superior
Encoding: 376 -1 305
Width: 402
VWidth: 0
Flags: HW
LayerCount: 2
Fore
SplineSet
109.7 562.8 m 0
 136.2 712.45 217.3 730.3 275.35 732.9 c 0
 328.55 735.5 430.6 721.9 465.3 688.9 c 1
 418 367.25 l 1
 354.35 367.25 l 1
 337.55 417.05 l 17
 318.6 392.1 269.5 362.25 210.65 362.25 c 3
 134.95 362.25 84.6 416.45 109.7 562.8 c 0
195.3 551.8 m 0
 184.1 476.65 190.15 442.5 232.9 442.5 c 3
 273.9 442.5 313.4 460.65 344 482.25 c 1
 369.75 649.25 l 1
 337.85 657.8 295.9 661.1 272.5 658.1 c 0
 246.65 654.75 208.15 642.15 195.3 551.8 c 0
EndSplineSet
EndChar

StartChar: b.superior
Encoding: 377 -1 306
Width: 418
VWidth: 0
Flags: HW
LayerCount: 2
Fore
SplineSet
105.35 373.1 m 1
 188.35 896.75 l 1
 279.4 896.75 l 1
 249.45 709 l 1
 292.4 727.25 338.2 736.55 371.5 736.55 c 3
 482 736.55 482.6 629.4 471.7 540.7 c 0
 459.15 436.65 414.1 369.1 313.15 369.1 c 3
 264.95 369.1 223.5 397.45 203.4 415.3 c 9
 174.75 373.1 l 1
 105.35 373.1 l 1
212.85 474.1 m 1
 239.95 461.5 259.2 450.7 304.9 450.7 c 3
 343.4 450.7 372.95 485.35 381 552.95 c 0
 392 645.65 375.85 659.5 338 659.5 c 1
 294.35 659.5 277.9 654.55 240 644.6 c 1
 212.85 474.1 l 1
EndSplineSet
Ligature2: "'ordn' Ordinals lookup 21-1" b
EndChar

StartChar: c.superior
Encoding: 378 -1 307
Width: 361
VWidth: 0
Flags: HW
LayerCount: 2
Fore
SplineSet
121.55 557.1 m 0
 146.8 713.95 204.15 731.4 278.75 731.4 c 3
 317.05 731.4 391.35 722.85 443.75 708.3 c 1
 434.3 648.65 l 1
 434.3 648.65 364.1 653.3 299.9 653.3 c 3
 254.9 653.3 229.2 651.65 212.3 548.45 c 0
 198.35 461.25 215.25 446.9 267.15 446.9 c 3
 333.35 446.9 408.55 452.85 408.55 452.85 c 1
 398.45 393.25 l 17
 338.65 373.45 301.1 368.45 228.25 368.8 c 0
 151.1 369.15 99.55 423 121.55 557.1 c 0
EndSplineSet
Ligature2: "'ordn' Ordinals lookup 21-1" c
EndChar

StartChar: d.superior
Encoding: 379 -1 308
Width: 418
VWidth: 0
Flags: HW
LayerCount: 2
Fore
SplineSet
121.9 560.6 m 0
 136.65 655.8 169.95 737.2 280.45 737.2 c 3
 313.75 737.2 356.9 727.9 394.55 709.65 c 1
 424.5 898.05 l 1
 514.25 898.05 l 1
 430.6 373.1 l 1
 361.2 373.1 l 1
 346.5 415.3 l 17
 317.1 392.9 277.45 369.1 229.25 369.1 c 3
 125.05 369.1 109 480.85 121.9 560.6 c 0
213.65 553.6 m 0
 203 476.25 218.15 450.7 256.65 450.7 c 3
 302.35 450.7 324.85 461.5 356.6 481.25 c 1
 383.1 648.5 l 1
 345.25 657.15 334.05 660.15 290.4 660.15 c 1
 252.55 660.15 226.6 645 213.65 553.6 c 0
EndSplineSet
Ligature2: "'ordn' Ordinals lookup 21-1" d
EndChar

StartChar: e.superior
Encoding: 380 -1 309
Width: 400
VWidth: 0
Flags: HW
LayerCount: 2
Fore
SplineSet
124.2 563.5 m 0
 143.55 678 176.55 732.75 310.3 733.1 c 1
 396.3 733.45 472.65 709.8 464.1 624.55 c 0
 448.95 471.35 230.8 501.3 206.15 511.65 c 1
 196.3 453.5 215.1 440.4 253 439.75 c 1
 297 437.15 375.75 442.8 421.75 449.75 c 1
 411.55 384.25 l 17
 355.6 367.2 284.35 359.7 214.4 363.55 c 0
 126.7 367.4 102.15 431.9 124.2 563.5 c 0
211.85 568 m 0
 211.85 568 362.6 538.15 376.5 614.65 c 0
 383.1 652.85 346.05 656.55 305.6 656.55 c 1
 230.6 656.55 221.7 619.4 211.85 568 c 0
EndSplineSet
Ligature2: "'ordn' Ordinals lookup 21-1" e
EndChar

StartChar: f.superior
Encoding: 381 -1 310
Width: 311
VWidth: 0
Flags: HW
LayerCount: 2
Fore
SplineSet
118.9 653.45 m 1
 129 716.1 l 1
 195.85 729.2 l 1
 204.25 774.05 l 2
 214.8 827.55 244.25 897.75 333.9 897.75 c 0
 370.55 897.75 400.85 892.15 433.05 880.4 c 1
 422.3 824.35 l 1
 421.95 824.35 346.6 824.7 346.6 824.7 c 2
 302.1 825.05 297.9 789.65 292.9 757.6 c 2
 287.95 729.1 l 1
 382.7 729.1 l 1
 370.6 653.45 l 1
 274.55 653.45 l 9
 230 373.1 l 17
 138.6 373.1 l 1
 183.15 653.45 l 1
 118.9 653.45 l 1
EndSplineSet
Ligature2: "'ordn' Ordinals lookup 21-1" f
EndChar

StartChar: g.superior
Encoding: 382 -1 311
Width: 406
VWidth: 0
Flags: HW
LayerCount: 2
Fore
SplineSet
87.85 203.7 m 1
 98 265.95 l 1
 270.25 265.95 l 2
 309.55 265.95 336.2 286.25 342.85 327.2 c 2
 353.4 394.55 l 1
 313.6 374.2 275.35 366.2 241.7 366.2 c 3
 136.55 366.2 105.65 455.3 124.7 567.8 c 0
 146.35 691.95 206.45 736.2 295.85 736.2 c 3
 375.15 736.2 460.1 723.25 495.8 715.35 c 1
 432.25 312.6 l 2
 416.9 217.5 351.5 179.2 269.4 187.7 c 2
 87.85 203.7 l 1
216.45 556 m 0
 208.05 509.75 200.9 442.95 265.8 442.95 c 3
 306.75 442.95 318.1 444.6 362.85 456.15 c 1
 395.3 660.2 l 2
 300.25 660.2 l 2
 234.6 660.2 223.75 593 216.45 556 c 0
EndSplineSet
Ligature2: "'ordn' Ordinals lookup 21-1" g
EndChar

StartChar: h.superior
Encoding: 383 -1 312
Width: 431
VWidth: 0
Flags: HW
LayerCount: 2
Fore
SplineSet
110.55 373.1 m 1
 193.55 895.4 l 1
 284.6 895.4 l 1
 251.3 684.3 l 1
 292.55 708.9 327.75 735.5 388.05 735.5 c 3
 475.05 735.5 497.5 679.1 487.45 614.15 c 2
 449.5 373.1 l 9
 358.1 373.1 l 17
 394.4 604.2 l 2
 400.35 641.6 380.4 657.05 351.75 657.05 c 3
 308.25 657.05 286.35 647.15 242.2 625.6 c 1
 201.95 373.1 l 1
 110.55 373.1 l 1
EndSplineSet
Ligature2: "'ordn' Ordinals lookup 21-1" h
EndChar

StartChar: i.superior
Encoding: 384 -1 313
Width: 194
VWidth: 0
Flags: HW
LayerCount: 2
Fore
SplineSet
108.9 373.1 m 1
 164.9 729.1 l 1
 256.3 729.1 l 1
 200.3 373.1 l 1
 108.9 373.1 l 1
172.25 786.05 m 2
 181.7 844.8 l 2
 183.7 855.8 190.7 863.8 202.7 863.8 c 2
 268.25 863.8 l 2
 279.25 863.8 283.9 855.8 281.9 844.8 c 2
 272.45 786.05 l 2
 270.45 775.05 263.8 769.05 252.8 769.05 c 2
 187.25 769.05 l 2
 176.25 769.05 170.25 775.05 172.25 786.05 c 2
EndSplineSet
Ligature2: "'ordn' Ordinals lookup 21-1" i
EndChar

StartChar: j.superior
Encoding: 385 -1 314
Width: 195
VWidth: 0
Flags: HW
LayerCount: 2
Fore
SplineSet
80.6 190.75 m 1
 165.6 727.75 l 1
 258.3 727.75 l 1
 201.3 369.75 l 2
 193.3 311.75 180.65 249.25 149.05 190.75 c 1
 80.6 190.75 l 1
172.9 786 m 2
 182.35 845.1 l 2
 184.35 856.1 191.35 864.1 203.35 864.1 c 2
 268.9 864.1 l 2
 279.9 864.1 284.9 856.1 282.9 845.1 c 2
 273.45 786 l 2
 271.45 775 264.45 768.35 253.45 768.35 c 2
 187.9 768.35 l 2
 176.9 768.35 170.9 775 172.9 786 c 2
EndSplineSet
Ligature2: "'ordn' Ordinals lookup 21-1" j
EndChar

StartChar: k.superior
Encoding: 386 -1 315
Width: 386
VWidth: 0
Flags: HW
LayerCount: 2
Fore
SplineSet
110.55 373.1 m 1
 193.55 894.1 l 1
 284.95 894.1 l 1
 236.65 595.45 l 1
 296.65 614.15 373.4 675.75 389.3 730.95 c 1
 487.3 730.95 l 1
 464.2 648.85 384.65 584.85 341.8 564.15 c 1
 465.2 373.1 l 1
 358.55 373.1 l 1
 252.7 542 l 1
 228.55 541.65 l 9
 201.95 373.1 l 17
 110.55 373.1 l 1
EndSplineSet
Ligature2: "'ordn' Ordinals lookup 21-1" k
EndChar

StartChar: l.superior
Encoding: 387 -1 316
Width: 243
VWidth: 0
Flags: HW
LayerCount: 2
Fore
SplineSet
130.55 502.35 m 2
 192.55 895.1 l 1
 284.3 895.1 l 1
 224.35 516.55 l 2
 216.05 463.75 222.4 453.45 247.8 445.45 c 2
 247.8 445.45 294.65 431.45 299.65 431.45 c 1
 290.55 373.1 l 1
 219 373.1 l 2
 153.55 373.1 115.55 408.35 130.55 502.35 c 2
EndSplineSet
Ligature2: "'ordn' Ordinals lookup 21-1" l
EndChar

StartChar: m.superior
Encoding: 388 -1 317
Width: 678
VWidth: 0
Flags: HW
LayerCount: 2
Fore
SplineSet
105.35 373.1 m 1
 161.35 726.75 l 1
 232 726.75 l 1
 243.35 681.25 l 1
 286.7 706.9 319.8 731.8 377.85 731.8 c 1
 427.9 731.8 463 711.2 474.35 677.35 c 1
 515.2 705.5 568.85 731.8 632 731.8 c 1
 704.05 731.8 744.1 679 733.4 611.15 c 2
 695.45 373.1 l 1
 604.05 373.1 l 1
 640.35 601.2 l 2
 645.65 635.35 626.65 653.7 598 653.7 c 1
 553.9 653.7 524.15 646.1 485.2 623.65 c 1
 484.85 621.9 481.25 599.35 480.9 597.25 c 2
 445.6 373.1 l 1
 354.2 373.1 l 1
 390.5 601.2 l 2
 395.8 635.35 375.5 653.7 346.85 653.7 c 1
 302.7 653.7 280.15 643.8 236 622.25 c 1
 196.75 373.1 l 1
 105.35 373.1 l 1
EndSplineSet
Ligature2: "'ordn' Ordinals lookup 21-1" m
EndChar

StartChar: n.superior
Encoding: 389 -1 318
Width: 431
VWidth: 0
Flags: HW
LayerCount: 2
Fore
SplineSet
110.55 373.1 m 1
 166.55 726.75 l 1
 234.6 726.75 l 1
 248.9 683.2 l 1
 291.2 708.5 326 733.75 386.65 733.75 c 3
 474.35 733.75 497.5 677.7 487.45 613.1 c 2
 449.5 373.1 l 9
 358.1 373.1 l 17
 395.05 603.8 l 2
 401 641.2 381.35 656.3 352.7 656.3 c 3
 308.55 656.3 286 645.75 241.85 624.2 c 1
 201.95 373.1 l 1
 110.55 373.1 l 1
EndSplineSet
Ligature2: "'ordn' Ordinals lookup 21-1" n
EndChar

StartChar: o.superior
Encoding: 390 -1 319
Width: 402
VWidth: 0
Flags: HW
LayerCount: 2
Fore
SplineSet
121.9 551.05 m 0
 141 691.15 185.65 732.05 315.75 732.05 c 3
 445.25 732.05 476.5 673.95 456.45 539.15 c 0
 436.75 407.5 401 368.15 265.9 368.15 c 3
 138.35 368.15 104.5 422.45 121.9 551.05 c 0
209.45 545.45 m 0
 194.25 449.05 220.95 446.25 273.8 446.25 c 3
 332.35 446.25 352.4 448 368.9 545.45 c 0
 385.4 643.6 370 653.95 306.55 653.95 c 3
 245 653.95 225.3 648.15 209.45 545.45 c 0
EndSplineSet
EndChar

StartChar: p.superior
Encoding: 391 -1 320
Width: 415
VWidth: 0
Flags: HW
LayerCount: 2
Fore
SplineSet
81.55 195.2 m 1
 164.55 716.25 l 1
 224.4 729.35 289.65 734.15 366 734.15 c 3
 462.75 734.15 488.1 649.75 473.6 546.2 c 0
 458.9 436.2 424.85 362.35 314.85 362.35 c 3
 282.85 362.35 234.2 371.65 202.35 392.35 c 1
 171 195.2 l 1
 81.55 195.2 l 1
212.15 455 m 1
 243.85 444.05 265.9 439.75 304.9 439.75 c 3
 345.75 439.75 368 459.45 382.9 552.5 c 0
 393.45 620.05 384.5 658.8 339 658.8 c 0
 244.95 658.8 l 1
 212.15 455 l 1
EndSplineSet
Ligature2: "'ordn' Ordinals lookup 21-1" p
EndChar

StartChar: q.superior
Encoding: 392 -1 321
Width: 418
VWidth: 0
Flags: HW
LayerCount: 2
Fore
SplineSet
127.1 563.95 m 0
 149.1 690.9 209.2 734.8 298.6 734.8 c 3
 377.9 734.8 455.65 722.2 491.35 714.3 c 1
 408.7 188.05 l 17
 317.3 188.05 l 9
 349.3 391.05 l 1
 309.5 370.35 275.4 363 243.4 362.35 c 1
 138.6 362.35 108.05 451.45 127.1 563.95 c 0
218.15 552.5 m 0
 209.75 506.25 202.95 439.1 267.85 439.1 c 1
 309.45 438.45 314 441.45 358.75 453.7 c 1
 391.55 658.8 l 2
 303 658.8 l 2
 237.35 658.8 225.45 589.5 218.15 552.5 c 0
EndSplineSet
Ligature2: "'ordn' Ordinals lookup 21-1" q
EndChar

StartChar: r.superior
Encoding: 393 -1 322
Width: 320
VWidth: 0
Flags: HW
LayerCount: 2
Fore
SplineSet
105.35 373.1 m 1
 161.35 726.75 l 1
 236.1 726.75 l 1
 242.3 676.1 l 1
 280.4 702.45 320.65 730.75 372.3 730.75 c 27
 391.15 730.75 410.55 729.45 419.25 725.45 c 1
 405.05 637.45 l 1
 395.35 638.75 372.75 640.05 351.1 640.05 c 27
 304.6 640.05 275.6 631.6 233.2 603.4 c 1
 196.75 373.1 l 1
 105.35 373.1 l 1
EndSplineSet
Ligature2: "'ordn' Ordinals lookup 21-1" r
EndChar

StartChar: s.superior
Encoding: 394 -1 323
Width: 368
VWidth: 0
Flags: HW
LayerCount: 2
Fore
SplineSet
106.1 385.1 m 9
 115.2 445.4 l 17
 295.85 445.4 l 18
 300.05 445.4 325.8 443.5 329.7 470.7 c 1
 332.3 487.3 l 2
 334.25 504.4 330.35 513.25 307 513.25 c 10
 214.75 513.25 l 2
 151.75 513.25 116.4 552.75 125.75 613.2 c 10
 130.4 646.1 l 18
 139.7 703.3 170.05 734.65 239.7 734.65 c 3
 296.7 734.65 405.7 729.5 434.05 716.75 c 9
 424.3 654.8 l 17
 251.6 654.8 l 2
 221.15 654.8 216.1 644.4 213.8 627.95 c 10
 211.2 610.6 l 18
 207.6 585.35 222.05 584 241.1 584 c 2
 334.4 584 l 2
 401.6 584 426.5 535.35 419.5 491.35 c 1
 413.15 453.3 l 2
 400.8 377.9 356.4 364.9 310.15 364.9 c 3
 254.8 364.9 129.65 372.3 106.1 385.1 c 9
EndSplineSet
Ligature2: "'ordn' Ordinals lookup 21-1" s
EndChar

StartChar: t.superior
Encoding: 395 -1 324
Width: 279
VWidth: 0
Flags: HW
LayerCount: 2
Fore
SplineSet
118.9 653.8 m 1
 127.95 713.35 l 1
 198 729.2 l 1
 229.7 828.45 l 1
 303.35 828.45 l 1
 288 729.45 l 1
 381.45 729.45 l 1
 369.35 653.8 l 1
 275.9 653.8 l 1
 253.4 513.5 l 2
 244.45 457.5 251.15 452.75 277.5 445.75 c 2
 277.5 445.75 321.35 433.4 323.75 433.4 c 1
 314.3 373.75 l 1
 245.5 373.75 l 2
 184.9 373.75 144.95 406.1 159.6 497.4 c 2
 184.5 653.8 l 1
 118.9 653.8 l 1
EndSplineSet
Ligature2: "'ordn' Ordinals lookup 21-1" t
EndChar

StartChar: u.superior
Encoding: 396 -1 325
Width: 426
VWidth: 0
Flags: HW
LayerCount: 2
Fore
SplineSet
118.5 490.65 m 2
 156.45 726.75 l 9
 247.85 726.75 l 17
 210.9 496.05 l 2
 205.6 461.25 225.25 444.2 253.25 444.2 c 3
 295.45 444.2 314.75 452.8 358.9 474.35 c 1
 398.8 726.75 l 1
 490.2 726.75 l 1
 434.2 373.1 l 1
 365.5 373.1 l 1
 351.55 418.05 l 1
 307.85 389.95 279.95 366.1 219.3 366.1 c 3
 131.6 366.1 108.45 426.05 118.5 490.65 c 2
EndSplineSet
Ligature2: "'ordn' Ordinals lookup 21-1" u
EndChar

StartChar: v.superior
Encoding: 397 -1 326
Width: 380
VWidth: 0
Flags: HW
LayerCount: 2
Fore
SplineSet
129.65 726.75 m 25
 220.85 726.75 l 17
 275.45 485.45 l 1
 373.6 659.5 l 2
 383.9 676.85 389.4 695.8 393.05 727.45 c 9
 477.8 727.45 l 17
 486.2 695.3 477.45 662.7 464.65 637.85 c 1
 306.65 373.1 l 9
 217.15 373.1 l 25
 129.65 726.75 l 25
EndSplineSet
Ligature2: "'ordn' Ordinals lookup 21-1" v
EndChar

StartChar: w.superior
Encoding: 398 -1 327
Width: 582
VWidth: 0
Flags: HW
LayerCount: 2
Fore
SplineSet
129.65 726.75 m 1
 219.2 726.75 l 1
 273.15 488.7 l 1
 372.3 660.15 l 2
 382.6 677.5 388.1 695.8 391.75 727.45 c 1
 476.5 727.45 l 1
 483.5 701.95 480.7 677.05 470.35 653.25 c 1
 469.65 651.5 443.6 607.85 442.9 606.1 c 1
 476.2 488.7 l 1
 574.05 659.5 l 2
 584.35 676.85 590.5 695.8 594.15 727.45 c 1
 678.9 727.45 l 1
 687.3 695.3 678.2 662.7 665.4 637.85 c 1
 508.7 373.1 l 1
 421.9 373.1 l 1
 383.4 510.35 l 1
 306.3 373.1 l 1
 216.8 373.1 l 1
 129.65 726.75 l 1
EndSplineSet
Ligature2: "'ordn' Ordinals lookup 21-1" w
EndChar

StartChar: x.superior
Encoding: 399 -1 328
Width: 395
VWidth: 0
Flags: HW
LayerCount: 2
Fore
SplineSet
74 367.9 m 1
 230.7 551.7 l 1
 126.75 726.1 l 1
 227.45 726.1 l 1
 292.15 609.35 l 1
 389.05 726.1 l 1
 494.65 726.1 l 1
 336.25 538.4 l 1
 438.5 367.9 l 1
 339.55 367.9 l 1
 276.15 481.1 l 1
 181.2 367.9 l 1
 74 367.9 l 1
EndSplineSet
Ligature2: "'ordn' Ordinals lookup 21-1" x
EndChar

StartChar: y.superior
Encoding: 400 -1 329
Width: 411
VWidth: 0
Flags: HW
LayerCount: 2
Fore
SplineSet
136.25 162.25 m 0
 136.25 221.05 l 0
 205.45 271.5 257.2 358.15 265.95 375.3 c 1
 217.85 377.25 189.6 410.55 184 450.4 c 2
 132.25 727.75 l 1
 224.9 727.75 l 1
 268.9 475.75 l 2
 271.85 458 282.9 447.8 299.75 447.45 c 1
 404.2 652.45 l 2
 412.85 672.2 418.9 692.3 423.25 727.45 c 9
 508 727.45 l 17
 516.4 694.95 509.05 662.35 497.3 636.8 c 1
 365.05 373.35 l 2
 275.75 198.5 182.75 169.2 136.25 162.25 c 0
EndSplineSet
Ligature2: "'ordn' Ordinals lookup 21-1" y
EndChar

StartChar: z.superior
Encoding: 401 -1 330
Width: 369
VWidth: 0
Flags: HW
LayerCount: 2
Fore
SplineSet
101.3 374.1 m 25
 114.1 454.3 l 25
 322.55 645.85 l 17
 133.5 645.85 l 17
 146.65 726.75 l 25
 454.55 726.75 l 25
 443.1 651.85 l 25
 234.55 455 l 17
 410.7 455 l 17
 411.7 454 397.9 374.1 397.9 374.1 c 25
 101.3 374.1 l 25
EndSplineSet
Ligature2: "'ordn' Ordinals lookup 21-1" z
EndChar

StartChar: zero.tnum
Encoding: 402 -1 331
Width: 613
VWidth: 0
Flags: HW
HStem: 0 109<201.467 451.962> 623 109<277.819 529.621>
DStem2: 75.65 172.5 194.1 186.85 0.157463 0.987525<-27.0003 459.81> 478.75 186.5 592.65 172.5 0.156945 0.987607<-62.3359 424.026>
LayerCount: 2
Fore
SplineSet
75.65 172.5 m 10
 136.8 556 l 2
 155.85 676.25 222.35 732 336.95 732 c 2
 500.95 732 l 2
 630.35 732 668.2 645.85 654.15 559.5 c 2
 592.65 172.5 l 18
 573.65 53.5 510.8 0 398.6 0 c 2
 234.6 0 l 2
 129.95 0 56.65 52.5 75.65 172.5 c 10
194.1 186.85 m 2
 181.85 108.1 226.25 109 265.15 109 c 10
 386.45 109 l 18
 439.6 109 469.75 132.5 478.75 186.5 c 2
 536.05 545.5 l 2
 544.35 598.65 528.6 623 471.05 623 c 2
 344.5 623 l 2
 274.95 623 256.3 579.95 251.05 545.5 c 2
 194.1 186.85 l 2
EndSplineSet
Substitution2: "'onum' Oldstyle Figures in Latin lookup 5-1" zero.tosf
Substitution2: "'lnum' Lining Figures lookup 19-1" zero
EndChar

StartChar: one.tnum
Encoding: 403 -1 332
Width: 613
VWidth: 0
Flags: HW
HStem: 0 104.6<135.3 291.2 407.85 543.1> 570.9 77.5<226.85 303.144> 712 20G<383.3 507.65>
DStem2: 291.2 104.6 407.85 104.6 0.157095 0.987583<18.3251 507.884>
LayerCount: 2
Fore
SplineSet
119.1 0 m 5
 135.3 104.6 l 5
 291.2 104.6 l 5
 373.05 605.85 l 5
 342.4 583.35 277.4 570.9 215 570.9 c 5
 226.85 648.4 l 5
 291.85 648.4 374.9 712.75 391.7 732 c 5
 507.65 732 l 5
 407.85 104.6 l 5
 559.3 104.6 l 5
 543.1 0 l 5
 119.1 0 l 5
EndSplineSet
Substitution2: "'onum' Oldstyle Figures in Latin lookup 5-1" one.tosf
Substitution2: "'lnum' Lining Figures lookup 19-1" one
EndChar

StartChar: two.tnum
Encoding: 404 -1 333
Width: 613
VWidth: 0
Flags: HW
HStem: 0 109<282.85 559.75> 632 110<192.463 503.399> 632 86.5<160.9 380.106>
LayerCount: 2
Fore
SplineSet
54.25 0 m 25xc0
 70.85 103 l 17
 192.35 177.15 508.15 387.6 529.25 521.75 c 1
 540.55 595.1 510.8 632 422 632 c 2xc0
 147 632 l 2
 160.9 718.5 l 1xa0
 258.25 733.25 343.2 742 465.75 742 c 3
 608.1 742 659.1 631.35 644.9 513.45 c 0
 626.15 343.6 364.9 165.65 282.85 109 c 9
 577.35 109 l 25
 559.75 0 l 25
 54.25 0 l 25xc0
EndSplineSet
Substitution2: "'onum' Oldstyle Figures in Latin lookup 5-1" two.tosf
Substitution2: "'lnum' Lining Figures lookup 19-1" two
EndChar

StartChar: three.tnum
Encoding: 405 -1 334
Width: 613
VWidth: 0
Flags: HW
HStem: -7 110<92.2901 431.991> 21 82<77.8 162.341> 308.85 110<241.42 463.227> 316.55 93<188 350.58> 625 109<220.839 511.195>
DStem2: 464.85 180.25 580.05 161 0.157648 0.987495<-55.5839 107.74 260.741 426.44>
LayerCount: 2
Fore
SplineSet
64.2 21 m 1x48
 77.8 103 l 1x48
 347.8 103 l 2
 406.3 103 455.25 120.25 464.85 180.25 c 2
 471.7 222.1 l 2
 484.55 303.2 443.55 306.15 386.4 308.85 c 2xa8
 172.4 316.55 l 2
 188 409.55 l 1x18
 404 418.85 l 2
 473 421.85 508.75 444.6 517.7 500.35 c 2
 525.2 548 l 2
 536.15 615.25 488.6 625 436.6 625 c 2
 153.6 625 l 1
 166.2 706 l 1
 259.2 737 375.7 736 492.7 734 c 0
 593.6 732 659.35 658.4 642.95 555 c 2
 633.35 496.5 l 2
 620.7 418.3 585.7 374.3 538.7 364 c 1
 585.15 344.4 600.3 285.5 588.3 209.5 c 2
 580.05 161 l 2
 562.35 47.8 490.7 -7 368.7 -7 c 0xa8
 254.7 -7 147.2 -10 64.2 21 c 1x48
EndSplineSet
Substitution2: "'onum' Oldstyle Figures in Latin lookup 5-1" three.tosf
Substitution2: "'lnum' Lining Figures lookup 19-1" three
EndChar

StartChar: four.tnum
Encoding: 406 -1 335
Width: 613
VWidth: 0
Flags: HW
HStem: 169.5 113<237.3 433.05> 712 20G<407.028 554.55>
DStem2: 58.8 224 237.3 282.5 0.580859 0.814004<151.303 624.076> 406.85 2 524.8 2 0.155967 0.987762<18.3963 169.536 302.295 467.675>
LayerCount: 2
Fore
SplineSet
58.8 224 m 1
 421.3 732 l 1
 554.55 732 l 1
 237.3 282.5 l 1
 450.65 282.5 l 1
 479.8 463.95 l 1
 527.25 540 l 1
 609.75 540 l 1
 568.6 282.5 l 1
 648.1 282.5 l 1
 634.2 192 l 1
 551 169.5 l 1
 524.8 2 l 1
 406.85 2 l 1
 433.05 169.5 l 1
 84 169.5 l 1
 58.8 224 l 1
EndSplineSet
Substitution2: "'onum' Oldstyle Figures in Latin lookup 5-1" four.tosf
Substitution2: "'lnum' Lining Figures lookup 19-1" four
EndChar

StartChar: five.tnum
Encoding: 407 -1 336
Width: 613
VWidth: 0
Flags: HW
HStem: -2.05 114<90.9124 431.057> 21.95 90<82.05 217.075> 352.3 106.15<266.221 465.13> 624.3 109<298.8 622.85>
DStem2: 110.7 287.8 258.65 431.3 0.203671 0.979039<170.625 367.757> 462.45 190.95 576 164.45 0.146451 0.989218<-62.421 143.119>
LayerCount: 2
Fore
SplineSet
67.45 21.95 m 1x70
 82.05 111.95 l 1x70
 372.05 111.95 l 2
 438.6 111.95 457.5 159.25 462.45 190.95 c 2
 475.25 269.4 l 2
 480.25 299.8 483 352.3 413.8 352.3 c 1
 300.9 352.3 l 2
 264.35 352.3 228.9 333.75 221.3 287.8 c 1
 110.7 287.8 l 1
 203.45 733.3 l 17
 640.45 733.3 l 1
 622.85 624.3 l 1
 298.8 624.3 l 25
 258.65 431.3 l 1
 280.5 449.25 311.4 456.15 340 458.45 c 0
 382.9 462.4 432.55 458.15 455.95 457.8 c 0
 555.35 454.3 607.6 376.65 592.3 274.55 c 2
 576 164.45 l 2
 554 27.45 464.4 1.2 370.95 -2.05 c 1xb0
 246.3 -6.6 197.45 -1.05 67.45 21.95 c 1x70
EndSplineSet
Substitution2: "'onum' Oldstyle Figures in Latin lookup 5-1" five.tosf
Substitution2: "'lnum' Lining Figures lookup 19-1" five
EndChar

StartChar: six.tnum
Encoding: 408 -1 337
Width: 613
VWidth: 0
Flags: HW
HStem: -0.35 107.05<235.256 450.65> 333 105.5<236.664 485.455> 629 87.55<397.626 634.85>
DStem2: 474 176.75 584.5 148 0.149745 0.988725<-57.9024 146.181>
LayerCount: 2
Fore
SplineSet
111.25 391 m 0
 153.25 656 253.8 731.35 339.6 736.25 c 0
 441.3 741.85 552.25 735.25 648.75 716.55 c 1
 634.85 629 l 1
 370.35 629 l 2
 282.6 629 247.3 497.65 233.35 417.5 c 1
 303.9 430.65 383.35 437.85 460.85 438.5 c 1
 599.7 439.8 614.55 343.05 602.75 268.5 c 2
 584.5 148 l 2
 565.45 29.7 489.65 -0.35 387.95 -0.35 c 2
 244.1 -0.35 l 2
 139.65 -0.35 61.25 76 111.25 391 c 0
219.45 333 m 1
 201.8 221.8 197.25 106.7 285 106.7 c 2
 389.55 106.7 l 2
 422.55 106.7 464.75 117.65 474 176.75 c 2
 487.75 265 l 2
 496.7 319.7 481.75 333 427.85 333 c 2
 219.45 333 l 1
EndSplineSet
Substitution2: "'onum' Oldstyle Figures in Latin lookup 5-1" six.tosf
Substitution2: "'lnum' Lining Figures lookup 19-1" six
EndChar

StartChar: seven.tnum
Encoding: 409 -1 338
Width: 613
VWidth: 0
Flags: HW
HStem: 0 21G<175.85 315.8> 0 21G<175.85 315.8> 623 109<172.85 511.25>
DStem2: 175.85 0 305.15 0 0.470027 0.882652<60.7745 707.539>
LayerCount: 2
Fore
SplineSet
155.25 623 m 1xa0
 172.85 732 l 1
 639.55 732 l 1
 663.8 673.5 l 1
 305.15 0 l 1
 175.85 0 l 1
 511.25 623 l 1
 155.25 623 l 1xa0
EndSplineSet
Substitution2: "'onum' Oldstyle Figures in Latin lookup 5-1" seven.tosf
Substitution2: "'lnum' Lining Figures lookup 19-1" seven
EndChar

StartChar: eight.tnum
Encoding: 410 -1 339
Width: 613
VWidth: 0
Flags: HW
HStem: 0 105.5<208.706 446.944> 323 101<259.98 473.867> 631.5 105.5<284.863 525.204>
DStem2: 82.9 169.75 200 171.65 0.15655 0.98767<-29.8831 159.435 296.501 474.35> 469.5 171.65 584.75 157.85 0.156643 0.987655<-52.0762 133.546 273.734 449.375>
LayerCount: 2
Fore
SplineSet
82.9 169.75 m 2
 95.45 252 l 2
 106.05 317.6 149.65 352.35 200.8 358.75 c 1
 134.1 386 127.15 453.45 135.85 506 c 2
 146.5 571 l 2
 167.85 707.75 247 737 356.5 737 c 2
 506 737 l 2
 611.65 737 666.05 672.95 648 556.65 c 2
 638.4 499 l 2
 635.7 475.25 613 401.6 541.8 388.7 c 1
 600.35 372.45 606.35 291.15 598.7 248.15 c 2
 584.75 157.85 l 2
 560.7 8.5 472 0 388 0 c 2
 239.5 0 l 2
 63.8 0 75.5 123.3 82.9 169.75 c 2
200 171.65 m 2
 192.05 121.7 212.45 105.5 272.15 105.5 c 2
 384.6 105.5 l 2
 425.35 105.5 462.25 122.85 469.5 171.65 c 2
 482.65 253.9 l 2
 489.9 300.05 464.5 323 422.25 323 c 2
 300 323 l 2
 255.4 323 221.05 303.65 213.15 253.9 c 2
 200 171.65 l 2
250.85 494 m 2
 241.6 436.8 281.55 424 315.55 424 c 2
 437.1 424 l 2
 499.95 424 514.7 460.1 520.35 494 c 2
 528.9 548.7 l 2
 540.15 617.5 518.45 631.5 468.45 631.5 c 2
 355.35 631.5 l 2
 290.9 631.5 269 610.3 259.4 548.7 c 2
 250.85 494 l 2
EndSplineSet
Substitution2: "'onum' Oldstyle Figures in Latin lookup 5-1" eight.tosf
Substitution2: "'lnum' Lining Figures lookup 19-1" eight
EndChar

StartChar: nine.tnum
Encoding: 411 -1 340
Width: 613
VWidth: 0
Flags: HW
HStem: 19.35 87.55<91.8 328.618> 297.4 105.5<241.203 490.336> 629.2 107.05<275.347 491.098>
DStem2: 124.6 470.9 239.25 470.9 0.15281 0.988256<-36.4126 165.666>
LayerCount: 2
Fore
SplineSet
77.9 19.35 m 1
 91.8 106.9 l 1
 356.3 106.9 l 2
 444.05 106.9 479.7 238.25 493.65 318.4 c 1
 423.1 305.25 343.3 298.05 265.8 297.4 c 1
 126.95 296.1 112.8 396.35 124.6 470.9 c 2
 142.15 584.4 l 2
 160.85 702.7 236.3 736.25 338 736.25 c 2
 481.85 736.25 l 2
 588.4 736.25 665.05 652.9 615.05 337.9 c 0
 573.05 72.9 473.2 4.55 387.4 -0.35 c 0
 285.7 -5.95 165.95 0 77.9 19.35 c 1
239.25 470.9 m 2
 230.3 416.2 244.9 402.9 298.8 402.9 c 2
 507.2 402.9 l 1
 524.85 514.1 529.05 629.2 441.3 629.2 c 2
 337.1 629.2 l 2
 304.1 629.2 261.9 618.25 252.65 559.15 c 2
 239.25 470.9 l 2
EndSplineSet
Substitution2: "'onum' Oldstyle Figures in Latin lookup 5-1" nine.tosf
Substitution2: "'lnum' Lining Figures lookup 19-1" nine
EndChar

StartChar: zero.tosf
Encoding: 412 -1 341
Width: 613
VWidth: 0
Flags: W
HStem: 0 109<201.455 452.108> 523 109<266.469 509.657>
DStem2: 75.65 172.5 194.1 186.85 0.158466 0.987364<-27.0099 354.44> 479.1 186.5 592.65 172.5 0.158929 0.98729<-62.1744 319.252>
LayerCount: 2
Fore
SplineSet
75.65 172.5 m 10
 121.15 456 l 2
 140.2 576.25 206.7 632 321.3 632 c 2
 485.3 632 l 2
 621.7 632 652.9 545.85 638.85 459.5 c 2
 592.65 172.5 l 18
 573.65 53.5 510.8 0 398.6 0 c 2
 234.6 0 l 2
 129.95 0 56.3 52.5 75.65 172.5 c 10
194.1 186.85 m 2
 181.85 108.1 226.25 109 265.15 109 c 10
 386.45 109 l 18
 439.6 109 470.1 132.5 479.1 186.5 c 2
 520.4 445.5 l 2
 528.7 498.65 513.3 523 455.75 523 c 2
 329.2 523 l 2
 260.7 523 240.65 479.95 235.4 445.5 c 2
 194.1 186.85 l 2
EndSplineSet
Substitution2: "'lnum' Lining Figures lookup 19-1" zero
EndChar

StartChar: one.tosf
Encoding: 413 -1 342
Width: 613
VWidth: 0
Flags: W
HStem: 0 104.6<139.95 289 406.4 534.75> 470.9 77.5<207.1 283.188>
DStem2: 289 104.6 406.4 104.6 0.147954 0.988994<17.3699 406.125>
LayerCount: 2
Fore
SplineSet
123.75 0 m 1
 139.95 104.6 l 1
 289 104.6 l 1
 351.8 505.85 l 1
 323.1 485.3 257 470.9 194.6 470.9 c 1
 207.1 548.4 l 1
 272.1 548.4 354.5 612.75 371.3 632 c 1
 485.3 632 l 1
 406.4 104.6 l 1
 550.95 104.6 l 1
 534.75 0 l 1
 123.75 0 l 1
EndSplineSet
Substitution2: "'lnum' Lining Figures lookup 19-1" one
EndChar

StartChar: two.tosf
Encoding: 414 -1 343
Width: 613
VWidth: 0
Flags: W
HStem: 0 109<317.1 559.1> 526.55 109.35<181.495 501.958>
LayerCount: 2
Fore
SplineSet
53.6 0 m 25
 70.2 103 l 17
 208.55 171.6 496.65 308.8 515.8 430.6 c 1
 527.1 499.4 503 527.85 412.25 526.55 c 1
 379.75 526.55 135.95 525.9 135.95 525.9 c 2
 150.5 612.4 l 1
 246.55 627.8 325.65 635.9 454.05 635.9 c 3
 613.3 635.9 648.7 535.5 635.8 429.3 c 1
 618.35 266.6 385.4 140.4 317.1 109 c 9
 576.7 109 l 25
 559.1 0 l 25
 53.6 0 l 25
EndSplineSet
Substitution2: "'lnum' Lining Figures lookup 19-1" two
EndChar

StartChar: three.tosf
Encoding: 415 -1 344
Width: 613
VWidth: 0
Flags: W
HStem: -103.1 110<77.2901 416.991> -75.1 82<62.8 147.341> 212.75 110<226.419 448.227> 220.45 93<173 335.581> 528.9 109<205.839 496.195>
DStem2: 449.85 84.15 565.05 64.9 0.157648 0.987495<-55.5839 107.74 260.741 426.441>
LayerCount: 2
Fore
SplineSet
49.2 -75.1 m 1x48
 62.8 6.9 l 1
 332.8 6.9 l 2
 391.3 6.9 440.25 24.15 449.85 84.15 c 2
 456.7 126 l 2
 469.55 207.1 428.55 210.05 371.4 212.75 c 2x68
 157.4 220.45 l 2
 173 313.45 l 1x18
 389 322.75 l 2
 458 325.75 493.75 348.5 502.7 404.25 c 2
 510.2 451.9 l 2
 521.15 519.15 473.6 528.9 421.6 528.9 c 2
 138.6 528.9 l 1
 151.2 609.9 l 1
 244.2 640.9 360.7 639.9 477.7 637.9 c 0
 578.6 635.9 644.35 562.3 627.95 458.9 c 2
 618.35 400.4 l 2
 605.7 322.2 570.7 278.2 523.7 267.9 c 1
 570.15 248.3 585.3 189.4 573.3 113.4 c 2
 565.05 64.9 l 2
 547.35 -48.3 475.7 -103.1 353.7 -103.1 c 0xa8
 239.7 -103.1 132.2 -106.1 49.2 -75.1 c 1x48
EndSplineSet
Substitution2: "'lnum' Lining Figures lookup 19-1" three
EndChar

StartChar: four.tosf
Encoding: 416 -1 345
Width: 613
VWidth: 0
Flags: W
HStem: 69.5 113<221.3 417.05>
DStem2: 42.8 124 221.3 182.5 0.580859 0.814004<151.303 624.076> 390.85 -98 508.8 -98 0.155967 0.987762<18.3963 169.536 302.295 467.675>
LayerCount: 2
Fore
SplineSet
42.8 124 m 1
 405.3 632 l 1
 538.55 632 l 1
 221.3 182.5 l 1
 434.65 182.5 l 1
 463.8 363.95 l 1
 511.25 440 l 1
 593.75 440 l 1
 552.6 182.5 l 1
 632.1 182.5 l 1
 618.2 92 l 1
 535 69.5 l 1
 508.8 -98 l 1
 390.85 -98 l 1
 417.05 69.5 l 1
 68 69.5 l 1
 42.8 124 l 1
EndSplineSet
Substitution2: "'lnum' Lining Figures lookup 19-1" four
EndChar

StartChar: five.tosf
Encoding: 417 -1 346
Width: 613
VWidth: 0
Flags: W
HStem: -103.35 114<74.9124 415.057> -79.35 90<66.05 201.075> 251 106.15<250.221 449.13> 523 109<282.8 606.85>
DStem2: 94.7 186.5 242.65 330 0.203671 0.979039<170.625 367.757> 446.45 89.65 560 63.15 0.146451 0.989218<-62.421 143.119>
LayerCount: 2
Fore
SplineSet
51.45 -79.35 m 1x70
 66.05 10.65 l 1
 356.05 10.65 l 2
 422.6 10.65 441.5 57.95 446.45 89.65 c 2
 459.25 168.1 l 2
 464.25 198.5 467 251 397.8 251 c 1
 284.9 251 l 2
 248.35 251 212.9 232.45 205.3 186.5 c 1
 94.7 186.5 l 1
 187.45 632 l 17
 624.45 632 l 1
 606.85 523 l 1
 282.8 523 l 25
 242.65 330 l 1
 264.5 347.95 295.4 354.85 324 357.15 c 0
 366.9 361.1 416.55 356.85 439.95 356.5 c 0
 539.35 353 591.6 275.35 576.3 173.25 c 2
 560 63.15 l 2
 538 -73.85 448.4 -100.1 354.95 -103.35 c 1xb0
 230.3 -107.9 181.45 -102.35 51.45 -79.35 c 1x70
EndSplineSet
Substitution2: "'lnum' Lining Figures lookup 19-1" five
EndChar

StartChar: six.tosf
Encoding: 418 -1 347
Width: 613
VWidth: 0
Flags: W
HStem: -0.35 107.05<235.256 450.65> 333 105.5<236.664 485.455> 629 87.55<397.124 634.85>
DStem2: 474 176.75 584.5 148 0.149745 0.988725<-57.9024 146.181>
LayerCount: 2
Fore
SplineSet
111.25 391 m 0
 153.25 656 253.8 731.35 339.6 736.25 c 0
 441.3 741.85 546.4 733.95 648.75 716.55 c 1
 634.85 629 l 1
 370.35 629 l 2
 282.6 629 247.3 497.65 233.35 417.5 c 1
 303.9 430.65 383.35 437.85 460.85 438.5 c 1
 599.7 439.8 614.55 343.05 602.75 268.5 c 2
 584.5 148 l 2
 565.45 29.7 489.65 -0.35 387.95 -0.35 c 2
 244.1 -0.35 l 2
 139.65 -0.35 61.25 76 111.25 391 c 0
219.45 333 m 1
 201.8 221.8 197.25 106.7 285 106.7 c 2
 389.55 106.7 l 2
 422.55 106.7 464.75 117.65 474 176.75 c 2
 487.75 265 l 2
 496.7 319.7 481.75 333 427.85 333 c 2
 219.45 333 l 1
EndSplineSet
Substitution2: "'lnum' Lining Figures lookup 19-1" six
EndChar

StartChar: seven.tosf
Encoding: 419 -1 348
Width: 613
VWidth: 0
Flags: W
HStem: 523 109<156.85 495.25>
DStem2: 159.85 -100 289.15 -100 0.470027 0.882652<60.7745 707.539>
LayerCount: 2
Fore
SplineSet
139.25 523 m 1
 156.85 632 l 1
 623.55 632 l 1
 647.8 573.5 l 1
 289.15 -100 l 1
 159.85 -100 l 1
 495.25 523 l 1
 139.25 523 l 1
EndSplineSet
Substitution2: "'lnum' Lining Figures lookup 19-1" seven
EndChar

StartChar: eight.tosf
Encoding: 420 -1 349
Width: 626
VWidth: 0
Flags: W
HStem: 0 105.5<214.706 452.944> 323 101<265.98 479.867> 631.5 105.5<290.863 531.204>
DStem2: 88.9004 169.75 206 171.65 0.156549 0.98767<-29.8832 159.435 296.501 474.35> 475.5 171.65 590.75 157.85 0.156643 0.987655<-52.0769 133.546 273.734 449.375>
LayerCount: 2
Fore
SplineSet
88.9004 169.75 m 2
 101.45 252 l 2
 112.05 317.6 155.65 352.35 206.8 358.75 c 1
 140.1 386 133.15 453.45 141.85 506 c 2
 152.5 571 l 2
 173.85 707.75 253 737 362.5 737 c 2
 512 737 l 2
 617.65 737 672.05 672.95 654 556.65 c 2
 644.4 499 l 2
 641.7 475.25 619 401.6 547.8 388.7 c 1
 606.35 372.45 612.35 291.15 604.7 248.15 c 2
 590.75 157.85 l 2
 566.7 8.5 478 0 394 0 c 2
 245.5 0 l 2
 69.7998 0 81.5 123.3 88.9004 169.75 c 2
206 171.65 m 2
 198.05 121.7 218.45 105.5 278.15 105.5 c 2
 390.6 105.5 l 2
 431.35 105.5 468.25 122.85 475.5 171.65 c 2
 488.65 253.9 l 2
 495.9 300.05 470.5 323 428.25 323 c 2
 306 323 l 2
 261.4 323 227.05 303.65 219.15 253.9 c 2
 206 171.65 l 2
256.85 494 m 2
 247.6 436.8 287.55 424 321.55 424 c 2
 443.1 424 l 2
 505.95 424 520.7 460.1 526.35 494 c 2
 534.9 548.7 l 2
 546.15 617.5 524.45 631.5 474.45 631.5 c 2
 361.35 631.5 l 2
 296.9 631.5 275 610.3 265.4 548.7 c 2
 256.85 494 l 2
EndSplineSet
Substitution2: "'lnum' Lining Figures lookup 19-1" eight
EndChar

StartChar: nine.tosf
Encoding: 421 -1 350
Width: 613
VWidth: 0
Flags: W
HStem: -84.55 87.55<75.8 249.824> 193.5 105.5<225.203 474.336> 525.3 107.05<259.347 475.098>
DStem2: 108.6 367 223.25 367 0.15281 0.988256<-36.4126 165.666>
LayerCount: 2
Fore
SplineSet
61.9 -84.55 m 1
 75.8 3 l 1
 340.3 3 l 2
 428.05 3 463.7 134.35 477.65 214.5 c 1
 407.1 201.35 327.3 194.15 249.8 193.5 c 1
 110.95 192.2 96.8 292.45 108.6 367 c 2
 126.15 480.5 l 2
 144.85 598.8 220.3 632.35 322 632.35 c 2
 465.85 632.35 l 2
 572.4 632.35 649.05 549 599.05 234 c 0
 557.05 -31 457.2 -99.35 371.4 -104.25 c 0
 269.7 -109.85 160.35 -107.8 61.9 -84.55 c 1
223.25 367 m 2
 214.3 312.3 228.9 299 282.8 299 c 2
 491.2 299 l 1
 508.85 410.2 513.05 525.3 425.3 525.3 c 2
 321.1 525.3 l 2
 288.1 525.3 245.9 514.35 236.65 455.25 c 2
 223.25 367 l 2
EndSplineSet
Substitution2: "'lnum' Lining Figures lookup 19-1" nine
EndChar

StartChar: partialdiff
Encoding: 422 8706 351
Width: 634
VWidth: 0
Flags: HW
LayerCount: 2
Fore
SplineSet
82.6 234 m 1
 106.6 385 211.9 465 367.35 465 c 3
 418.35 465 477.3 453.25 515.6 408 c 1
 535.2 577.7 489.55 631 390.1 631 c 3
 314.05 631 239.85 603 198.85 580 c 1
 189.1 662 l 1
 263.1 706 322.45 740 410.7 740 c 3
 583.6 740 662.3 587.05 628.95 373 c 0
 593.9 148.45 492.75 -5 301.8 -5 c 3
 164.3 -5 63.45 96.8 82.6 234 c 1
198.25 230 m 0
 185.4 147.35 242.7 102.95 314.45 102.95 c 3
 432.3 102.95 486.9 265.55 497.1 325.45 c 1
 472.4 340.6 424.7 357.05 364.8 357.05 c 3
 258.15 357.05 209.45 300.8 198.25 230 c 0
EndSplineSet
EndChar

StartChar: summation
Encoding: 423 8721 352
Width: 577
VWidth: 0
Flags: HW
LayerCount: 2
Fore
SplineSet
2.05 -200 m 1
 19.65 -88 l 1
 290.05 270 l 1
 132.45 623 l 1
 150.05 732 l 1
 676.05 732 l 1
 658.45 623 l 9
 271.85 623 l 17
 431.2 260.25 l 9
 174.85 -88 l 25
 545.65 -88 l 17
 528.05 -200 l 1
 2.05 -200 l 1
EndSplineSet
EndChar

StartChar: product
Encoding: 424 8719 353
Width: 648
VWidth: 0
Flags: HW
LayerCount: 2
Fore
SplineSet
95.85 0 m 1
 194.25 623 l 1
 115.25 623 l 1
 132.85 732 l 1
 747.35 732 l 1
 729.75 623 l 1
 649.75 623 l 1
 551.35 0 l 1
 435.35 0 l 1
 533.75 623 l 1
 310.25 623 l 1
 211.85 0 l 1
 95.85 0 l 1
EndSplineSet
EndChar

StartChar: pi
Encoding: 425 960 354
Width: 642
VWidth: 0
Flags: HW
LayerCount: 2
Fore
SplineSet
83.25 422 m 1
 100.85 531 l 1
 661.35 531 l 1
 643.75 422 l 1
 539.25 422 l 1
 500.95 180 l 2
 490 111.25 509.3 94.5 556.7 94.5 c 2
 640.2 94.5 l 1
 629.35 26 l 1
 601.35 9 563.15 -5 509.35 -5 c 3
 422.5 -5 363.25 44.5 384.25 176.5 c 2
 423.25 422 l 1
 278.25 422 l 1
 211.5 0 l 1
 95.5 0 l 1
 162.25 422 l 1
 83.25 422 l 1
EndSplineSet
EndChar

StartChar: integral
Encoding: 426 8747 355
Width: 442
VWidth: 0
Flags: HW
LayerCount: 2
Fore
SplineSet
-11.15 -179 m 1
 0.7 -105.5 l 1
 73.2 -105.5 l 1
 143.2 -105.5 161.45 -0.85 176.35 88 c 9
 242.35 506 l 18
 268.05 668.15 321.85 800 438.85 800 c 3
 510.7 800 530.85 782 547.85 775 c 1
 536 701.5 l 1
 465.5 701.5 l 1
 396.5 701.5 374.3 600.8 358.35 506 c 1
 292.35 88 l 2
 265.95 -80.45 219.85 -204 99.85 -204 c 3
 47.65 -204 7.85 -193 -11.15 -179 c 1
EndSplineSet
EndChar

StartChar: Omega
Encoding: 427 937 356
Width: 767
VWidth: 0
Flags: HW
LayerCount: 2
Fore
SplineSet
60.85 0 m 1
 76.75 99.5 l 1
 197.75 109.5 l 1
 94.6 189.9 102.5 318.85 117.9 405.5 c 0
 145.15 558.85 236.6 739 498.6 739 c 3
 732.3 739 799.7 568.5 770.7 386.5 c 0
 751.7 269.5 722.35 183.1 617.25 108.5 c 1
 730.25 98.5 l 1
 714.35 0 l 1
 472.35 0 l 1
 490.25 109.5 l 1
 615.05 190.2 635.8 267.4 654.35 385 c 0
 672.8 502 656.5 630 484.5 630 c 3
 316.8 630 249.65 500.7 230.85 380 c 0
 212.3 263.75 210.05 206.6 312.75 109.5 c 1
 294.85 0 l 1
 60.85 0 l 1
EndSplineSet
EndChar

StartChar: radical
Encoding: 428 8730 357
Width: 647
VWidth: 0
Flags: HW
LayerCount: 2
Fore
SplineSet
56.65 256 m 1
 74.25 365 l 1
 223.3 365 l 1
 290.95 159 l 1
 634.45 800 l 1
 757.1 800 l 1
 334.95 0 l 1
 223.2 0 l 1
 132.05 256 l 1
 56.65 256 l 1
EndSplineSet
EndChar

StartChar: florin
Encoding: 429 402 358
Width: 495
VWidth: 0
Flags: HW
LayerCount: 2
Fore
SplineSet
-11.15 -179 m 1
 6.7 -105.5 l 1
 79.2 -105.5 l 2
 149.2 -105.5 173.95 -0.85 191.4 88 c 2
 252.35 383 l 1
 160.15 383 l 1
 183.3 478.65 l 1
 275.5 478.65 l 1
 280.5 506 l 2
 312.85 660.8 369.1 796.5 486.1 800 c 1
 549.8 802.8 591.2 778.75 600.7 775 c 1
 583.2 701.5 l 1
 512.7 701.5 l 1
 443.05 701.5 419.3 600.8 398.45 506 c 2
 393.45 478 l 1
 518.35 478 l 1
 495.2 383 l 1
 370.3 383 l 1
 309.35 88 l 2
 276.3 -68.55 229.4 -199.8 101.95 -204 c 1
 50.7 -206.45 -1.3 -186.5 -11.15 -179 c 1
EndSplineSet
EndChar

StartChar: approxequal
Encoding: 430 8776 359
Width: 517
VWidth: 0
Flags: HW
LayerCount: 2
Fore
SplineSet
82.35 256.3 m 17
 124.9 288.95 176.35 327.3 240.35 327.3 c 27
 300.35 327.3 323.35 290.3 383.35 290.3 c 27
 430.35 290.3 455.45 308.15 503.35 329.3 c 9
 518 274.35 l 17
 475.7 243.15 428.6 201.3 367.9 201.3 c 3
 313.15 201.3 284.9 239.3 224.9 239.3 c 27
 173.9 239.3 145.55 216.3 94.9 201.3 c 25
 82.35 256.3 l 17
110.7 435.75 m 17
 153.25 468.4 204.7 506.75 268.7 506.75 c 27
 328.7 506.75 352.05 469.75 412.05 469.75 c 27
 459.05 469.75 483.8 487.6 531.7 508.75 c 9
 546.35 453.8 l 17
 504.05 422.6 456.95 380.75 396.25 380.75 c 3
 341.5 380.75 313.25 418.75 253.25 418.75 c 27
 202.25 418.75 173.9 395.75 123.25 380.75 c 25
 110.7 435.75 l 17
EndSplineSet
EndChar

StartChar: uni2206
Encoding: 431 8710 360
Width: 720
VWidth: 0
Flags: HW
LayerCount: 2
Fore
SplineSet
16.85 0 m 1
 443.85 732 l 1
 520.45 732 l 1
 703.45 0 l 1
 16.85 0 l 1
202 105.5 m 1
 578.05 105.5 l 1
 464.8 564.25 l 1
 202 105.5 l 1
EndSplineSet
EndChar

StartChar: lozenge
Encoding: 432 9674 361
Width: 515
VWidth: 0
Flags: HW
LayerCount: 2
Fore
SplineSet
75.85 373 m 1
 339.85 732 l 1
 413.85 732 l 1
 557.85 373 l 1
 297.85 0 l 1
 223.85 0 l 1
 75.85 373 l 1
195.8 368.6 m 1
 277.2 150.65 l 1
 442.9 381.95 l 1
 358.5 586.95 l 1
 195.8 368.6 l 1
EndSplineSet
EndChar

StartChar: onequarter
Encoding: 188 188 362
Width: 944
VWidth: 0
Flags: HW
LayerCount: 2
Fore
SplineSet
111.5 611.7 m 1
 121.3 674 l 1
 173.3 674 239 723.85 250.2 736.8 c 1
 339.6 736.8 l 1
 263.25 255.65 l 1
 171.85 255.65 l 1
 233.7 638.35 l 1
 212.85 622.2 161.55 611.7 111.5 611.7 c 1
184.6 0 m 1
 737.6 770 l 1
 826.6 770 l 1
 273.6 0 l 1
 184.6 0 l 1
545.65 144 m 1
 783.55 478.85 l 1
 885.2 478.85 l 1
 687.45 194.8 l 1
 815.55 194.8 l 1
 832.8 303.9 l 1
 866.35 352.95 l 1
 930.1 352.95 l 1
 904.85 194.8 l 1
 957.2 194.8 l 1
 945.7 121.8 l 1
 889.95 106 l 1
 874.45 0.35 l 1
 785.15 0.35 l 1
 801.7 105.65 l 1
 566.05 105.65 l 1
 545.65 144 l 1
EndSplineSet
Ligature2: "'frac' Diagonal Fractions lookup 11 subtable" one fraction four
Ligature2: "'frac' Diagonal Fractions lookup 11 subtable" one slash four
EndChar

StartChar: brokenbar
Encoding: 166 166 363
Width: 247
VWidth: 0
Flags: HW
LayerCount: 2
Fore
SplineSet
60.7 -72 m 1
 112.7 256 l 1
 214.7 256 l 1
 162.7 -72 l 1
 60.7 -72 l 1
139.7 429 m 1
 193.7 770 l 1
 295.7 770 l 1
 241.7 429 l 1
 139.7 429 l 1
EndSplineSet
EndChar

StartChar: currency
Encoding: 164 164 364
Width: 454
VWidth: 0
Flags: HW
LayerCount: 2
Fore
SplineSet
72.7 178.75 m 1
 126.8 225.2 l 1
 114.25 251.45 107 279.05 112.3 312.9 c 0
 116.95 344.1 127.3 373 146.5 397.25 c 1
 107.05 442.65 l 1
 159.35 486.7 l 1
 196.8 442.95 l 1
 225.45 461.25 258.1 471.9 291.4 471.9 c 0
 326.6 471.9 361.7 461.6 385 442.7 c 1
 439.95 490.05 l 1
 480.6 440.95 l 1
 424.2 392.2 l 1
 435.15 368.55 440.1 337.65 435.45 307.7 c 0
 430.1 272.7 416.7 240.05 394.35 213.4 c 1
 436.6 163.9 l 1
 383.7 118.5 l 1
 340.9 168.9 l 1
 314.7 152.75 281.95 146.45 251.15 146.45 c 0
 219.2 146.45 188.3 157.4 166.3 174.35 c 1
 113.6 127.95 l 1
 72.7 178.75 l 1
185.2 311.6 m 0
 177.25 261.65 210.35 220 259 219.35 c 0
 319.35 218.7 353.95 259.7 363.85 309 c 0
 373.75 356.35 341.95 400.95 287.45 400.3 c 0
 231 399.65 193.15 360.25 185.2 311.6 c 0
EndSplineSet
EndChar

StartChar: onehalf
Encoding: 189 189 365
Width: 1003
VWidth: 0
Flags: HW
LayerCount: 2
Fore
SplineSet
111.5 611.7 m 1
 121.3 674 l 1
 173.3 674 239 723.85 250.2 736.8 c 1
 339.6 736.8 l 1
 263.25 255.65 l 1
 171.85 255.65 l 1
 233.7 638.35 l 1
 212.85 622.2 161.55 611.7 111.5 611.7 c 1
177.1 0 m 1
 730.1 770 l 1
 819.1 770 l 1
 266.1 0 l 1
 177.1 0 l 1
640.3 -0.35 m 25
 653.15 81.45 l 17
 723.2 127.75 915.7 246.8 929.85 335.65 c 1
 937.15 382.7 921 399.7 864.4 399.7 c 2
 700.8 399.7 l 2
 699.5 399.7 710.65 469.05 711.3 468.4 c 1
 775.5 478.15 822.55 485.85 904.35 485.85 c 3
 1001.65 485.85 1034.65 397.1 1024.55 338.65 c 1
 1005.35 210.35 854.75 117.9 817.7 85.8 c 9
 983.45 85.8 l 25
 969.6 -0.35 l 25
 640.3 -0.35 l 25
EndSplineSet
Ligature2: "'frac' Diagonal Fractions lookup 11 subtable" one fraction two
Ligature2: "'frac' Diagonal Fractions lookup 11 subtable" one slash two
EndChar

StartChar: threequarters
Encoding: 190 190 366
Width: 1057
VWidth: 0
Flags: HW
LayerCount: 2
Fore
SplineSet
71.45 270.35 m 1
 82.95 336.8 l 1
 103.75 336.8 249.1 337.45 249.1 337.45 c 2
 292 337.45 320.3 348.85 325.9 385.5 c 2
 328.85 402.2 l 2
 335.1 443.05 309.3 454.45 271.5 455.8 c 2
 142.05 460.45 l 2
 153.55 533.3 l 1
 285.35 538.6 l 2
 330.7 540.6 354.85 554.55 359.8 588.25 c 2
 361.75 603.95 l 2
 368.05 639.65 349.8 651.35 303.1 651.35 c 2
 127.95 651.35 l 1
 138.45 717.45 l 1
 200.2 738.5 269.95 738.2 348.05 736.85 c 0
 425.05 735.85 464.6 679.85 454.2 613.2 c 2
 448.9 581.35 l 2
 440.9 533.65 416.55 499.45 382.6 490.85 c 1
 415 475.6 425.9 434.95 419.2 393.05 c 2
 415.2 367.85 l 2
 403.5 293.35 361.75 250.65 266.35 251.3 c 0
 190.25 251.3 126.5 249.3 71.45 270.35 c 1
284 0 m 1
 837 770 l 1
 926 770 l 1
 373 0 l 1
 284 0 l 1
633.1 144 m 1
 871.35 478.85 l 1
 972.35 478.85 l 1
 774.25 194.8 l 1
 903 194.8 l 1
 920.25 303.9 l 1
 953.8 352.95 l 1
 1017.55 352.95 l 1
 992.3 194.8 l 1
 1044 194.8 l 1
 1032.85 121.8 l 1
 977.4 106 l 1
 961.9 0.35 l 1
 871.95 0.35 l 1
 889.15 105.65 l 1
 652.85 105.65 l 1
 633.1 144 l 1
EndSplineSet
Ligature2: "'frac' Diagonal Fractions lookup 11 subtable" three fraction four
Ligature2: "'frac' Diagonal Fractions lookup 11 subtable" three slash four
EndChar

StartChar: Hbar
Encoding: 435 294 369
Width: 653
VWidth: 0
Flags: HW
LayerCount: 2
Fore
SplineSet
71.35 0 m 1
 153.35 516.65 l 1
 90.95 516.65 l 1
 100 578.3 l 1
 162.4 578.3 l 1
 187.35 732 l 1
 303.35 732 l 1
 278.4 578.3 l 1
 565.4 578.3 l 1
 590.35 732 l 1
 706.35 732 l 1
 681.4 578.3 l 1
 742.5 578.3 l 1
 733.45 516.65 l 1
 672.35 516.65 l 1
 590.35 0 l 1
 474.35 0 l 1
 522.85 300.15 l 1
 235.85 300.15 l 1
 187.35 0 l 1
 71.35 0 l 1
252.15 409.8 m 1
 539.15 409.8 l 1
 556.35 516.65 l 1
 269.35 516.65 l 1
 252.15 409.8 l 1
EndSplineSet
Substitution2: "'c2sc' Capitals to Small Capitals in Latin lookup 17 subtable" hbar.smcp
EndChar

StartChar: hbar
Encoding: 440 295 374
Width: 552
VWidth: 0
Flags: HW
LayerCount: 2
Fore
SplineSet
60 0 m 1
 156.3 606.5 l 1
 85.25 606.5 l 1
 94.65 667.5 l 1
 165.7 667.5 l 1
 184 783.3 l 1
 301.6 783.3 l 1
 283.3 667.5 l 1
 403.65 667.5 l 1
 394.25 606.5 l 1
 273.9 606.5 l 1
 252.3 472.5 l 1
 313.35 505.4 364.7 540.65 435.95 540 c 0
 553.15 540 583.1 455.9 567.7 359.5 c 2
 510.45 0 l 1
 394.45 0 l 1
 451.7 360.9 l 2
 460.65 418.5 435.4 442.15 394.55 441.5 c 0
 346.5 440.85 299.7 425 240.15 391.5 c 1
 177.95 0 l 1
 60 0 l 1
EndSplineSet
Substitution2: "'smcp' Lowercase to Small Capitals lookup 16-1" hbar.smcp
EndChar

StartChar: jcircumflex
Encoding: 442 309 376
Width: 228
VWidth: 0
Flags: HW
LayerCount: 2
Fore
SplineSet
16.9 -270 m 1
 143.9 531 l 1
 263.15 531 l 1
 178.15 -4 l 2
 165.15 -90 147.15 -182.9 103.15 -270 c 1
 16.9 -270 l 1
52.05 595.95 m 1
 183.8 732.05 l 1
 275.8 732.05 l 1
 354.55 595.95 l 1
 270.85 595.95 l 1
 222.35 665.8 l 1
 145.85 595.95 l 1
 52.05 595.95 l 1
EndSplineSet
Substitution2: "'smcp' Lowercase to Small Capitals lookup 16-1" jcircumflex.smcp
EndChar

StartChar: f_f
Encoding: 457 64256 391
Width: 796
VWidth: 0
Flags: HW
LayerCount: 2
Fore
SplineSet
85.35 436 m 1
 97.85 514 l 1
 199.5 531 l 1
 213.5 620 l 2
 223.2 680.3 255.5 776 375.5 776 c 0
 424.5 776 467.4 768.7 510.2 752.65 c 1
 498.7 681.6 l 1
 498.35 681.6 398.35 681.95 398.35 681.95 c 2
 341.65 682.3 334.7 649.45 326.7 601.45 c 2
 315.5 531 l 1
 583.55 531 l 1
 598.9 630 l 2
 611.4 707.45 648.25 786 768.25 786 c 0
 817.25 786 856.6 779.4 899.75 762.65 c 1
 888.25 691.95 l 1
 887.9 691.95 784.05 692.3 784.05 692.3 c 2
 725.6 692.65 720.1 661.9 711.4 609 c 2
 699.55 531 l 1
 828.75 531 l 1
 813.6 436 l 1
 683.1 436 l 1
 614.25 0 l 1
 498.25 0 l 1
 567.1 436 l 1
 298.35 436 l 1
 229.5 0 l 1
 113.5 0 l 1
 182.35 436 l 1
 85.35 436 l 1
EndSplineSet
Ligature2: "'dlig' Discretionary Ligatures lookup 14-1" f f
EndChar

StartChar: f_f_i
Encoding: 458 64259 392
Width: 994
VWidth: 0
Flags: HW
LayerCount: 2
Fore
SplineSet
85.35 436 m 1
 97.85 514 l 1
 199.5 531 l 1
 213.5 620 l 2
 223.2 680.3 255.5 776 375.5 776 c 0
 424.5 776 467.4 768.7 510.2 752.65 c 1
 498.7 681.6 l 1
 498.35 681.6 398.35 681.95 398.35 681.95 c 2
 341.65 682.3 336.05 649.45 326.35 601.45 c 2
 313.85 531 l 1
 560.9 531 l 1
 567.5 575.6 l 2
 587.15 701.15 681.4 784.6 810.2 786 c 1
 874.15 786.35 978.75 779.4 1021.9 762.65 c 1
 1010.75 691.95 l 1
 1010.4 691.95 833.35 692.3 833.35 692.3 c 2
 774.25 692.3 699.45 674.5 683.15 572.1 c 2
 676.9 531 l 1
 1025.85 521 l 1
 943.85 0 l 1
 827.2 0 l 1
 896.05 436 l 1
 660.45 436 l 1
 591.6 0 l 1
 475.6 0 l 1
 544.45 436 l 1
 298.7 436 l 1
 229.85 0 l 1
 113.5 0 l 1
 182.35 436 l 1
 85.35 436 l 1
EndSplineSet
Ligature2: "'dlig' Discretionary Ligatures lookup 14-1" f f i
EndChar

StartChar: ffl
Encoding: 459 64260 393
Width: 1091
VWidth: 0
Flags: HW
LayerCount: 2
Fore
SplineSet
85.35 436 m 1
 97.85 514 l 1
 199.5 531 l 1
 213.5 620 l 2
 223.2 680.3 255.5 776 375.5 776 c 0
 424.5 776 467.4 768.7 510.2 752.65 c 1
 498.7 681.6 l 1
 498.35 681.6 398.35 681.95 398.35 681.95 c 2
 341.65 682.3 335.35 649.45 326.35 601.45 c 2
 313.85 531 l 1
 562.65 531 l 1
 569.95 579.1 l 2
 591.15 714.05 663.1 783.4 787 786 c 1
 1074.2 784.95 l 1
 982.65 203 l 2
 969.7 122.3 981.4 107 1015.05 95 c 1
 1015.05 95 1079.7 74 1086.7 74 c 1
 1075.2 0 l 1
 980.2 0 l 2
 885.85 0 842.2 48 864.2 189 c 2
 942.75 691.95 l 1
 927 691.95 796.15 692.3 796.15 692.3 c 2
 737.05 692.3 700.5 671 685.95 579.1 c 2
 678.65 531 l 1
 807.85 531 l 1
 792.35 436 l 1
 661.85 436 l 1
 593 0 l 1
 477 0 l 1
 545.85 436 l 1
 298.7 436 l 1
 229.85 0 l 1
 113.5 0 l 1
 182.35 436 l 1
 85.35 436 l 1
EndSplineSet
Ligature2: "'dlig' Discretionary Ligatures lookup 14-1" f f l
EndChar

StartChar: c_t
Encoding: 460 -1 394
Width: 854
VWidth: 0
Flags: HW
LayerCount: 2
Fore
SplineSet
74.05 274.75 m 0
 115.6 520.4 198.75 531.05 295.55 531.05 c 0
 675.2 532.3 l 1
 720.35 679.65 l 1
 814.85 679.65 l 1
 791.2 531.65 l 1
 923.1 531.65 l 1
 907.95 435.35 l 1
 776.05 435.35 l 1
 739.3 203.65 l 2
 725.05 114.45 737.7 105.65 773.3 94.95 c 2
 773.3 94.95 835.05 75.9 838.15 75.9 c 1
 826 -0.05 l 1
 733.3 -0.05 l 2
 643.55 -0.05 599.2 49.3 621.2 189.65 c 2
 660.05 435.35 l 1
 318.55 435 l 3
 259.2 435 220.85 439.55 189.05 260.25 c 0
 164.5 118.6 193 91.5 260.45 91.5 c 3
 352.45 91.5 469.8 101.45 469.8 101.45 c 1
 457.65 25.15 l 17
 373.7 -0.65 312.4 -7 212.95 -6.35 c 0
 110.95 -5.7 38.35 62.55 74.05 274.75 c 0
EndSplineSet
Ligature2: "'dlig' Discretionary Ligatures lookup 14-1" c t
EndChar

StartChar: s_t
Encoding: 461 64262 395
Width: 887
VWidth: 0
Flags: HW
LayerCount: 2
Fore
SplineSet
58.75 16.4 m 9
 70.9 92.05 l 17
 329.85 92.05 l 18
 335.8 92.05 371.95 90.6 379.15 133.1 c 2
 385.35 167.35 l 2
 389.95 194.3 383.05 209.4 348.85 209.4 c 10
 219.4 209.4 l 2
 125.4 209.4 74.35 253.7 90.35 354.75 c 10
 97.3 401.4 l 18
 109.85 486.35 157.5 531.65 260.5 531.65 c 1
 702.05 531.65 l 1
 746.55 679.65 l 1
 841.05 679.65 l 1
 818.05 531.65 l 1
 949.95 531.65 l 1
 934.45 437.95 l 1
 802.55 437.95 l 1
 766.15 203.65 l 2
 752.55 114.45 763.9 105.65 799.5 94.95 c 2
 799.5 94.95 861.55 75.9 864.65 75.9 c 1
 852.5 -0.05 l 1
 759.8 -0.05 l 2
 670.05 -0.05 625.7 49.3 647.7 189.65 c 2
 686.2 434.1 l 1
 269.1 434.1 l 1
 222.95 434.1 215.25 407.45 212.25 388.8 c 10
 206.7 356.15 l 18
 198.5 307 227.05 313.5 249.45 313.5 c 2
 381.95 313.5 l 2
 478.05 313.5 514.4 248.65 502.05 172.25 c 1
 494.1 113.25 l 2
 478.85 3.9 401.5 -8.9 342.7 -8.9 c 3
 278.3 -8.9 93.3 -0.55 58.75 16.4 c 9
EndSplineSet
Ligature2: "'dlig' Discretionary Ligatures lookup 14-1" s t
EndChar

StartChar: t_t
Encoding: 462 -1 396
Width: 749
VWidth: 0
Flags: HW
LayerCount: 2
Fore
SplineSet
85.7 437 m 1
 96.8 507 l 1
 191.45 532 l 1
 236.3 680 l 1
 330.8 680 l 1
 307.45 532 l 1
 568.45 532 l 1
 613.3 680 l 1
 707.8 680 l 1
 684.45 532 l 1
 816.35 532 l 1
 801.2 437 l 1
 669.3 437 l 1
 632.9 204 l 2
 618.65 114.8 633.55 105.35 665.9 95.3 c 1
 665.9 95.3 727.65 76.25 730.75 76.25 c 1
 719.25 0.3 l 1
 633.05 0.3 l 2
 551.1 0.3 492.45 49.65 514.45 190 c 2
 553.3 437 l 1
 292.3 437 l 1
 254.9 204 l 2
 240.65 114.8 255.9 105.35 288.25 95.3 c 1
 288.25 95.3 350 76.25 353.1 76.25 c 1
 341.6 0.3 l 1
 255.4 0.3 l 2
 173.45 0.3 114.8 49.65 137.45 190 c 2
 176.3 437 l 1
 85.7 437 l 1
EndSplineSet
Ligature2: "'dlig' Discretionary Ligatures lookup 14-1" t t
EndChar

StartChar: f_t
Encoding: 463 -1 397
Width: 761
VWidth: 0
Flags: HW
LayerCount: 2
Fore
SplineSet
85.35 436 m 1
 97.85 514 l 1
 190.05 531 l 1
 205.4 630 l 2
 217.9 707.45 254.75 786 374.75 786 c 0
 423.75 786 463.1 779.4 506.25 762.65 c 1
 494.75 691.95 l 1
 494.4 691.95 390.55 692.3 390.55 692.3 c 2
 332.1 692.65 326.6 661.9 317.9 609 c 2
 306.05 532 l 1
 581.75 532 l 1
 626.25 680 l 1
 720.75 680 l 1
 697.75 532 l 1
 829.65 532 l 1
 814.5 437 l 1
 682.6 437 l 1
 647.15 204 l 2
 633.55 114.8 648.15 105.35 680.5 95.3 c 1
 680.5 95.3 742.55 76.25 745.65 76.25 c 1
 733.85 0.3 l 1
 647.65 0.3 l 2
 565.7 0.3 507.7 49.65 529.05 190 c 2
 566.6 437 l 1
 289.6 437 l 1
 220.75 0 l 1
 104.75 0 l 1
 173.6 436 l 1
 85.35 436 l 1
EndSplineSet
Ligature2: "'dlig' Discretionary Ligatures lookup 14-1" f t
EndChar

StartChar: t_y
Encoding: 464 -1 398
Width: 935
VWidth: 0
Flags: HW
LayerCount: 2
Fore
SplineSet
85.7 437 m 1
 96.8 507 l 1
 191.45 532 l 1
 236.3 680 l 1
 330.8 680 l 1
 307.45 532 l 1
 457.75 532 l 1
 562.15 531.35 606.5 490.35 616.95 405.95 c 2
 652.8 144.95 l 2
 658.35 102.25 702.1 106.3 709.45 105.95 c 1
 867.6 433.65 l 2
 880.2 461 887.95 486.8 893.6 533.95 c 1
 998.35 533.95 l 1
 1010.05 485.55 996.35 436.4 979.25 398.75 c 1
 789.45 1.95 l 2
 693.7 -201.65 588.3 -262.85 496.55 -279.95 c 1
 496.55 -197.9 l 1
 582.8 -148.05 629.4 -70.75 666.4 1.3 c 1
 607.45 1.3 550.2 30.9 538.35 127.4 c 2
 499.75 379.35 l 2
 493.8 428.5 474.4 437 416.35 437 c 1
 292.3 437 l 1
 255.55 203.35 l 2
 241.3 114.15 256.55 104.7 288.9 94.65 c 2
 288.9 94.65 350.65 75.6 353.75 75.6 c 1
 342.25 -0.35 l 1
 256.05 -0.35 l 2
 174.1 -0.35 115.45 49 137.45 189.35 c 2
 176.3 437 l 1
 85.7 437 l 1
EndSplineSet
Ligature2: "'dlig' Discretionary Ligatures lookup 14-1" t y
EndChar

StartChar: f_y
Encoding: 465 -1 399
Width: 948
VWidth: 0
Flags: HW
LayerCount: 2
Fore
SplineSet
85.35 436 m 1
 97.85 514 l 1
 190.05 531 l 1
 205.4 630 l 2
 217.9 707.45 254.75 786 374.75 786 c 0
 423.75 786 463.1 779.4 506.25 762.65 c 1
 494.75 691.95 l 1
 494.4 691.95 390.55 692.3 390.55 692.3 c 2
 332.1 692.65 326.6 661.9 317.9 609 c 2
 306.05 531 l 1
 469.35 531 l 1
 575.5 531.35 620.5 487.1 630.95 403.35 c 2
 667.8 142.35 l 2
 674 99.65 721.95 103.7 727.55 103.35 c 1
 880.5 431.05 l 2
 892.45 458.4 900.2 484.2 905.85 531.35 c 1
 1010.6 531.35 l 1
 1022.3 482.95 1009.25 433.8 992.15 396.15 c 1
 801.7 -0.65 l 2
 705.95 -204.25 601.2 -265.45 509.45 -282.55 c 1
 509.45 -200.5 l 1
 595.7 -150.65 642.65 -73.35 679.65 -1.3 c 1
 622.8 -1.3 566.15 28.3 552.35 124.8 c 2
 514.4 376.75 l 2
 507.8 425.9 487.75 436.35 429.35 436 c 1
 289.6 436 l 1
 220.75 0 l 1
 104.75 0 l 1
 173.6 436 l 1
 85.35 436 l 1
EndSplineSet
Ligature2: "'dlig' Discretionary Ligatures lookup 14-1" f y
EndChar

StartChar: kgreenlandic
Encoding: 466 312 400
Width: 553
VWidth: 0
Flags: HW
LayerCount: 2
Fore
SplineSet
50.9 0 m 1
 134.9 531 l 1
 251.25 531 l 1
 216.65 310.5 l 1
 285.8 310.5 l 1
 480.65 531 l 1
 620.7 531 l 1
 390.05 257.05 l 1
 531.15 0 l 1
 399.45 0 l 1
 280.9 215.5 l 1
 202.15 215.5 l 9
 167.25 0 l 17
 50.9 0 l 1
EndSplineSet
EndChar

StartChar: Tbar
Encoding: 472 358 406
Width: 592
VWidth: 0
Flags: HW
LayerCount: 2
Fore
SplineSet
128.15 623 m 1
 145.75 732 l 1
 674.75 732 l 1
 657.15 623 l 1
 447.65 623 l 1
 418.2 437 l 1
 524.2 437 l 1
 514.8 376 l 1
 408.8 376 l 1
 349.25 0 l 1
 233.25 0 l 1
 292.8 376 l 1
 186.8 376 l 1
 196.2 437 l 1
 302.2 437 l 1
 331.65 623 l 1
 128.15 623 l 1
EndSplineSet
Substitution2: "'c2sc' Capitals to Small Capitals in Latin lookup 17 subtable" tbar.smcp
EndChar

StartChar: gcommaaccent
Encoding: 477 291 411
Width: 582
VWidth: 0
Flags: HW
LayerCount: 2
Fore
SplineSet
34.5 -248 m 1
 46.7 -171 l 1
 283.7 -171 l 2
 332.8 -171 373.7 -140 383.7 -76 c 2
 401.2 34.25 l 1
 347.9 7.55 292.5 -3.75 247.5 -3.75 c 3
 89.95 -3.75 66.3 118.4 93.05 288.3 c 0
 121.1 463.65 204.9 539.1 321.45 539.1 c 3
 427.45 539.1 546.1 521.85 593.85 511.55 c 1
 499 -86.5 l 2
 477.95 -218.2 396.45 -284.2 278 -272 c 2
 34.5 -248 l 1
209.4 276.05 m 0
 196.6 190.7 179.05 92.7 271.35 92.7 c 3
 326.45 92.7 352.9 96.7 413.7 115.6 c 1
 466.35 444.1 l 2
 331.6 444.1 l 2
 241.75 444.1 217.45 326.3 209.4 276.05 c 0
333 621.9 m 2
 348.15 721.8 l 2
 363.55 816.9 464.05 791.45 464.05 791.45 c 1
 457.65 753 l 0
 430.65 754 427.65 737.8 426 728.15 c 2
 423.05 711.8 l 1
 433.05 711.8 l 2
 446.05 711.8 454.05 704.8 452.05 689.8 c 2
 441.9 621.9 l 2
 438.9 605.9 429.55 597.9 414.9 597.9 c 2
 350 597.9 l 2
 334 597.9 331 607.9 333 621.9 c 2
EndSplineSet
AlternateSubs2: "'salt' Access All Alternates in Latin lookup 4-1" gcommaaccent.salt
Substitution2: "'smcp' Lowercase to Small Capitals lookup 16-1" gcommaaccent.smcp
EndChar

StartChar: gcommaaccent.salt
Encoding: 478 -1 412
Width: 517
VWidth: 0
Flags: HW
LayerCount: 2
Fore
SplineSet
15.85 -109 m 0
 59.45 114 l 0
 64.45 150 86.45 200 136.45 200 c 1
 88.75 230.8 83.45 301.5 91.45 354.5 c 0
 112.5 490.1 195 535 297.45 533 c 2
 398.95 531 l 2
 466.95 530.65 559.15 488.85 536.95 333.5 c 0
 526.25 256.5 475.95 148 333.95 148 c 2
 221.95 148 l 2
 205.95 148 181.3 153 176.3 126.25 c 0
 171.95 103.05 192.35 96.85 213 93.5 c 2
 369.7 69.55 l 2
 437.35 58.1 505.75 10 491.35 -79.5 c 2
 484.95 -119.5 l 2
 472.9 -196.15 447.45 -270 300.45 -270 c 2
 171.95 -270 l 2
 50.35 -270 -3.15 -205 15.85 -109 c 0
133.2 -105.5 m 2
 121.4 -163.95 154.8 -168.5 190.8 -168.5 c 2
 302.3 -168.5 l 2
 349.05 -168.5 364.75 -145.85 370.35 -109 c 2
 373.95 -86.95 l 2
 379.9 -46.6 357.7 -30.95 315.8 -24 c 2
 154.85 0 l 1
 133.2 -105.5 l 2
207.45 344 m 0
 199.45 295 203.3 244 265.95 244 c 2
 335.45 244 l 2
 395.05 244 415.3 307.4 420.95 344 c 0
 429.95 399 424.4 438 365.8 438 c 2
 296.3 438 l 2
 232.5 438 216.45 396 207.45 344 c 0
302.6 618.4 m 2
 318.4 718.3 l 2
 333.8 813.4 433.3 787.95 433.3 787.95 c 1
 427.9 749.5 l 0
 400.9 750.5 397.25 734.3 395.6 724.65 c 2
 393.3 708.3 l 1
 403.3 708.3 l 2
 416.3 708.3 424.3 701.3 422.3 686.3 c 2
 411.5 618.4 l 2
 408.5 602.4 399.8 594.4 385.15 594.4 c 2
 320.25 594.4 l 2
 304.25 594.4 300.6 604.4 302.6 618.4 c 2
EndSplineSet
EndChar

StartChar: tbar
Encoding: 479 359 413
Width: 370
VWidth: 0
Flags: HW
LayerCount: 2
Fore
SplineSet
70.55 261 m 1
 80.6 322 l 1
 154.95 322 l 1
 172.8 437 l 1
 82.2 437 l 1
 93.3 507 l 1
 187.95 532 l 1
 232.45 680 l 1
 326.95 680 l 1
 303.95 532 l 1
 435.85 532 l 1
 420.7 437 l 1
 288.8 437 l 1
 270.95 322 l 1
 361.6 322 l 1
 351.55 261 l 1
 260.9 261 l 1
 252.05 204 l 2
 237.8 114.8 253.05 105.35 285.4 95.3 c 1
 285.4 95.3 347.8 76.25 350.9 76.25 c 1
 338.75 0.3 l 1
 252.55 0.3 l 2
 170.6 0.3 111.95 49.65 133.95 190 c 2
 144.9 261 l 1
 70.55 261 l 1
EndSplineSet
AlternateSubs2: "'salt' Access All Alternates in Latin lookup 4-1" tbar.salt
Substitution2: "'smcp' Lowercase to Small Capitals lookup 16-1" tbar.smcp
EndChar

StartChar: Eng
Encoding: 480 330 414
Width: 665
VWidth: 0
Flags: HW
LayerCount: 2
Fore
SplineSet
67.75 0 m 1
 183.75 732 l 1
 299.15 732 l 1
 533 215 l 1
 614.75 732 l 1
 730.75 732 l 1
 615.4 2.6 l 1
 602.8 -77 l 1
 576.35 -243.35 453.25 -261.55 335.25 -257 c 1
 348.8 -172 l 1
 406.3 -161.25 472.6 -164.8 488.1 -66.5 c 1
 499.4 3.9 l 1
 266.15 513.5 l 1
 184.75 0 l 1
 67.75 0 l 1
EndSplineSet
Substitution2: "'c2sc' Capitals to Small Capitals in Latin lookup 17 subtable" eng.smcp
EndChar

StartChar: eng
Encoding: 481 331 415
Width: 556
VWidth: 0
Flags: HW
LayerCount: 2
Fore
SplineSet
50.9 0 m 1
 134.9 531 l 1
 225.4 531 l 1
 241.6 472.5 l 1
 302.65 505.4 350.4 540 431.4 540 c 3
 548.6 540 578.55 455.9 563.15 359.5 c 2
 505.9 0 l 1
 493 -76 l 1
 463.7 -226.35 346.15 -255.7 278.9 -268 c 1
 255.25 -205.5 l 1
 304.45 -185.3 362 -164 377 -80 c 1
 389.9 0 l 1
 447.15 360.9 l 2
 456.1 418.5 430.85 441.5 390 441.5 c 3
 325.05 441.5 288.65 425 229.1 391.5 c 1
 166.9 0 l 1
 50.9 0 l 1
EndSplineSet
Substitution2: "'smcp' Lowercase to Small Capitals lookup 16-1" eng.smcp
EndChar

StartChar: exclam.smcp
Encoding: 502 -1 436
Width: 267
VWidth: 0
Flags: HW
LayerCount: 2
Fore
SplineSet
74.85 23 m 2
 87.35 101 l 2
 89.35 116 99.35 126 115.35 126 c 2
 191.35 126 l 2
 206.35 126 212.35 115 210.35 101 c 2
 197.85 23 l 2
 195.85 8 185.85 0 171.85 0 c 2
 95.85 0 l 2
 81.85 0 72.85 9 74.85 23 c 2
108.6 177.5 m 1
 160.7 570 l 1
 282.6 570 l 1
 208.1 177.5 l 1
 108.6 177.5 l 1
EndSplineSet
EndChar

StartChar: quotedbl.smcp
Encoding: 503 -1 437
Width: 420
VWidth: 0
Flags: HW
LayerCount: 2
Fore
SplineSet
148.55 412.9 m 1
 158.2 546.9 l 1
 169.2 613.9 l 1
 281.7 613.9 l 1
 270.7 546.9 l 1
 239.7 412.9 l 1
 148.55 412.9 l 1
311.9 412.9 m 1
 322.25 546.9 l 1
 333.25 613.9 l 1
 445.75 613.9 l 1
 434.75 546.9 l 1
 403.75 412.9 l 1
 311.9 412.9 l 1
EndSplineSet
EndChar

StartChar: numbersign.smcp
Encoding: 504 -1 438
Width: 593
VWidth: 0
Flags: HW
LayerCount: 2
Fore
SplineSet
41.4 159.3 m 1
 66.15 238.65 l 1
 187.4 238.65 l 1
 221.8 341.25 l 1
 99.25 341.25 l 1
 123.35 420.6 l 1
 246.55 420.6 l 1
 297.9 578.05 l 1
 377.9 578.05 l 1
 326.55 420.6 l 1
 432.7 420.6 l 1
 483.4 578.05 l 1
 563.4 578.05 l 1
 512.7 420.6 l 1
 644.05 420.6 l 1
 619.95 341.25 l 1
 487.95 341.25 l 1
 454.2 238.65 l 1
 586.15 238.3 l 1
 562.1 158.95 l 1
 429.1 158.95 l 1
 376.7 -0.65 l 1
 296.7 -0.65 l 1
 348.45 158.95 l 1
 242.95 159.3 l 1
 190.55 -0.65 l 1
 110.55 -0.65 l 1
 162.3 159.3 l 1
 41.4 159.3 l 1
268.05 238.65 m 1
 374.2 238.65 l 1
 407.3 341.25 l 1
 301.8 341.25 l 1
 268.05 238.65 l 1
EndSplineSet
EndChar

StartChar: dollar.smcp
Encoding: 505 -1 439
Width: 513
VWidth: 0
Flags: HW
LayerCount: 2
Fore
SplineSet
63.05 12.75 m 1
 76.25 96.4 l 1
 95.75 96.4 218.95 94.6 300.85 94.6 c 0
 329.75 94.6 368.2 104.2 375.35 147.75 c 1
 380.3 177.35 l 2
 386.55 217.1 366.8 231.15 327.4 231.15 c 2
 243 231.15 l 2
 114.1 231.15 90.8 317.05 101.9 388.35 c 2
 107.25 421.45 l 1
 125.8 539.35 206.85 572.95 301.8 574.3 c 1
 312.85 645.6 l 1
 392.25 645.6 l 1
 380.55 571.6 l 1
 430.75 567.6 497.45 559.3 533.8 553.85 c 1
 520.6 468.85 l 1
 520.6 468.85 344.75 472 304.85 472 c 1
 264.8 472 230.75 460.05 222.9 410.95 c 2
 218.95 386.6 l 1
 212.4 346.6 233.95 334.7 276.35 334.7 c 2
 368.8 334.7 l 2
 477.95 334.7 509.35 247.8 497.3 172.1 c 2
 491.65 136.9 l 2
 470.55 3.95 395.45 -8.05 288.55 -8.05 c 1
 277.5 -76.35 l 1
 198.75 -76.35 l 1
 209.8 -4.4 l 1
 158.2 -0.0999999 81.7 6.9 63.05 12.75 c 1
EndSplineSet
EndChar

StartChar: percent.smcp
Encoding: 506 -1 440
Width: 917
VWidth: 0
Flags: HW
LayerCount: 2
Fore
SplineSet
80.3 367.8 m 2
 94.4 461.3 l 2
 107.4 545 137.3 586.3 244.8 586.3 c 2
 316.55 586.3 l 2
 406.75 586.3 442.8 543.2 429.15 454.3 c 2
 415.05 360.8 l 18
 401.4 270.6 368.65 235.8 265.7 235.8 c 2
 193.95 235.8 l 2
 110.9 235.8 67.95 283.45 80.3 367.8 c 2
168.05 374.8 m 2
 162.45 335.25 171.25 321.8 213.35 321.8 c 2
 267.6 321.8 l 2
 315.25 321.8 325.2 335.9 330.8 374.8 c 10
 341.75 447.3 l 2
 348.7 490.7 342.25 500.3 297.1 500.3 c 2
 242.85 500.3 l 2
 197.45 500.3 185.3 488.45 179 447.3 c 2
 168.05 374.8 l 2
252.6 0 m 1
 657.8 570 l 1
 747.7 570 l 1
 344.6 0 l 1
 252.6 0 l 1
578.15 132.65 m 2
 592.25 226.15 l 2
 605.25 309.85 634.8 351.15 742.3 351.15 c 2
 814.05 351.15 l 2
 904.25 351.15 940.65 308.05 927 219.15 c 2
 912.9 125.65 l 18
 899.9 35.45 866.5 0.65 763.55 0.65 c 2
 691.8 0.65 l 2
 608.75 0.65 565.8 48.3 578.15 132.65 c 2
665.9 139.65 m 2
 660.3 100.1 668.1 86.65 710.2 86.65 c 2
 764.45 86.65 l 2
 812.1 86.65 823.05 100.75 828.65 139.65 c 10
 839.25 212.15 l 2
 846.2 255.55 839.75 265.15 794.6 265.15 c 2
 740.35 265.15 l 2
 694.95 265.15 682.8 253.3 676.5 212.15 c 2
 665.9 139.65 l 2
EndSplineSet
EndChar

StartChar: ampersand.smcp
Encoding: 507 -1 441
Width: 562
VWidth: 0
Flags: HW
LayerCount: 2
Fore
SplineSet
74.95 75.05 m 0
 26.7 166.4 57.2 242.05 141.45 306.05 c 2
 207 355.4 l 1
 184.5 393.8 l 1
 132 484.2 200.55 562.9 267.7 569.7 c 0
 347.6 577.5 414.7 569.8 482.8 551.9 c 1
 469.6 470.9 l 1
 338.9 470.9 l 2
 287.6 470.9 273 446.05 295.25 408.2 c 2
 403.45 220.45 l 1
 509.1 299.8 l 1
 547.35 250.25 l 1
 485.3 159.4 l 1
 455.7 134.3 l 1
 537.75 0 l 1
 415.95 0 l 1
 372.75 71.7 l 1
 323.1 30.7 l 1
 260.4 -16.75 129.35 -29.35 74.95 75.05 c 0
170.45 128.05 m 0
 188.25 100.05 222.6 80.45 266.3 113.6 c 1
 320.45 158.1 l 1
 255.2 268 l 1
 196.8 226.1 l 18
 146.05 188.8 153.65 154.75 170.45 128.05 c 0
EndSplineSet
EndChar

StartChar: quotesingle.smcp
Encoding: 508 -1 442
Width: 256
VWidth: 0
Flags: HW
LayerCount: 2
Fore
SplineSet
148.2 412.9 m 1
 158.2 546.9 l 1
 169.2 613.9 l 1
 281.7 613.9 l 1
 270.7 546.9 l 1
 239.7 412.9 l 1
 148.2 412.9 l 1
EndSplineSet
EndChar

StartChar: asterisk.smcp
Encoding: 509 -1 443
Width: 431
VWidth: 0
Flags: HW
LayerCount: 2
Fore
SplineSet
105.6 402.75 m 1
 113.35 453.25 l 1
 256.65 478.75 l 1
 247.95 397.75 l 1
 105.6 402.75 l 1
142.3 252.15 m 1
 188.3 388.2 l 1
 264.6 368.75 l 1
 187.1 237 l 1
 142.3 252.15 l 1
245.05 306.8 m 1
 300.6 375.4 l 1
 397 284.45 l 1
 362.6 244.05 l 1
 245.05 306.8 l 1
257 555.5 m 1
 308.15 573.6 l 1
 359.55 452.8 l 1
 279.55 421.4 l 1
 257 555.5 l 1
307.95 408.4 m 1
 439.3 485.5 l 1
 459.6 442.8 l 1
 349.75 345.8 l 1
 307.95 408.4 l 1
EndSplineSet
EndChar

StartChar: zero.smcp
Encoding: 510 -1 444
Width: 571
VWidth: 0
Flags: HW
LayerCount: 2
Fore
SplineSet
84.15 169 m 10
 122.4 415 l 2
 139.7 528.95 215.65 570 319.75 570 c 2
 437.75 570 l 2
 570.3 570 588.9 469.15 577.65 401 c 1
 539.75 155 l 18
 521.8 36 451.6 0 346.75 0 c 2
 228.75 0 l 2
 137.75 0 65.15 49 84.15 169 c 10
201.9 180.9 m 2
 190.05 108.1 227.05 109 265.95 109 c 10
 344.05 109 l 18
 396.5 109 419.65 137.4 426.9 181.25 c 2
 459.9 385.95 l 2
 467.15 432.8 461.55 461 399.8 461 c 2
 321.7 461 l 2
 257.75 461 240.85 426 234.9 386.3 c 2
 201.9 180.9 l 2
EndSplineSet
EndChar

StartChar: one.smcp
Encoding: 511 -1 445
Width: 346
VWidth: 0
Flags: HW
LayerCount: 2
Fore
SplineSet
97.85 408.9 m 1
 109.7 486.4 l 1
 164.95 486.4 238.25 550.75 255.05 570 c 1
 369.05 570 l 1
 282.35 0 l 1
 166.35 0 l 1
 235.1 443.85 l 1
 209.65 421.35 160.25 408.9 97.85 408.9 c 1
EndSplineSet
EndChar

StartChar: two.smcp
Encoding: 512 -1 446
Width: 511
VWidth: 0
Flags: HW
LayerCount: 2
Fore
SplineSet
40.4 0 m 25
 57 103 l 17
 153.6 144 394.1 254.75 412.9 375.5 c 1
 422.8 436.95 403.65 464.45 312.9 464.45 c 2
 107.15 463.8 l 2
 121.05 547.7 l 1
 206.05 568.95 248.8 573.8 358.35 573.8 c 3
 504.6 573.8 546.75 481.6 530.6 367.6 c 1
 510 233.85 347.5 130.5 283.65 109 c 9
 487.25 109 l 25
 469.65 0 l 25
 40.4 0 l 25
EndSplineSet
EndChar

